<svg width="213" height="48" viewBox="0 0 213 48" fill="none" xmlns="http://www.w3.org/2000/svg">
<path d="M67.7258 36.4429C68.9628 36.4429 70.1564 36.2475 71.3066 35.8569C72.4784 35.4446 73.5635 34.8587 74.5618 34.0991L74.985 33.741C75.3539 33.4589 75.5383 33.1225 75.5383 32.7319C75.5383 32.4715 75.4407 32.2002 75.2454 31.9181L74.5943 31.0392C74.2471 30.5835 73.8999 30.3556 73.5527 30.3556C73.379 30.3556 73.2271 30.4098 73.0969 30.5184L72.3482 31.1043C70.981 32.1677 69.4402 32.6994 67.7258 32.6994C66.3152 32.6994 65.0131 32.3413 63.8195 31.6251C62.6477 30.909 61.7145 29.9433 61.02 28.728C60.3256 27.491 59.9784 26.1564 59.9784 24.7241C59.9784 23.2918 60.3256 21.968 61.02 20.7527C61.7145 19.5157 62.6477 18.5391 63.8195 17.823C65.0131 17.1068 66.3152 16.7488 67.7258 16.7488C69.4402 16.7488 70.981 17.2804 72.3482 18.3438L72.7714 18.6693C73.0535 18.8864 73.3356 18.9949 73.6178 18.9949C73.9867 18.9949 74.3122 18.7995 74.5943 18.4089L75.2454 17.53C75.4841 17.2045 75.6034 16.8898 75.6034 16.586C75.6034 16.3256 75.4949 16.0977 75.2779 15.9024L74.5618 15.349C73.5635 14.5895 72.4784 14.0144 71.3066 13.6237C70.1564 13.2114 68.9628 13.0052 67.7258 13.0052C65.6642 13.0052 63.7544 13.5369 61.9966 14.6003C60.2605 15.642 58.8824 17.0634 57.8625 18.8646C56.8425 20.6442 56.3325 22.5973 56.3325 24.7241C56.3325 26.8508 56.8425 28.8148 57.8625 30.616C58.8824 32.3955 60.2605 33.817 61.9966 34.8804C63.7544 35.922 65.6642 36.4429 67.7258 36.4429Z" fill="#FEBF32"/>
<path d="M89.0801 13.3308C89.8179 13.3308 90.3171 13.6671 90.5775 14.3399L98.683 34.6199C98.7698 34.8153 98.8132 35.0214 98.8132 35.2384C98.8132 35.5205 98.7155 35.7376 98.5202 35.8895C98.3249 36.0414 98.0428 36.1173 97.6739 36.1173H96.3067C95.5688 36.1173 95.0697 35.781 94.8093 35.1082L93.7025 32.3738C93.4421 31.7011 92.9429 31.3647 92.2051 31.3647H84.067C83.3292 31.3647 82.83 31.7011 82.5696 32.3738L81.4628 35.1082C81.2024 35.781 80.7033 36.1173 79.9654 36.1173H78.5983C78.2293 36.1173 77.9472 36.0414 77.7519 35.8895C77.5566 35.7376 77.4589 35.5205 77.4589 35.2384C77.4589 35.0214 77.5023 34.8153 77.5891 34.6199L85.6946 14.3399C85.9551 13.6671 86.4542 13.3308 87.192 13.3308H89.0801ZM89.015 20.5899C88.798 20.0474 88.505 19.7761 88.1361 19.7761C87.7671 19.7761 87.4742 20.0474 87.2571 20.5899L85.0761 26.0587C84.9893 26.254 84.9459 26.4493 84.9459 26.6446C84.9459 26.9268 85.0436 27.1546 85.2389 27.3282C85.4559 27.4801 85.7489 27.5561 86.1178 27.5561H90.1543C90.5232 27.5561 90.8053 27.4801 91.0007 27.3282C91.2177 27.1546 91.3262 26.9268 91.3262 26.6446C91.3262 26.4493 91.2828 26.254 91.196 26.0587L89.015 20.5899ZM83.8717 11.931C83.4811 11.931 83.1773 11.8659 82.9603 11.7357C82.7432 11.6055 82.6347 11.421 82.6347 11.1823C82.6347 11.0304 82.6998 10.8242 82.83 10.5638L85.9225 7.37371C86.248 6.74436 86.8448 6.42969 87.7129 6.42969H88.5918C89.4816 6.42969 90.0783 6.74436 90.3822 7.37371L93.4746 10.5638C93.5831 10.7591 93.6374 10.9545 93.6374 11.1498C93.6374 11.4102 93.518 11.6055 93.2793 11.7357C93.0406 11.8659 92.7042 11.931 92.2702 11.931H92.0098C91.1417 11.931 90.4147 11.6272 89.8288 11.0196L88.1686 9.78257L86.4759 11.0196C85.9117 11.6272 85.1847 11.931 84.2949 11.931H83.8717ZM88.1361 42.3348C87.6152 42.3348 87.1703 42.1504 86.8014 41.7814C86.4325 41.4125 86.248 40.9676 86.248 40.4468C86.248 39.9477 86.4325 39.5136 86.8014 39.1447C87.1703 38.7758 87.6152 38.5913 88.1361 38.5913C88.6569 38.5913 89.1018 38.7758 89.4707 39.1447C89.8396 39.5136 90.0241 39.9477 90.0241 40.4468C90.0241 40.9676 89.8396 41.4125 89.4707 41.7814C89.1018 42.1504 88.6569 42.3348 88.1361 42.3348Z" fill="#FEBF32"/>
<path d="M117.231 13.3308C118.099 13.3308 118.533 13.7648 118.533 14.6329V27.198C118.533 28.869 118.121 30.4207 117.297 31.853C116.472 33.2636 115.343 34.3812 113.911 35.2059C112.5 36.0305 110.96 36.4429 109.289 36.4429C107.618 36.4429 106.066 36.0305 104.634 35.2059C103.223 34.3812 102.105 33.2636 101.281 31.853C100.456 30.4207 100.044 28.869 100.044 27.198V14.6329C100.044 13.7648 100.478 13.3308 101.346 13.3308H102.453C103.321 13.3308 103.755 13.7648 103.755 14.6329V27.198C103.755 28.1963 104.004 29.1186 104.503 29.965C105.003 30.8113 105.675 31.4841 106.522 31.9832C107.368 32.4823 108.29 32.7319 109.289 32.7319C110.287 32.7319 111.209 32.4823 112.056 31.9832C112.902 31.4841 113.575 30.8113 114.074 29.965C114.573 29.1186 114.823 28.1963 114.823 27.198V14.6329C114.823 13.7648 115.257 13.3308 116.125 13.3308H117.231Z" fill="#FEBF32"/>
<path d="M139.328 28.8907C139.567 29.4333 139.86 29.7045 140.207 29.7045C140.554 29.7045 140.847 29.4333 141.086 28.8907L146.88 14.3724C147.141 13.6997 147.64 13.3633 148.378 13.3633H149.745C150.114 13.3633 150.396 13.4393 150.591 13.5912C150.786 13.7431 150.884 13.9601 150.884 14.2422C150.884 14.4592 150.841 14.6654 150.754 14.8607L142.648 35.1408C142.388 35.8135 141.889 36.1499 141.151 36.1499H139.263C138.525 36.1499 138.026 35.8135 137.766 35.1408L129.66 14.8607C129.573 14.6654 129.53 14.4592 129.53 14.2422C129.53 13.9601 129.627 13.7431 129.823 13.5912C130.018 13.4393 130.3 13.3633 130.669 13.3633H132.036C132.774 13.3633 133.273 13.6997 133.534 14.3724L139.328 28.8907Z" fill="#FEBF32"/>
<path d="M158.723 13.3308C159.461 13.3308 159.96 13.6671 160.22 14.3399L168.326 34.6199C168.413 34.8153 168.456 35.0214 168.456 35.2384C168.456 35.5205 168.358 35.7376 168.163 35.8895C167.968 36.0414 167.686 36.1173 167.317 36.1173H165.949C165.212 36.1173 164.712 35.781 164.452 35.1082L163.345 32.3738C163.085 31.7011 162.586 31.3647 161.848 31.3647H153.71C152.972 31.3647 152.473 31.7011 152.212 32.3738L151.106 35.1082C150.845 35.781 150.346 36.1173 149.608 36.1173H148.241C147.872 36.1173 147.59 36.0414 147.395 35.8895C147.199 35.7376 147.102 35.5205 147.102 35.2384C147.102 35.0214 147.145 34.8153 147.232 34.6199L155.337 14.3399C155.598 13.6671 156.097 13.3308 156.835 13.3308H158.723ZM158.658 20.5899C158.441 20.0474 158.148 19.7761 157.779 19.7761C157.41 19.7761 157.117 20.0474 156.9 20.5899L154.719 26.0587C154.632 26.254 154.589 26.4493 154.589 26.6446C154.589 26.9268 154.686 27.1546 154.882 27.3282C155.099 27.4801 155.392 27.5561 155.761 27.5561H159.797C160.166 27.5561 160.448 27.4801 160.643 27.3282C160.86 27.1546 160.969 26.9268 160.969 26.6446C160.969 26.4493 160.926 26.254 160.839 26.0587L158.658 20.5899ZM153.58 7.27605L154.1 6.52735C154.621 5.8112 155.077 5.61588 155.468 5.94141L159.83 9.55471C160.199 9.85853 160.155 10.336 159.699 10.987C159.482 11.2908 159.254 11.5078 159.016 11.6381C158.799 11.7683 158.582 11.7574 158.365 11.6055L153.514 8.7409C153.059 8.48048 153.08 7.9922 153.58 7.27605Z" fill="#FEBF32"/>
<path d="M186.881 36.1499C186.534 36.1499 186.23 36.0848 185.97 35.9546C185.731 35.8244 185.514 35.6074 185.319 35.3035L176.074 21.6641C175.77 21.2301 175.466 21.0131 175.162 21.0131C174.967 21.0131 174.804 21.1108 174.674 21.3061C174.544 21.5014 174.479 21.7835 174.479 22.1524V34.8478C174.479 35.7159 174.045 36.1499 173.177 36.1499H172.135C171.267 36.1499 170.833 35.7159 170.833 34.8478V14.6654C170.833 13.7973 171.267 13.3633 172.135 13.3633H173.86C174.208 13.3633 174.501 13.4284 174.739 13.5586C175 13.6888 175.228 13.9059 175.423 14.2097L184.668 27.8491C184.972 28.2831 185.275 28.5001 185.579 28.5001C185.774 28.5001 185.937 28.4025 186.067 28.2071C186.198 28.0118 186.263 27.7297 186.263 27.3608V14.6654C186.263 13.7973 186.697 13.3633 187.565 13.3633H188.607C189.475 13.3633 189.909 13.7973 189.909 14.6654V34.8478C189.909 35.7159 189.475 36.1499 188.607 36.1499H186.881Z" fill="#FEBF32"/>
<path d="M204.276 36.4429C205.599 36.4429 206.869 36.2367 208.084 35.8244C209.321 35.3903 210.461 34.7718 211.502 33.9689C211.763 33.7519 211.947 33.524 212.056 33.2853C212.164 33.0466 212.218 32.7536 212.218 32.4064V24.3985C212.218 23.5305 211.784 23.0964 210.916 23.0964H204.601C203.733 23.0964 203.299 23.5305 203.299 24.3985V25.5379C203.299 26.4059 203.733 26.8399 204.601 26.8399H207.14C208.008 26.8399 208.442 27.274 208.442 28.142V30.4532C208.442 31.1911 208.138 31.7011 207.531 31.9832C206.467 32.4606 205.382 32.6994 204.276 32.6994C202.843 32.6994 201.509 32.3413 200.272 31.6251C199.056 30.909 198.091 29.9433 197.375 28.728C196.658 27.491 196.3 26.1564 196.3 24.7241C196.3 23.2918 196.658 21.968 197.375 20.7527C198.091 19.5157 199.056 18.5391 200.272 17.823C201.509 17.1068 202.843 16.7488 204.276 16.7488C206.033 16.7488 207.628 17.2804 209.061 18.3438L209.517 18.7019C209.842 18.9189 210.124 19.0274 210.363 19.0274C210.732 19.0274 211.057 18.8321 211.339 18.4415L212.023 17.53C212.283 17.1611 212.414 16.8464 212.414 16.586C212.414 16.3256 212.294 16.0977 212.056 15.9024L211.307 15.349C209.202 13.7865 206.858 13.0052 204.276 13.0052C202.149 13.0052 200.185 13.5369 198.384 14.6003C196.604 15.642 195.183 17.0634 194.119 18.8646C193.078 20.6442 192.557 22.5973 192.557 24.7241C192.557 26.8508 193.078 28.8148 194.119 30.616C195.183 32.3955 196.604 33.817 198.384 34.8804C200.185 35.922 202.149 36.4429 204.276 36.4429Z" fill="#FEBF32"/>
<g clip-path="url(#clip0_40_476)">
<path d="M24.0195 5.10004C13.5557 5.09167 5.07761 13.5419 5.07202 23.9861C5.06644 34.4247 13.5237 42.9056 23.9427 42.9098C34.4134 42.914 42.8818 34.461 42.8818 24.0042C42.8818 13.5475 34.4316 5.10981 24.0195 5.10004ZM24.0362 42.7131C13.645 42.734 5.26877 34.387 5.24226 23.9889C5.21714 13.7066 13.5976 5.29818 23.8981 5.27167C34.2488 5.24376 42.6669 13.6075 42.6851 23.9373C42.7032 34.2824 34.3492 42.6935 24.0348 42.7131H24.0362Z" fill="black"/>
<path d="M24.0472 0.234443C10.8919 0.224675 0.23281 10.8475 0.225834 23.9805C0.218857 37.1051 10.8528 47.7684 23.9509 47.7726C37.1161 47.7782 47.7626 37.1498 47.7626 24.0042C47.7626 10.8586 37.137 0.247001 24.0472 0.234443ZM24.0682 47.5256C11.0035 47.5507 0.471415 37.0563 0.439322 23.9833C0.408624 11.0554 10.9449 0.48421 23.8965 0.450722C36.9109 0.415838 47.4947 10.9312 47.517 23.9191C47.5393 36.9251 37.0365 47.5005 24.0696 47.5256H24.0682Z" fill="#D8872B"/>
<path d="M45.8956 17.7516C45.8956 17.7516 45.8928 17.7517 45.8914 17.753C45.8761 17.6372 45.8509 17.5228 45.8021 17.407C45.7951 17.3889 45.7854 17.3749 45.7756 17.361C44.1835 12.0154 40.4007 6.97677 34.8598 3.96839C31.1021 1.927 27.0835 1.03956 22.8472 1.23351C22.8361 1.22932 22.8263 1.22374 22.8137 1.22095C22.6937 1.19444 22.5723 1.20839 22.4509 1.23491C22.4021 1.23212 22.3547 1.23351 22.3058 1.23909C22.2919 1.24049 22.2793 1.24328 22.2668 1.24746C22.1984 1.24188 22.13 1.23909 22.063 1.24886C22.0323 1.25305 22.0058 1.26839 21.9835 1.28932C20.9537 1.38142 19.9323 1.52932 18.9249 1.76514C13.903 2.94281 9.73792 5.51584 6.42257 9.46607C6.32629 9.58049 6.22024 9.69212 6.12815 9.81212C5.92722 9.97816 5.85466 10.2251 5.68443 10.4163C5.60071 10.5112 5.49048 10.5614 5.4235 10.6717C5.36629 10.7651 5.32304 10.8712 5.27838 10.973C2.85606 14.4726 1.50117 18.3517 1.23466 22.6144C1.10769 24.6489 1.25001 26.6665 1.67559 28.6605C2.66769 33.3084 4.87931 37.2851 8.33559 40.5419C12.1937 44.1782 16.7872 46.2126 22.0686 46.6884C22.0756 46.6884 22.084 46.6884 22.0923 46.6884C22.2402 46.7121 22.3923 46.7191 22.543 46.7205C23.9677 46.8126 25.3463 46.7693 26.7221 46.6047C29.6733 46.2503 32.4472 45.3475 35.044 43.9047C37.8486 42.3447 40.2263 40.2824 42.1547 37.7191C45.0598 33.8568 46.5877 29.5005 46.7495 24.6712C46.8277 22.3256 46.543 20.0219 45.8956 17.7516Z" fill="#FEBF32"/>
<path d="M23.1054 48C22.8584 47.9805 22.6129 47.9595 22.3659 47.9414C16.0854 47.4656 10.7719 44.9386 6.45332 40.3633C3.53565 37.2726 1.61007 33.6279 0.631927 29.4907C0.12402 27.3433 -0.0755153 25.1651 0.0249498 22.9591C0.217508 18.6823 1.43007 14.7182 3.75611 11.1251C7.28495 5.6749 12.2259 2.17257 18.5384 0.636295C20.778 0.090714 23.0608 -0.101844 25.3617 0.0502489C31.7649 0.470249 37.1859 3.01397 41.5784 7.68978C44.5087 10.8084 46.4301 14.4837 47.3901 18.6558C47.9036 20.8814 48.1073 23.1391 47.9468 25.4177C47.4473 32.4893 44.4445 38.2814 38.9524 42.7577C35.9008 45.2442 32.404 46.8182 28.5417 47.5716C27.4031 47.7935 26.2519 47.9289 25.0924 47.9749C25.0226 47.9777 24.9543 47.993 24.8859 48.0014H23.1054V48ZM47.764 24.0042C47.764 10.8977 37.137 0.246993 24.0473 0.23583C10.8919 0.223272 0.232857 10.8489 0.22588 23.9805C0.218903 37.1065 10.8515 47.7684 23.951 47.774C37.1175 47.7782 47.764 37.1512 47.764 24.0042Z" fill="black"/>
<path d="M42.4017 23.993C42.4017 34.1958 34.1385 42.4437 23.9203 42.4409C13.7538 42.4367 5.50175 34.1623 5.50733 23.9749C5.51291 13.7833 13.7845 5.53675 23.9957 5.54652C34.1552 5.55628 42.4017 13.8209 42.4017 23.993ZM6.085 23.9777C6.10872 33.8972 14.0985 41.8577 24.011 41.8381C33.8483 41.8186 41.8171 33.7967 41.799 23.9288C41.7822 14.0763 33.7534 6.09908 23.8799 6.12419C14.0552 6.1507 6.06128 14.1698 6.085 23.9777Z" fill="#231F20"/>
<path d="M23.8994 0.979574C11.2394 1.01306 0.940318 11.347 0.971016 23.9833C1.00171 36.7633 11.2966 47.0219 24.0682 46.9968C36.7436 46.9717 47.0105 36.6349 46.9882 23.9205C46.9659 11.2256 36.6208 0.946085 23.8994 0.979574ZM42.1561 37.7205C40.2278 40.2852 37.8515 42.3475 35.0454 43.9061C32.4487 45.3503 29.6747 46.2531 26.7236 46.6061C25.3199 46.7749 23.9133 46.8168 22.458 46.7177C22.4608 46.7163 22.4622 46.7149 22.465 46.7121C22.3436 46.7052 22.2236 46.6982 22.1022 46.6926C22.0966 46.6926 22.0924 46.6898 22.0882 46.6884C22.0826 46.6884 22.0771 46.6884 22.0715 46.6884C16.7901 46.2126 12.1966 44.1782 8.33846 40.5419C4.88218 37.2838 2.67055 33.3084 1.67846 28.6605C1.25288 26.6665 1.11055 24.6475 1.23753 22.6145C1.50962 18.2582 2.91613 14.301 5.44032 10.7414C5.4445 10.7303 5.45288 10.7191 5.46264 10.7093C5.46543 10.7065 5.46683 10.7024 5.46962 10.6996C5.48078 10.6828 5.49334 10.6661 5.50869 10.6479C5.52683 10.6117 5.54078 10.5684 5.5645 10.5377C5.61753 10.4721 5.68171 10.4275 5.72776 10.3549C5.81008 10.2224 5.87567 10.0996 6.00125 10.0033C6.00125 10.0033 6.00404 10.0033 6.00543 10.0019C6.11567 9.80376 6.28171 9.63911 6.42683 9.46608C9.74078 5.51585 13.9073 2.94283 18.9292 1.76516C19.9854 1.51818 21.0571 1.36609 22.1371 1.27539C22.1468 1.27539 22.1552 1.27539 22.1636 1.27539C22.1636 1.27539 22.165 1.27539 22.1664 1.27399C22.3533 1.22934 22.5626 1.23213 22.7538 1.23074C22.7636 1.23074 22.7705 1.23353 22.7789 1.23632C27.0403 1.02981 31.0826 1.91725 34.8599 3.96841C40.4775 7.02004 44.2896 12.1563 45.8412 17.5842C45.8873 17.6372 45.8998 17.7056 45.9012 17.7768C46.5445 20.0386 46.8264 22.334 46.7482 24.6698C46.5878 29.4991 45.0585 33.8568 42.1533 37.7177L42.1561 37.7205Z" fill="black"/>
<path d="M42.6767 24.0042C42.6767 34.3368 34.3088 42.6908 23.9595 42.6866C13.6632 42.6824 5.30643 34.3019 5.31201 23.9861C5.3176 13.6647 13.6953 5.31354 24.0348 5.32331C34.3227 5.33308 42.6753 13.7038 42.6753 24.0056L42.6767 24.0042ZM5.89806 23.9889C5.92178 34.034 14.0134 42.0963 24.0515 42.0768C34.0143 42.0573 42.0836 33.9322 42.0669 23.9387C42.0502 13.9605 33.9181 5.88145 23.919 5.90796C13.9688 5.93447 5.87294 14.0554 5.89806 23.9889Z" fill="#D8872B"/>
<path d="M24.0446 1.32282C11.4907 1.31166 1.31997 11.4503 1.31299 23.9819C1.30602 36.5065 11.453 46.6814 23.9539 46.6856C36.5176 46.6912 46.6772 36.5498 46.6772 24.0042C46.6772 11.4586 36.5358 1.33399 24.0446 1.32282ZM24.0656 46.4498C11.5995 46.4749 1.54881 36.4605 1.51811 23.9847C1.48881 11.6484 11.5423 1.56003 23.9009 1.52794C36.3195 1.49445 46.419 11.5298 46.4414 23.9219C46.4637 36.3335 36.4395 46.4247 24.0656 46.4484V46.4498Z" fill="#FEDE4D"/>
<path d="M24.046 0.630744C11.1098 0.620977 0.629295 11.068 0.622318 23.9819C0.615341 36.8875 11.0721 47.3735 23.9525 47.3763C36.8986 47.3819 47.3679 36.9307 47.3679 24.0042C47.3679 11.0777 36.9181 0.643302 24.046 0.630744ZM24.067 47.1335C11.22 47.1586 0.863713 36.84 0.833016 23.9833C0.802318 11.2717 11.1628 0.876326 23.8981 0.842837C36.6949 0.807953 47.1028 11.1489 47.1251 23.9191C47.1474 36.7089 36.8191 47.107 24.0684 47.1321L24.067 47.1335Z" fill="#FFDF99"/>
<path d="M24.0361 5.09864C13.5723 5.09027 5.09421 13.5405 5.08863 23.9847C5.08304 34.4233 13.5403 42.9042 23.9593 42.9084C34.43 42.9126 42.8984 34.4596 42.8984 24.0028C42.8984 13.5461 34.4482 5.10841 24.0361 5.09864ZM24.0528 42.7117C13.6616 42.7326 5.28537 34.3856 5.25886 23.9875C5.23374 13.7052 13.6142 5.29678 23.9147 5.27027C34.2654 5.24236 42.6835 13.6061 42.7016 23.9358C42.7198 34.281 34.3658 42.6921 24.0514 42.7117H24.0528Z" fill="#FEDE4D"/>
<path d="M24.0472 0.234443C10.8919 0.224675 0.23281 10.8475 0.225834 23.9805C0.218857 37.1051 10.8528 47.7684 23.9509 47.7726C37.1161 47.7782 47.7626 37.1498 47.7626 24.0042C47.7626 10.8586 37.137 0.247001 24.0472 0.234443ZM0.969554 23.9833C0.940252 11.347 11.2393 1.01305 23.8993 0.979559C36.6193 0.947466 46.9658 11.2256 46.9868 23.9205C47.0091 36.6349 36.7421 46.9716 24.0668 46.9968C11.2951 47.0219 1.00025 36.7661 0.969554 23.9847V23.9833Z" fill="#FEBF32"/>
<path d="M41.7989 23.9931C41.7989 33.8624 33.8064 41.841 23.9217 41.8382C14.0873 41.834 6.10592 33.8303 6.11011 23.9763C6.11569 14.1168 14.1166 6.14099 23.9943 6.14936C33.8217 6.15773 41.7989 14.1531 41.7989 23.9931Z" fill="#FEBF32"/>
<path d="M27.1744 25.3675C26.9888 26.5772 26.2158 27.3056 25.2125 27.8261C24.0851 28.4121 22.8906 28.5726 21.6446 28.2768C21.6041 28.267 21.5665 28.253 21.5246 28.2712C20.9232 28.5447 20.3106 28.4763 19.7037 28.3075C19.0102 28.1135 18.3976 27.7716 17.8855 27.2582C17.7906 27.1633 17.6595 27.1186 17.573 27.0126C17.4837 26.9051 17.4823 26.7935 17.5953 26.7098C17.7027 26.6288 17.7516 26.7168 17.8116 26.7949C18.2455 27.3656 18.819 27.7423 19.486 27.9837C20.0037 28.1721 20.5339 28.2712 21.0851 28.1679C21.332 28.1205 21.3418 28.1205 21.3265 27.8665C21.3041 27.4828 21.2804 27.0991 21.2972 26.7126C21.3041 26.5702 21.339 26.4293 21.3209 26.2828C21.3111 26.2019 21.2902 26.1712 21.2079 26.1572C20.7865 26.0875 20.3776 25.973 19.9953 25.7763C19.9032 25.7288 19.8181 25.673 19.7525 25.5907C19.7302 25.5628 19.6939 25.5265 19.6995 25.5014C19.7372 25.3144 19.5823 25.2516 19.4832 25.154C19.0144 24.6977 18.6795 24.1786 18.7088 23.4935C18.7311 23.0009 18.9711 22.6186 19.3451 22.3116C19.3799 22.2823 19.4344 22.2558 19.4427 22.2182C19.4888 22.0298 19.6311 22.0926 19.7413 22.1037C19.8223 22.1121 19.8516 22.1986 19.8069 22.2572C19.7316 22.3549 19.8041 22.3968 19.8586 22.4428C20.093 22.6451 20.3734 22.7582 20.6651 22.8433C21.3502 23.0428 22.0437 23.1056 22.7483 22.9563C22.9353 22.9172 23.1139 22.8544 23.266 22.733C23.3553 22.6619 23.3511 22.5963 23.2772 22.5154C23.1432 22.3688 23.0316 22.2 22.8613 22.087C22.7888 22.0395 22.7637 21.9628 22.8279 21.8888C22.8879 21.8191 22.9618 21.84 23.0176 21.893C23.4599 22.3158 23.8785 22.7568 24.0251 23.3805C24.106 23.7293 24.1088 24.0907 24.0599 24.4368C24.0139 24.7647 23.8116 25.0395 23.5534 25.2572C23.2172 25.5419 22.8306 25.7568 22.479 26.0149C22.2209 26.2047 21.9641 26.2088 21.6851 26.2061C21.6097 26.2061 21.579 26.2102 21.5706 26.2982C21.5176 26.8354 21.526 27.3726 21.5692 27.9098C21.5776 28.0144 21.6446 28.02 21.7088 28.0368C22.2097 28.1763 22.7232 28.2028 23.2353 28.1512C24.2762 28.0479 25.2181 27.6907 26.0106 26.9889C26.1962 26.8256 26.3483 26.633 26.5032 26.4405C26.7362 26.153 26.7627 25.8042 26.8409 25.4679C26.8632 25.3716 26.7837 25.3368 26.7292 25.3061C26.6818 25.2782 26.6372 25.3256 26.6288 25.3856C26.6218 25.4344 26.5883 25.454 26.5409 25.4526C26.4837 25.4512 26.4432 25.4205 26.4209 25.3702C26.3999 25.3242 26.4027 25.2726 26.4446 25.2433C26.6386 25.1065 26.8409 24.9558 27.0892 25.0256C27.212 25.0591 27.3209 25.1721 27.3655 25.3102C27.3823 25.3619 27.3851 25.4261 27.3195 25.4582C27.2358 25.4986 27.2218 25.4135 27.173 25.3619L27.1744 25.3675Z" fill="black"/>
<path d="M22.5487 29.767C22.5417 29.5354 22.571 29.2521 22.6394 28.9702C22.7231 28.6228 22.9185 28.5405 23.224 28.7219C23.4096 28.8321 23.5031 28.9996 23.5617 29.1977C23.6733 29.5758 23.6775 29.9665 23.6999 30.3544C23.7152 30.6098 23.7026 30.8679 23.7026 31.1247C23.7026 31.1875 23.7068 31.2335 23.778 31.2712C23.9343 31.3549 24.0096 31.5042 24.0096 31.6786C24.0082 32.4809 24.2915 33.1744 24.7743 33.8037C24.8803 33.9433 25.0129 34.0116 25.1552 34.0814C25.2892 34.147 25.4287 34.1819 25.5557 34.2823C25.811 34.4847 26.1236 34.6075 26.3887 34.8042C26.4417 34.8433 26.4808 34.8502 26.5478 34.8042C26.6971 34.7009 26.8268 34.5865 26.9357 34.4386C27.071 34.2558 27.2552 34.1191 27.4589 34.0158C28.031 33.727 28.5571 33.3796 28.9966 32.9051C29.1473 32.7419 29.3496 32.6428 29.5226 32.5061C30.2845 31.9061 30.9668 31.2419 31.2682 30.2819C31.3212 30.1116 31.3575 29.9344 31.405 29.7614C31.4217 29.7 31.4538 29.6456 31.5292 29.6428C31.5836 29.64 31.6143 29.6707 31.6338 29.7168C31.6603 29.7809 31.6533 29.8326 31.5905 29.8772C31.5222 29.9261 31.518 30.0126 31.5012 30.0837C31.3338 30.7786 30.9906 31.3633 30.4868 31.8796C30.0794 32.2982 29.6161 32.6386 29.1668 33.0028C28.8417 33.2665 28.5599 33.5847 28.1957 33.8037C27.9236 33.967 27.6459 34.1219 27.371 34.2809C27.258 34.3465 27.1617 34.4344 27.0864 34.5363C26.9733 34.6898 26.8478 34.8279 26.665 34.9396C26.8868 35.0623 27.0989 35.1614 27.2915 35.2912C27.5761 35.4823 27.8133 35.4712 28.1287 35.2996C28.6073 35.04 29.058 34.7442 29.5143 34.4526C29.8924 34.2112 30.1882 33.8986 30.4757 33.5582C30.7464 33.2386 31.0645 32.9582 31.3115 32.6163C31.4999 32.354 31.6952 32.0986 31.9129 31.8572C32.2073 31.5307 32.2938 31.1037 32.4194 30.6977C32.5254 30.3558 32.5994 30.0028 32.7501 29.6763C32.7766 29.6191 32.7975 29.5326 32.8882 29.5744C32.9761 29.6135 32.9329 29.6861 32.9078 29.7475C32.7138 30.2121 32.6189 30.7075 32.4585 31.1833C32.3371 31.5447 32.1724 31.8698 31.9003 32.1433C31.7678 32.2758 31.6589 32.4363 31.5515 32.5926C31.2947 32.9665 30.9919 33.3 30.6654 33.6112C30.5133 33.7563 30.4045 33.9391 30.2622 34.0954C29.9943 34.3884 29.6412 34.5628 29.3301 34.7944C28.9352 35.0902 28.5026 35.3219 28.0533 35.5242C27.8859 35.5996 27.8873 35.6275 28.0422 35.7251C28.1636 35.8019 28.2919 35.8661 28.4161 35.9372C28.5947 36.0391 29.7403 37.267 29.718 37.4805C29.6971 37.6968 29.5478 37.8098 29.3594 37.8809C29.2212 37.9326 29.0775 37.9298 28.9338 37.9172C28.8612 37.9116 28.8012 37.8754 28.8096 37.7916C28.818 37.7107 28.878 37.6842 28.9533 37.6842C29.0664 37.6842 29.1808 37.6968 29.2882 37.6521C29.3789 37.6144 29.4696 37.5684 29.4794 37.4526C29.4892 37.3451 28.3854 36.2009 28.3031 36.1521C27.7296 35.8144 27.1659 35.4614 26.5659 35.1698C26.1822 34.9828 25.8417 34.7233 25.4664 34.5223C25.2766 34.4205 25.2892 34.4219 25.2138 34.62C25.1747 34.7219 25.1552 34.8251 25.1329 34.9284C25.098 35.0875 25.031 35.2298 24.9152 35.3442C24.6501 35.6037 24.3612 35.8256 23.9999 35.94C23.898 35.9721 23.7822 35.9986 23.7361 36.1284C23.6692 36.3168 26.5799 37.9661 26.7599 38.0568C26.8519 38.1028 26.9426 38.1489 27.0333 38.1977C27.1031 38.2354 27.1478 38.2968 27.1101 38.3749C27.0696 38.4586 26.9985 38.4489 26.9259 38.4126C26.8171 38.3568 26.7068 38.3023 26.5966 38.2465C26.3775 38.1335 23.4138 36.3921 23.4808 36.1507C23.5059 36.0614 23.4989 36.007 23.4166 35.9498C23.2352 35.8214 23.1571 35.6219 23.1054 35.4168C23.0803 35.3135 23.0357 35.2758 22.9338 35.2716C22.7999 35.2661 22.6659 35.2493 22.5738 35.1307C22.5557 35.107 22.5347 35.093 22.5138 35.1209C22.4106 35.2661 22.2473 35.2605 22.098 35.2786C22.0296 35.287 22.0045 35.3107 21.9878 35.3749C21.9222 35.6149 21.8357 35.8437 21.6124 35.9902C21.5622 36.0237 21.5789 36.067 21.5887 36.113C21.6612 36.4242 21.604 36.5428 21.3236 36.6809C21.2315 36.727 19.0589 38.0526 18.9682 38.1C18.8985 38.1363 18.8273 38.1544 18.7799 38.0735C18.7282 37.9842 18.7868 37.9284 18.858 37.8879C18.9515 37.8349 19.0478 37.7861 19.144 37.74C19.2194 37.7037 21.3808 36.3935 21.371 36.2889C21.3612 36.1758 21.3501 36.0628 21.2259 36.0056C21.0501 35.9247 20.8589 35.8856 20.6957 35.7698C20.5366 35.6568 20.3719 35.5535 20.2282 35.4209C20.0552 35.2619 19.9478 35.0651 19.924 34.8335C19.9129 34.7247 19.8529 34.6354 19.8389 34.5265C19.8264 34.4247 19.7385 34.4512 19.6701 34.4902C19.4357 34.6284 19.1943 34.7554 18.9696 34.9075C18.7729 35.0414 18.5608 35.1405 18.3543 35.2535C17.9329 35.4837 17.4906 35.6791 17.1012 35.9693C16.9952 36.0475 16.8668 36.0949 16.7552 36.1675C16.5752 36.2861 15.4338 37.867 15.6292 37.9633C15.7394 38.0177 15.858 38.0121 15.9752 38.0107C16.0589 38.0107 16.1371 38.0247 16.1385 38.1293C16.1385 38.2354 16.0547 38.2451 15.9752 38.2493C15.7994 38.2563 15.6278 38.2465 15.4701 38.1516C15.1589 37.9633 16.2975 36.1758 16.6059 35.9805C17.1947 35.6093 17.7933 35.2549 18.4199 34.9493C18.7561 34.7847 19.0533 34.5516 19.384 34.3772C19.4789 34.327 19.5724 34.274 19.6701 34.2265C19.7385 34.1944 19.818 34.1861 19.8752 34.2349C19.9882 34.3284 20.0259 34.26 20.0664 34.1651C20.1696 33.9265 20.344 33.734 20.4961 33.5289C20.8254 33.0809 20.9482 32.5577 21.0682 32.0344C21.0906 31.9382 21.064 31.8307 21.0626 31.7289C21.0599 31.5293 21.131 31.3633 21.3096 31.2656C21.3878 31.2237 21.3696 31.1651 21.3682 31.1093C21.3626 30.6321 21.3724 30.1549 21.4212 29.6805C21.4436 29.4698 21.4868 29.2661 21.5608 29.0679C21.6319 28.8754 21.7729 28.7554 21.9501 28.6744C22.1845 28.5684 22.3729 28.6675 22.4287 28.9326C22.4901 29.227 22.5543 29.5228 22.5445 29.7698L22.5487 29.767ZM22.2933 29.8382C22.3031 29.5493 22.2682 29.2661 22.2054 28.9828C22.1747 28.8447 22.1189 28.86 22.0254 28.9005C21.8761 28.9661 21.8036 29.0889 21.7589 29.2382C21.6445 29.6163 21.6403 30.007 21.6208 30.3949C21.6054 30.6921 21.618 30.9907 21.618 31.2879C21.618 31.3702 21.6082 31.4554 21.5133 31.4679C21.3236 31.493 21.2985 31.6242 21.311 31.7693C21.325 31.9396 21.311 32.1014 21.2719 32.2689C21.1506 32.7921 20.9859 33.2944 20.6552 33.7284C20.6245 33.7689 20.5701 33.8191 20.5757 33.8568C20.6008 34.0172 20.5701 34.1149 20.3845 34.1149C20.3664 34.1149 20.3468 34.1596 20.3315 34.1861C20.2994 34.2447 20.2715 34.3061 20.2408 34.3647C20.1054 34.6172 20.1319 34.9451 20.3259 35.1586C20.5631 35.4196 20.8464 35.6177 21.1882 35.7209C21.5147 35.82 21.5189 35.8354 21.6961 35.5033C21.7129 35.4726 21.7185 35.4349 21.7324 35.4028C21.8147 35.2005 21.9194 35.0261 22.1747 35.0261C22.2975 35.0261 22.3575 34.9577 22.3408 34.8391C22.285 34.4442 22.3785 34.0507 22.3519 33.6572C22.3157 33.1103 22.2766 32.5619 22.2124 32.0177C22.1957 31.8712 22.1803 31.7358 22.1915 31.5865C22.2375 31.0047 22.2612 30.42 22.2933 29.8368V29.8382ZM23.4599 30.6628C23.4724 30.3349 23.4431 29.9568 23.3971 29.5786C23.3775 29.4209 23.3399 29.2661 23.2771 29.1196C23.2268 29.0023 23.1319 28.9354 23.0217 28.8879C22.9547 28.8586 22.8919 28.8558 22.878 28.9591C22.8585 29.1014 22.8208 29.2409 22.8068 29.3833C22.7664 29.7837 22.7831 30.1828 22.8375 30.5805C22.8919 30.9809 22.804 31.3926 22.9254 31.7889C22.931 31.807 22.9282 31.8321 22.9199 31.8489C22.8361 32.0051 22.8543 32.1782 22.8333 32.3442C22.7231 33.18 22.7231 34.02 22.7426 34.86C22.7454 34.9716 22.7915 35.0261 22.8947 35.0261C23.164 35.0261 23.2715 35.2061 23.3552 35.4196C23.3887 35.5047 23.4292 35.5884 23.4752 35.6679C23.5282 35.7586 23.5966 35.7949 23.7166 35.7726C24.0515 35.7098 24.318 35.527 24.5831 35.333C24.8329 35.1502 24.9292 34.8977 24.9347 34.6005C24.9361 34.4986 24.904 34.4303 24.784 34.4093C24.6654 34.3884 24.5761 34.2349 24.625 34.1386C24.6738 34.0451 24.6278 33.9991 24.5817 33.9377C24.4073 33.7089 24.2301 33.4814 24.1185 33.2149C23.9133 32.7265 23.7375 32.2326 23.764 31.6884C23.7682 31.5949 23.7417 31.5 23.6217 31.4847C23.4933 31.4679 23.4543 31.3884 23.4571 31.2698C23.4612 31.0856 23.4571 30.9 23.4571 30.6628H23.4599ZM22.5403 32.8116C22.6799 31.92 22.6519 31.0409 22.5403 30.1619C22.4315 31.0409 22.398 31.92 22.5403 32.8116Z" fill="black"/>
<path d="M34.0645 20.5005C34.1272 20.6261 34.2445 20.6847 34.3128 20.7879C34.4161 20.9428 34.384 21.0251 34.2026 21.053C34.0812 21.0726 33.9584 21.0823 33.837 21.0963C33.7812 21.1033 33.7296 21.0949 33.7184 21.0293C33.7086 20.9679 33.7477 20.9386 33.8049 20.9233C33.9068 20.894 34.0128 20.8884 34.1454 20.887C34.0533 20.7809 33.9863 20.693 33.9068 20.6177C33.8342 20.5479 33.8398 20.4949 33.8789 20.4056C33.8956 20.3665 33.7421 20.3316 33.7477 20.227C33.7533 20.1251 33.8845 19.9702 34.0589 19.8767C33.837 19.7568 33.6598 19.5977 33.5035 19.4163C33.4282 19.3284 33.3305 19.2335 33.4798 19.1219C33.4924 19.1121 33.4993 19.0842 33.4965 19.0661C33.4198 18.6544 33.4714 18.2135 33.3026 17.827C33.0654 17.2856 32.7207 16.8335 32.1096 16.6451C31.8221 16.5558 31.5486 16.3926 31.3868 16.1344C31.2361 15.8958 31.1231 15.6223 31.151 15.3209C31.1719 15.0977 31.0812 14.8981 31.0254 14.6916C30.9779 14.5186 30.9221 14.3484 30.8719 14.1768C30.8245 14.0191 30.9319 13.7861 31.0854 13.7274C31.2012 13.6828 31.2989 13.7456 31.3784 13.8195C31.6519 14.0679 31.9254 14.3177 32.0998 14.6526C32.2198 14.8828 32.3858 15.0768 32.5868 15.2414C32.7179 15.3488 32.8268 15.4772 32.9161 15.6251C33.2398 16.1679 33.597 16.6898 34.0463 17.1349C34.4579 17.5423 34.9477 17.827 35.5226 17.9749C35.9803 18.0935 36.4421 18.113 36.9068 18.1381C37.2961 18.1591 37.6686 18.0558 38.0356 17.9456C38.2519 17.88 38.2589 17.8591 38.2449 17.6261C38.2282 17.354 38.1277 17.1056 37.9896 16.8754C37.557 16.154 36.9682 15.6112 36.1672 15.3168C36.0068 15.2581 35.8407 15.2288 35.6705 15.2316C35.577 15.2316 35.5184 15.2093 35.5003 15.1005C35.4835 15.0042 35.4207 14.9442 35.3063 14.9456C34.7719 14.9568 34.2989 14.7488 33.8286 14.527C33.477 14.3609 33.1017 14.2479 32.7514 14.0749C32.4207 13.9116 32.0942 13.74 31.7845 13.5377C31.6268 13.4344 31.4482 13.3674 31.2779 13.2865C31.1035 13.2028 30.9528 13.0633 30.8565 12.8833C30.83 12.833 30.7965 12.787 30.7728 12.7368C30.7268 12.6377 30.6486 12.6112 30.5565 12.6516C30.2914 12.7674 30.0933 12.6544 29.8617 12.5205C29.3817 12.2414 28.8947 11.9581 28.3198 11.9051C28.0965 11.8842 27.8747 11.8451 27.6514 11.8186C27.6054 11.813 27.5538 11.7963 27.5245 11.8674C27.4812 11.9735 27.4072 11.9456 27.3738 11.8674C27.3333 11.774 27.2565 11.753 27.1798 11.7168C26.9803 11.6233 26.7807 11.5284 26.5896 11.4195C26.3677 11.2926 26.1291 11.2242 25.8793 11.1865C25.2542 11.0916 24.6235 11.0665 23.9928 11.0721C23.9468 11.0721 23.9007 11.0763 23.8561 11.0861C23.7863 11.1 23.7263 11.0861 23.7138 11.0107C23.697 10.9158 23.7738 10.8991 23.8421 10.8991C24.1198 10.8963 24.3961 10.8949 24.6738 10.9019C25.0896 10.9116 25.5012 10.9591 25.9142 11.0079C26.2645 11.0498 26.5728 11.1963 26.8742 11.3595C27.0919 11.4781 27.3124 11.5451 27.5607 11.5898C27.8914 11.6498 28.2249 11.7014 28.5556 11.7642C29.104 11.8702 29.5798 12.1395 30.0458 12.4284C30.1784 12.5107 30.2984 12.5637 30.4603 12.4981C30.7003 12.4005 30.8245 12.4451 30.9431 12.6726C31.0589 12.8944 31.2179 13.0284 31.4607 13.1107C31.8458 13.2405 32.1598 13.514 32.5226 13.6954C32.7793 13.8237 33.0375 13.9493 33.304 14.0568C33.6598 14.2005 34.0198 14.3372 34.3658 14.5019C34.691 14.6568 35.03 14.6972 35.3803 14.7084C35.5324 14.7126 35.6552 14.76 35.6677 14.9358C35.6719 14.9888 35.6984 14.9902 35.7375 14.993C36.5063 15.0516 37.0896 15.4647 37.6128 15.9851C38.0035 16.373 38.3133 16.8168 38.45 17.3609C38.5184 17.6316 38.524 17.8995 38.3733 18.1507C38.3328 18.2177 38.2798 18.2358 38.2045 18.2581C37.977 18.3209 37.737 18.3433 37.5277 18.4716C37.4049 18.547 37.2528 18.5512 37.1133 18.5735C36.7672 18.6279 36.424 18.6419 36.0793 18.533C35.7668 18.4354 35.4445 18.3712 35.1277 18.2874C35.0496 18.2665 35.0091 18.2874 34.9631 18.3488C34.6672 18.7563 34.2431 18.9977 33.8091 19.2237C33.7798 19.2391 33.7435 19.2391 33.7072 19.2474C33.7352 19.3186 33.7965 19.3493 33.8468 19.3912C33.9347 19.4651 34.0407 19.514 34.0742 19.6465C34.0924 19.7163 34.1886 19.7428 34.2556 19.7791C34.3603 19.8349 34.3784 19.8977 34.2738 19.973C34.2445 19.994 34.2082 20.0107 34.19 20.04C34.1607 20.0861 34.0142 20.033 34.0896 20.1809C34.1203 20.2409 34.1091 20.3205 34.1956 20.347C34.1998 20.3484 34.2054 20.3512 34.2082 20.3554C34.2696 20.4168 34.4035 20.467 34.3421 20.5647C34.2598 20.693 34.1942 20.5368 34.1203 20.5102C34.1119 20.5074 34.1007 20.5074 34.0728 20.5033L34.0645 20.5005Z" fill="black"/>
<path d="M12.646 25.9521C12.5204 25.9744 12.4785 25.913 12.4855 25.7958C12.4897 25.7135 12.4827 25.6325 12.505 25.5516C12.5274 25.4679 12.5595 25.3842 12.4492 25.3284C12.4116 25.3088 12.4241 25.2544 12.4283 25.2139C12.4436 25.0563 12.4088 24.8958 12.4548 24.7395C12.4674 24.6949 12.4576 24.6656 12.3934 24.667C12.2706 24.6698 12.219 24.5832 12.2497 24.4828C12.3195 24.247 12.2413 23.9958 12.332 23.7642C12.3557 23.7028 12.3739 23.6372 12.3878 23.573C12.4032 23.5088 12.4492 23.4377 12.3474 23.3944C12.3041 23.3763 12.3125 23.326 12.3209 23.2842C12.3446 23.1474 12.3655 23.0107 12.3906 22.86C12.3167 22.8712 12.2469 22.8558 12.2009 22.7874C12.1464 22.7079 12.2148 22.6465 12.2274 22.5739C12.2678 22.3563 12.4018 22.1553 12.3516 21.9209C12.3404 21.9209 12.3264 21.9139 12.3223 21.9181C12.2623 21.9712 12.219 22.0884 12.1143 22.006C12.0236 21.9349 12.0976 21.8539 12.1423 21.7898C12.4729 21.3251 12.5497 20.7698 12.7018 20.2409C12.7199 20.1767 12.7102 20.146 12.6348 20.1502C12.4925 20.16 12.3516 20.0316 12.2078 20.1446C12.0083 19.9912 11.9413 20.2088 11.8478 20.2912C11.559 20.5493 11.2436 20.7614 10.906 20.9512C10.606 21.12 10.2864 21.2344 9.97807 21.3739C9.54969 21.5679 9.13667 21.6335 8.68458 21.5707C8.55062 21.5525 8.41807 21.5595 8.29109 21.6502C8.17248 21.7339 8.09155 21.6656 8.08179 21.5037C8.04551 20.9386 8.12923 20.3916 8.31202 19.8544C8.44179 19.4707 8.59946 19.0981 8.74039 18.7186C8.8869 18.3223 9.19667 18.0265 9.40458 17.6693C9.71295 17.1418 10.1664 16.7623 10.6171 16.3758C11.019 16.0298 11.4809 15.7744 11.9525 15.5358C12.346 15.3377 12.7464 15.1409 13.1692 15.0335C13.4357 14.9665 13.5669 14.7949 13.7316 14.6246C13.9046 14.4446 14.0678 14.2493 14.305 14.1446C14.326 14.1349 14.3427 14.1112 14.3553 14.0902C14.5841 13.7163 14.9232 13.447 15.2399 13.1539C15.3655 13.0381 15.5023 12.9321 15.572 12.7605C15.6195 12.6432 15.7255 12.6014 15.8357 12.6851C15.932 12.7577 16.0018 12.7437 16.0381 12.6391C16.1036 12.4493 16.2502 12.3712 16.4232 12.2986C16.6771 12.1912 16.9185 12.053 17.1655 11.9288C17.6441 11.6874 18.159 11.5507 18.6725 11.4098C18.9362 11.3372 19.2097 11.3205 19.4706 11.2144C19.7036 11.1195 19.9729 11.1307 20.2269 11.1809C20.2785 11.1907 20.319 11.1739 20.3595 11.1586C20.4934 11.107 20.6288 11.0567 20.7571 10.9939C21.1213 10.8153 21.4967 10.853 21.8692 10.9423C22.1232 11.0037 22.3423 11.0051 22.5181 10.7763C22.5739 10.7037 22.6632 10.6716 22.7497 10.74C22.8543 10.8223 22.9729 10.8377 23.0985 10.8279C23.2129 10.8195 23.3232 10.8446 23.4334 10.8656C23.485 10.8753 23.5311 10.9074 23.5157 10.9744C23.5018 11.0302 23.4543 11.047 23.4069 11.0344C23.1753 10.973 22.9199 11.0707 22.7009 10.9256C22.6534 10.8935 22.6255 10.9298 22.5976 10.9591C22.3897 11.1823 22.1343 11.1949 21.8595 11.1237C21.4841 11.0246 21.1129 10.9967 20.7516 11.1809C20.6692 11.2228 20.5827 11.2549 20.4962 11.287C20.3804 11.3316 20.2716 11.3512 20.1348 11.3358C19.9381 11.3121 19.712 11.2981 19.5292 11.3846C19.2725 11.5074 18.9962 11.52 18.7297 11.5828C18.0111 11.7516 17.3302 12.0112 16.6897 12.3753C16.5976 12.427 16.4888 12.4702 16.4246 12.5665C16.419 12.5749 16.4092 12.5874 16.4023 12.586C16.2181 12.5512 16.2139 12.7242 16.1413 12.8149C16.0464 12.9321 15.9529 12.96 15.805 12.8819C15.7283 12.8414 15.6767 12.8065 15.7032 12.9377C15.7143 12.9921 15.685 13.0172 15.6446 13.0493C15.2832 13.3367 14.9371 13.6395 14.6343 13.9898C14.5911 14.04 14.5562 14.0972 14.5185 14.153C14.4948 14.1879 14.4683 14.2172 14.5297 14.2493C14.6134 14.2939 14.5827 14.3456 14.5241 14.3902C14.3888 14.4921 14.2534 14.5939 14.1167 14.693C13.9785 14.7907 13.8809 14.9191 13.8041 15.067C13.7274 15.2149 13.5655 15.2902 13.4023 15.2512C13.3548 15.24 13.3129 15.2302 13.2683 15.247C12.6502 15.48 12.0502 15.7437 11.4739 16.073C10.9799 16.3549 10.5948 16.7595 10.1511 17.0958C10.052 17.1712 9.97388 17.266 9.9083 17.3721C9.71016 17.6902 9.47853 17.9846 9.25946 18.2888C9.16039 18.427 9.06411 18.5665 9.00272 18.7256C8.74737 19.373 8.4669 20.0121 8.3469 20.7056C8.32179 20.8535 8.32039 21.0014 8.3162 21.1507C8.31481 21.2288 8.33434 21.2763 8.42504 21.2749C8.55341 21.2721 8.69155 21.3181 8.78923 21.1828C8.81714 21.1437 8.87155 21.1437 8.919 21.1521C9.25946 21.2163 9.58179 21.1367 9.89295 21.0098C10.6255 20.7098 11.2395 20.2339 11.8074 19.6912C12.3181 19.2042 12.7729 18.6698 13.1664 18.0851C13.6381 17.3832 14.0371 16.6465 14.2032 15.8051C14.2618 15.5093 14.2799 15.2149 14.1836 14.9232C14.1543 14.8325 14.1557 14.753 14.2562 14.7237C14.3636 14.693 14.3999 14.7823 14.4236 14.8619C14.5269 15.2163 14.4948 15.5735 14.4223 15.9279C14.4041 16.013 14.3818 16.0967 14.3595 16.1818C14.3441 16.2363 14.3218 16.2851 14.3776 16.3353C14.4306 16.3828 14.3902 16.4386 14.3748 16.4916C14.3525 16.5698 14.2813 16.6451 14.3497 16.7358C14.3581 16.747 14.3525 16.7777 14.3441 16.793C14.0748 17.3023 13.9283 17.8577 13.726 18.3921C13.6409 18.6167 13.5055 18.8107 13.3604 18.9949C13.1204 19.2991 13.0548 19.6507 13.0074 20.0232C12.9641 20.3665 13.0548 20.7181 12.9264 21.0544C12.8971 21.1312 12.8874 21.2191 12.8357 21.2819C12.5818 21.5819 12.6683 21.9781 12.5343 22.3116C12.5106 22.3688 12.5455 22.3786 12.5985 22.373C12.6669 22.366 12.7227 22.3939 12.7311 22.4693C12.7381 22.5446 12.6823 22.553 12.6223 22.5684C12.5385 22.5907 12.4702 22.6437 12.4339 22.733C12.632 22.7581 12.625 22.7553 12.5664 22.9563C12.5455 23.026 12.4506 23.1418 12.6348 23.1642C12.6934 23.1712 12.6809 23.2437 12.6641 23.2953C12.632 23.3972 12.6041 23.5019 12.5706 23.6037C12.5441 23.686 12.4855 23.7642 12.6125 23.827C12.6613 23.8507 12.6223 23.9232 12.6069 23.9693C12.5636 24.0949 12.5176 24.2177 12.4646 24.3628C12.5846 24.3195 12.7129 24.2065 12.7827 24.3614C12.8609 24.5316 12.6418 24.4312 12.6055 24.5232C12.7171 24.5791 12.8023 24.6307 12.6488 24.7549C12.579 24.8107 12.6153 24.9391 12.6153 25.0493C12.6585 25.0381 12.6962 25.0214 12.7311 25.0228C12.8232 25.027 12.8734 25.0688 12.8092 25.1595C12.7353 25.2656 12.7171 25.3828 12.7102 25.5209C12.8357 25.493 12.9795 25.3884 13.0618 25.5223C13.1595 25.68 13.0074 25.8056 12.9348 25.9367C12.9474 25.9423 12.9557 25.9507 12.9655 25.9493C13.0436 25.9479 13.1371 25.9005 13.186 25.9981C13.2404 26.107 13.1371 26.1516 13.0785 26.2102C12.8985 26.3902 12.7729 26.5939 12.7729 26.8577C12.7729 26.9037 12.759 26.94 12.7102 26.9484C12.6557 26.9581 12.625 26.9246 12.6069 26.8772C12.5748 26.8005 12.5985 26.7251 12.6167 26.6512C12.6474 26.5256 12.7004 26.4098 12.7729 26.2814C12.6976 26.2912 12.6795 26.3512 12.639 26.3805C12.5888 26.4167 12.5357 26.4321 12.4827 26.393C12.4269 26.3525 12.4381 26.3023 12.4576 26.2423C12.4939 26.1251 12.6055 26.0623 12.6474 25.9521C12.7548 25.8893 12.812 25.786 12.8636 25.6772C12.7409 25.7274 12.6781 25.8279 12.6516 25.9549L12.646 25.9521Z" fill="black"/>
<path d="M17.8184 16.426C18.4324 16.4651 19.0226 16.8139 19.4371 17.467C19.4943 17.5577 19.5082 17.6567 19.5347 17.753C19.5515 17.8144 19.5138 17.8604 19.4775 17.9037C18.7436 18.8163 17.2715 18.8888 16.4384 18.053C16.324 17.9372 16.3171 17.7865 16.3226 17.6386C16.3533 16.8921 16.8808 16.4135 17.8171 16.4246L17.8184 16.426ZM18.2971 18.3349C18.3138 18.3377 18.3278 18.3446 18.3417 18.3418C18.7059 18.2511 19.0073 18.0572 19.2612 17.7851C19.3171 17.7251 19.2808 17.6846 19.2557 17.6358C18.9208 17.0009 18.1617 16.599 17.4459 16.6772C16.9491 16.7316 16.5891 17.1 16.5668 17.5884C16.5612 17.693 16.5445 17.8186 16.6254 17.8953C16.9464 18.1967 17.3287 18.3656 17.7738 18.3879C17.4166 18.2093 17.2547 17.9149 17.2673 17.527C17.2743 17.2911 17.3761 17.0972 17.5645 16.9437C17.7459 16.7958 17.9538 16.846 18.1394 16.8823C18.3361 16.92 18.4645 17.0874 18.5496 17.2716C18.7212 17.6456 18.6417 17.979 18.2971 18.3363V18.3349Z" fill="black"/>
<path d="M14.6637 30.9516C14.7139 30.946 14.7641 30.9335 14.8144 30.9349C14.8618 30.9349 14.9092 30.9544 14.9134 31.0116C14.9176 31.059 14.8841 31.0856 14.8381 31.0925C14.7502 31.1065 14.7404 31.1916 14.7027 31.2474C14.5995 31.4009 14.5367 31.5725 14.4725 31.7874C14.6441 31.6507 14.8102 31.5949 14.9832 31.56C15.0711 31.5418 15.1478 31.5502 15.1939 31.6395C15.233 31.7149 15.2134 31.7623 15.1395 31.8181C15.0906 31.8544 15.0809 31.9353 15.0027 31.9618C14.9678 31.9744 14.9567 32.0456 14.9762 32.0874C14.9944 32.1293 15.039 32.1042 15.0725 32.0986C15.1548 32.086 15.2288 32.0986 15.2734 32.1753C15.3153 32.2479 15.2846 32.3107 15.2413 32.3735C15.1869 32.453 15.1297 32.5311 15.0432 32.5981C15.1297 32.6232 15.1813 32.5674 15.2441 32.5563C15.3976 32.5284 15.4827 32.6065 15.4381 32.7516C15.4116 32.8381 15.4046 32.933 15.3348 33.0042C15.3139 33.0251 15.2734 33.0642 15.3125 33.0963C15.4269 33.1883 15.3446 33.24 15.2511 33.3097C15.3711 33.307 15.473 33.36 15.5413 33.2386C15.5525 33.2177 15.6013 33.1981 15.6223 33.2065C15.7632 33.2609 15.9264 33.1967 16.059 33.3279C16.1985 33.466 16.2878 33.4353 16.4037 33.2679C16.4399 33.2163 16.4776 33.1674 16.546 33.1632C16.592 33.1604 16.6423 33.1535 16.666 33.2079C16.6897 33.2637 16.6562 33.2888 16.6102 33.3125C16.4692 33.3879 16.472 33.5818 16.3283 33.6572C16.3116 33.6656 16.3074 33.7018 16.3269 33.7088C16.359 33.72 16.3981 33.7228 16.4316 33.7172C16.7232 33.6697 16.9995 33.5777 17.2464 33.4116C17.3525 33.3404 17.4823 33.2539 17.5771 33.3446C17.6678 33.4325 17.5492 33.5483 17.4962 33.6446C17.4502 33.7297 17.4041 33.8135 17.3469 33.9167C17.5144 33.8944 17.6469 33.833 17.7851 33.7842C17.8353 33.766 17.9023 33.727 17.9316 33.8023C17.9609 33.8763 17.8897 33.8944 17.8395 33.9181C17.6455 34.0144 17.4376 34.0702 17.2283 34.1232C17.1864 34.1344 17.1488 34.1414 17.1153 34.1065C17.0748 34.0646 17.093 34.0228 17.1083 33.9781C17.1613 33.8288 17.2981 33.7256 17.3399 33.547C17.0916 33.699 16.839 33.8079 16.5683 33.8637C16.4051 33.8986 16.2334 33.946 16.0939 33.7953C16.0646 33.7632 16.0395 33.7828 16.0157 33.8051C15.9306 33.8846 15.8441 33.9642 15.752 34.0493C15.833 34.0688 15.8957 34.0242 15.9627 34.02C16.0353 34.0172 16.1051 34.0325 16.112 34.1163C16.1176 34.1916 16.0534 34.193 15.9934 34.2014C15.6404 34.2544 15.3725 34.4121 15.2357 34.7665C15.1088 35.0958 14.912 35.3944 14.7934 35.7293C14.7139 35.9525 14.6511 36.1786 14.6427 36.4158C14.6413 36.4702 14.6288 36.5204 14.5757 36.5442C14.5199 36.5679 14.4767 36.5483 14.4474 36.4953C14.4404 36.4814 14.4292 36.459 14.4209 36.459C14.1613 36.4758 14.2827 36.3 14.3037 36.2023C14.4055 35.7293 14.5883 35.2814 14.7934 34.8474C15.0697 34.2628 15.2916 33.9949 15.9892 33.5107C15.9264 33.4688 15.8748 33.4632 15.7967 33.4842C15.6613 33.519 15.5204 33.4409 15.3795 33.4772C15.2037 33.5218 15.0516 33.4046 14.8813 33.3949C14.7823 33.3893 14.7767 33.2749 14.8004 33.2093C14.8423 33.0935 14.7655 32.9846 14.8046 32.873C14.8199 32.8311 14.7753 32.8479 14.7571 32.8381C14.6413 32.7809 14.6288 32.7209 14.7237 32.6302C14.8199 32.5381 14.9246 32.4558 15.0237 32.3665C15.0404 32.3511 15.0474 32.326 15.0585 32.3037C15.0153 32.2828 14.9818 32.2953 14.9469 32.3051C14.8534 32.3316 14.813 32.2828 14.8018 32.1977C14.7837 32.0581 14.8018 31.9228 14.8785 31.7735C14.7362 31.8097 14.633 31.8558 14.5855 31.9842C14.5744 32.0135 14.5618 32.0414 14.5464 32.0679C14.506 32.1418 14.4418 32.16 14.3637 32.1432C14.2869 32.1265 14.2785 32.0665 14.2744 32.0023C14.2548 31.6939 14.3957 31.4372 14.5311 31.179C14.573 31.0995 14.6469 31.0381 14.6664 30.9446L14.6623 30.9488L14.6637 30.9516Z" fill="black"/>
<path d="M25.9589 18.1647C25.6631 18.1702 25.225 18.0112 24.872 17.6358C24.8385 17.6009 24.8161 17.5647 24.8134 17.5158C24.7659 16.7665 25.1385 16.08 25.885 15.8916C26.3441 15.7758 26.7794 15.8735 27.1952 16.0814C27.4492 16.2084 27.6668 16.3856 27.8761 16.5768C28.0171 16.7037 28.0157 16.8544 27.9892 17.0093C27.932 17.3498 27.7171 17.5884 27.4436 17.7768C27.0613 18.0405 26.6315 18.1591 25.9589 18.1647ZM26.0915 17.9219C26.5422 17.9205 26.8966 17.8312 27.2203 17.6358C27.4868 17.474 27.6961 17.2647 27.7645 16.9437C27.7813 16.8684 27.7701 16.8112 27.7101 16.7526C27.4171 16.4693 27.0878 16.2544 26.6915 16.1456C25.8836 15.9209 25.2082 16.3395 25.0659 17.1447C25.0227 17.3888 25.0966 17.5619 25.3017 17.693C25.5654 17.8619 25.8571 17.9219 26.0915 17.9233V17.9219Z" fill="black"/>
<path d="M36.2398 35.7517C36.2621 35.9917 36.2203 36.2177 36.2677 36.441C36.2858 36.5247 36.2217 36.5861 36.1505 36.54C36.0542 36.4758 36.0542 36.5498 36.0277 36.5958C35.9928 36.6586 35.9607 36.7228 35.9217 36.7828C35.891 36.8317 35.8505 36.8819 35.7849 36.8456C35.7179 36.8079 35.7445 36.7507 35.7724 36.6991C35.8086 36.6307 35.8491 36.5652 35.8784 36.494C35.9663 36.2763 36.0207 36.0586 35.8896 35.8326C35.8421 35.7503 35.8826 35.6763 35.9761 35.6945C36.0724 35.714 36.0612 35.6707 36.064 35.6107C36.0751 35.3121 36.0403 35.0177 36.0082 34.7219C35.9677 34.3563 35.9342 33.9907 35.9063 33.6238C35.8854 33.3391 35.771 33.0782 35.7207 32.8019C35.651 32.4196 35.4919 32.0847 35.2449 31.7875C35.1054 31.62 35.051 31.4065 34.9714 31.207C34.7328 30.6154 34.4328 30.06 33.9682 29.6065C33.8398 29.481 33.7226 29.3442 33.6305 29.1893C33.5928 29.1265 33.5663 29.061 33.6417 29.0149C33.7142 28.9703 33.7533 29.0317 33.7854 29.0847C33.9849 29.4112 34.2961 29.6456 34.5096 29.9596C34.7635 30.3321 35.0049 30.7158 35.1375 31.1484C35.2477 31.507 35.4849 31.7819 35.6747 32.0889C35.7152 32.1545 35.75 32.2228 35.7724 32.2968C35.9663 32.9554 36.1254 33.6196 36.1505 34.3117C36.1686 34.7972 36.2845 35.2758 36.2426 35.7503L36.2398 35.7517Z" fill="black"/>
<path d="M31.253 29.4739C31.2432 29.5507 31.2572 29.5967 31.3228 29.6219C31.3577 29.6358 31.3772 29.6707 31.3632 29.7112C31.3479 29.7572 31.3088 29.7795 31.2656 29.767C30.9879 29.6846 30.6921 29.6539 30.4493 29.4739C30.4032 29.4391 30.3684 29.3902 30.3991 29.3274C30.427 29.2716 30.4758 29.2786 30.5302 29.2814C30.6111 29.2842 30.6907 29.2842 30.7493 29.1935C30.7995 29.1153 30.9 29.1419 30.9767 29.1684C31.1065 29.213 31.2349 29.2674 31.3618 29.3205C31.3981 29.3358 31.4372 29.3456 31.4595 29.3121C31.4888 29.266 31.4316 29.2577 31.4121 29.2339C31.3786 29.1949 31.3409 29.1614 31.306 29.1223C31.267 29.0791 31.253 29.0274 31.2949 28.9842C31.3353 28.9423 31.3884 28.9479 31.4344 28.9842C31.4749 29.0163 31.5111 29.0539 31.553 29.0819C31.6521 29.146 31.7149 29.2549 31.8614 29.2577C32.1056 29.2619 32.3316 29.2242 32.5311 29.0819C32.5814 29.0456 32.647 28.9995 32.5632 28.9256C32.5325 28.8991 32.5325 28.8474 32.566 28.8307C32.6735 28.7763 32.7544 28.6646 32.8856 28.6646C33.226 28.6646 33.5288 28.5698 33.7939 28.3507C33.8832 28.2767 33.9907 28.2237 34.1037 28.1498C33.9851 28.087 33.8693 28.0939 33.7591 28.0912C33.7116 28.0898 33.667 28.087 33.6279 28.0605C33.5791 28.0256 33.5163 27.9907 33.5525 27.9139C33.5832 27.8484 33.6432 27.8609 33.6991 27.8749C33.8679 27.9195 34.0395 27.9433 34.2125 27.9558C34.2921 27.9614 34.3897 27.9726 34.4079 28.0716C34.4246 28.1595 34.3493 28.2098 34.2837 28.2502C34.0716 28.3842 33.8581 28.5153 33.6544 28.6619C33.5191 28.7595 33.3544 28.7874 33.1911 28.8112C33.1409 28.8181 33.0879 28.8112 33.0321 28.8558C33.1242 28.8809 33.2065 28.9019 33.2888 28.927C33.3418 28.9437 33.3837 28.9786 33.3684 29.04C33.3516 29.1056 33.2958 29.1014 33.2428 29.0888C33.2232 29.0846 33.2037 29.0749 33.1842 29.0707C32.9874 29.0205 32.8088 28.9884 32.6581 29.1991C32.573 29.3177 32.4028 29.3623 32.2535 29.4028C32.1432 29.4335 32.026 29.4251 31.92 29.4963C31.8321 29.5549 31.7637 29.4488 31.6884 29.4153C31.6353 29.393 31.6032 29.3302 31.5586 29.4363C31.5167 29.5367 31.4428 29.5353 31.253 29.4712V29.4739Z" fill="black"/>
<path d="M13.1413 26.7698C13.278 26.8019 13.2961 26.8842 13.2403 26.9707C13.1845 27.06 13.1929 27.1019 13.2836 27.1605C13.5389 27.3237 13.5082 27.5861 13.4929 27.8372C13.4887 27.9028 13.4566 27.9642 13.5292 28.0144C13.5585 28.0354 13.5571 28.0772 13.5417 28.1135C13.4733 28.2823 13.4761 28.4763 13.3492 28.6256C13.4133 28.6675 13.4552 28.6214 13.4971 28.6047C13.6087 28.5586 13.6994 28.5628 13.7761 28.6688C13.7999 28.7023 13.8375 28.7247 13.8208 28.7721C13.804 28.8195 13.7594 28.8265 13.7189 28.8251C13.4789 28.8195 13.2654 28.8795 13.0938 29.0595C13.0547 29.1 13.0073 29.0875 12.9724 29.0484C12.9361 29.0093 12.9361 28.9619 12.9668 28.9214C13.0296 28.8419 13.1454 28.7735 12.9668 28.687C12.9138 28.6619 12.9501 28.5851 12.9864 28.5377C13.0785 28.4191 13.1343 28.2809 13.2026 28.1498C13.2933 27.9782 13.331 27.7954 13.3213 27.6014C13.3157 27.4968 13.2989 27.4075 13.1733 27.3865C13.1496 27.3823 13.1231 27.3656 13.1092 27.3475C13.0338 27.2484 12.9668 27.2777 12.9054 27.3628C12.865 27.3056 12.9194 27.2609 12.911 27.2009C12.8496 27.247 12.8496 27.3182 12.8161 27.3684C12.7952 27.3991 12.7645 27.4242 12.7254 27.4047C12.6878 27.3851 12.6808 27.3391 12.7031 27.3112C12.8482 27.1409 12.8329 26.9037 12.9515 26.7237C12.9822 26.6763 13.0087 26.6247 13.0478 26.587C13.0924 26.5437 13.1538 26.5521 13.2068 26.5744C13.2473 26.5912 13.2738 26.6247 13.271 26.6693C13.2668 26.7363 13.204 26.7363 13.1385 26.7656L13.1413 26.7698Z" fill="black"/>
<path d="M20.3008 17.6554C20.3232 17.5172 20.4236 17.4335 20.5339 17.3693C20.8548 17.1837 21.1966 17.0567 21.5636 16.9814C22.0046 16.8893 22.3939 16.9954 22.7678 17.2172C22.8153 17.2451 22.8585 17.2856 22.899 17.3233C22.9506 17.3707 22.9673 17.4279 22.9241 17.4879C22.8739 17.5549 22.8027 17.5507 22.7483 17.5033C22.638 17.4042 22.4971 17.3651 22.3729 17.2967C22.3283 17.2716 22.2794 17.2479 22.2278 17.2521C21.9013 17.2772 21.5706 17.2493 21.2483 17.3274C20.9636 17.3958 20.7097 17.5186 20.5353 17.7684C20.4962 17.8242 20.446 17.8354 20.3873 17.8102C20.3246 17.7823 20.2994 17.7279 20.3008 17.6567V17.6554Z" fill="black"/>
<path d="M34.2221 25.5684C34.3812 25.5921 34.5431 25.6005 34.7007 25.5642C34.7956 25.5419 34.8584 25.5837 34.9254 25.6298C34.9617 25.6549 34.984 25.6912 34.9533 25.7344C34.758 26.0065 34.5445 26.2577 34.2277 26.3944C34.19 26.4112 34.151 26.4237 34.1119 26.4335C34.0603 26.4475 34.0031 26.4558 33.9793 26.3944C33.9514 26.3233 34.0045 26.2884 34.0617 26.2731C34.2403 26.2214 34.377 26.1056 34.5138 25.9898C34.5919 25.9242 34.6603 25.8503 34.6952 25.7414C34.5124 25.7512 34.338 25.7721 34.1663 25.7317C34.0226 25.6996 34.0687 25.6744 34.0882 25.5489C34.1328 25.267 34.4161 25.341 34.5431 25.1861C34.4035 25.1498 34.2696 25.1177 34.1384 25.08C34.0742 25.0619 33.9989 25.0326 34.0324 24.9447C34.0617 24.8679 34.1328 24.8931 34.1928 24.907C34.4217 24.9628 34.6491 25.0186 34.8766 25.0786C34.9393 25.0954 35.0231 25.1093 35.0245 25.1903C35.0259 25.2865 34.9324 25.2586 34.8752 25.2796C34.6547 25.3591 34.4384 25.4456 34.2193 25.5279C34.2207 25.5405 34.2221 25.5531 34.2249 25.5656L34.2221 25.5684Z" fill="black"/>
<path d="M16.0172 16.7763C15.9209 16.7763 15.8442 16.7833 15.7758 16.733C15.7395 16.7065 15.7186 16.673 15.7353 16.627C15.7507 16.5879 15.7842 16.5712 15.8219 16.5781C16.1581 16.6507 16.4442 16.4972 16.7288 16.3647C17.1586 16.1651 17.5521 15.907 17.8995 15.5819C17.9777 15.5079 18.0502 15.4284 18.113 15.3405C18.1479 15.2902 18.1884 15.2288 18.2609 15.2791C18.3391 15.3335 18.2958 15.3963 18.2553 15.4521C18.1326 15.6181 17.9874 15.7619 17.8242 15.8888C17.3707 16.2461 16.8823 16.5433 16.327 16.7191C16.2195 16.7526 16.1093 16.7791 16.0144 16.7763H16.0172Z" fill="black"/>
<path d="M17.9147 19.2697C17.7529 19.2781 17.598 19.2432 17.4417 19.2069C17.3873 19.1944 17.3357 19.1693 17.2771 19.1916C17.2171 19.2125 17.1654 19.1958 17.1319 19.1386C17.1012 19.0856 17.0971 19.0297 17.1292 18.9781C17.1654 18.9209 17.2199 18.893 17.2868 18.9097C17.3817 18.9335 17.4724 18.9669 17.5673 18.9893C18.0794 19.1079 18.5259 18.9474 18.9431 18.6614C18.9724 18.6418 19.0003 18.6167 19.0324 18.6014C19.0715 18.5832 19.1133 18.5874 19.1468 18.6181C19.1859 18.6544 19.1915 18.7018 19.1678 18.7451C19.1496 18.78 19.1203 18.8135 19.0882 18.8372C18.738 19.0953 18.3529 19.2586 17.9133 19.2711L17.9147 19.2697Z" fill="black"/>
<path d="M14.6677 30.9474C14.5449 30.9642 14.4431 31.0325 14.3426 31.0967C14.2742 31.1414 14.2045 31.1776 14.1333 31.1176C14.0551 31.0535 14.1138 30.9893 14.1472 30.9279C14.2045 30.8218 14.2658 30.7172 14.3663 30.6167C14.2379 30.5902 14.1417 30.6 14.044 30.6335C13.9086 30.6809 13.8333 30.6376 13.8207 30.5009C13.7956 30.2316 13.8361 29.9707 13.9365 29.7181C13.9519 29.679 13.9742 29.6442 14.0105 29.6232C14.0482 29.6009 14.09 29.5995 14.1249 29.6288C14.1626 29.6623 14.1542 29.7 14.1291 29.739C14.0161 29.919 13.991 30.1186 13.9882 30.3265C13.9882 30.413 13.9965 30.459 14.1068 30.4353C14.2324 30.4074 14.3621 30.4256 14.4891 30.4409C14.5645 30.4493 14.6328 30.48 14.651 30.5595C14.6691 30.6335 14.5951 30.6432 14.5547 30.6781C14.5058 30.72 14.4668 30.773 14.4347 30.84C14.5268 30.8023 14.6189 30.7632 14.7124 30.727C14.764 30.706 14.8268 30.6739 14.8575 30.7465C14.8868 30.8163 14.8254 30.8428 14.7765 30.8735C14.7389 30.8972 14.6886 30.9042 14.6635 30.9474L14.6677 30.9446V30.9474Z" fill="black"/>
<path d="M28.9241 36.6711C28.8655 36.6711 28.8279 36.6586 28.8139 36.6111C28.7972 36.5484 28.8376 36.5163 28.8851 36.4925C29.0986 36.3823 29.3107 36.2679 29.5269 36.1646C30.0753 35.9023 30.392 35.4321 30.66 34.9172C30.6837 34.8725 30.6948 34.8209 30.7409 34.7902C30.7911 34.7567 30.8372 34.7609 30.879 34.8056C30.9139 34.8432 30.9279 34.8893 30.8916 34.9297C30.7632 35.0763 30.6669 35.2479 30.5762 35.4153C30.3055 35.919 29.859 36.2023 29.3776 36.4535C29.2507 36.5204 29.1125 36.5623 28.9953 36.6474C28.9716 36.6642 28.9395 36.6684 28.9241 36.6725V36.6711Z" fill="black"/>
<path d="M29.0007 16.6493C28.4468 16.6019 27.964 16.3521 27.5412 15.9726C27.3221 15.7758 27.1309 15.5568 27.0528 15.261C27.0333 15.1884 27.0123 15.1075 27.1072 15.0838C27.1993 15.0614 27.2063 15.1438 27.2244 15.2093C27.2928 15.4549 27.4449 15.6475 27.6291 15.8149C27.9723 16.1261 28.363 16.3535 28.8235 16.4456C28.9254 16.4665 29.0272 16.4638 29.1291 16.4596C29.1905 16.4568 29.2644 16.447 29.2714 16.5335C29.2784 16.6158 29.203 16.6256 29.1444 16.6382C29.104 16.6465 29.0635 16.6451 28.9993 16.6493H29.0007Z" fill="black"/>
<path d="M33.8609 21.8107C33.8511 21.6544 33.7674 21.5275 33.7283 21.3865C33.7102 21.321 33.6753 21.2317 33.7772 21.2079C33.8693 21.1856 33.8846 21.2665 33.9097 21.3391C34.0004 21.6 34.08 21.8638 34.1483 22.1317C34.1637 22.1917 34.1818 22.2433 34.1274 22.3019C34.059 22.3731 34.1358 22.4358 34.1693 22.4889C34.2767 22.6591 34.3646 22.8377 34.4316 23.0261C34.4456 23.0638 34.4525 23.1056 34.4553 23.1447C34.4581 23.2075 34.4358 23.2605 34.366 23.2647C34.3018 23.2689 34.2823 23.2214 34.2767 23.1642C34.26 23.0135 34.1874 22.881 34.1135 22.754C33.9656 22.5014 33.8483 22.2349 33.713 21.9768C33.6823 21.9196 33.6209 21.8651 33.6725 21.7968C33.7353 21.7158 33.7967 21.8051 33.8637 21.8135L33.8609 21.8107Z" fill="black"/>
<path d="M34.7942 24.8595C34.4286 24.7841 34.1216 24.6027 33.9067 24.2888C33.809 24.1465 33.6751 24.0041 33.7714 23.8004C33.7797 23.7837 33.7518 23.746 33.7365 23.7209C33.643 23.5632 33.6639 23.3958 33.7923 23.2897C33.8021 23.2827 33.8272 23.2786 33.8314 23.2827C33.8746 23.3427 33.9723 23.3623 33.9695 23.453C33.9653 23.5855 34.0058 23.7055 34.0714 23.8158C34.1049 23.8716 34.0993 23.9051 34.049 23.9218C33.9137 23.9692 33.9653 24.0446 34.0128 24.1227C34.1983 24.4311 34.4774 24.6041 34.8207 24.6823C34.8793 24.6962 34.9393 24.7032 34.9309 24.7786C34.9239 24.8525 34.857 24.8511 34.7942 24.8595Z" fill="black"/>
<path d="M28.9814 22.9493C28.9786 23.5144 28.8084 24.0279 28.5154 24.5051C28.4805 24.5609 28.44 24.6391 28.3619 24.593C28.2712 24.54 28.334 24.4688 28.3717 24.4102C28.6242 23.9972 28.7303 23.5409 28.754 23.0637C28.7624 22.9019 28.8154 22.7414 28.7777 22.5767C28.7679 22.5349 28.7917 22.493 28.8391 22.4833C28.8921 22.4735 28.9242 22.5056 28.9424 22.5544C28.9912 22.6828 28.9605 22.8195 28.9814 22.9507V22.9493Z" fill="black"/>
<path d="M16.5362 23.1949C16.4552 23.4447 16.4524 23.7168 16.4636 23.9875C16.4762 24.2903 16.5055 24.5916 16.6799 24.8554C16.7064 24.8958 16.7245 24.9405 16.6897 24.9823C16.6534 25.0256 16.6059 25.0116 16.5627 24.9893C16.3394 24.8763 16.2669 24.6726 16.2529 24.4451C16.2334 24.127 16.2585 23.8103 16.2948 23.4949C16.3087 23.3777 16.3185 23.2605 16.3603 23.1489C16.3799 23.0972 16.412 23.0554 16.4734 23.0707C16.5278 23.0847 16.5362 23.1321 16.5362 23.1949Z" fill="black"/>
<path d="M26.0245 18.8107C25.7287 18.84 25.4049 18.7046 25.0784 18.5846C25.031 18.5665 24.9836 18.5442 24.9347 18.533C24.8524 18.5135 24.8008 18.4674 24.8231 18.3809C24.8468 18.2902 24.9194 18.2623 25.0045 18.2916C25.1538 18.3446 25.2961 18.413 25.4468 18.466C25.7845 18.5846 26.1263 18.6084 26.478 18.5567C26.5505 18.5456 26.6329 18.533 26.6552 18.6279C26.6789 18.7312 26.598 18.7535 26.5198 18.7772C26.3789 18.8191 26.2338 18.8009 26.0259 18.8107H26.0245Z" fill="black"/>
<path d="M18.9851 29.8953C19.1414 29.8953 19.2977 29.8967 19.4526 29.8953C19.5168 29.8953 19.574 29.887 19.6005 29.9665C19.6298 30.0544 19.7038 30.0042 19.7582 30.0042C19.814 30.0042 19.8656 30.0056 19.874 30.0725C19.8796 30.1283 19.8321 30.166 19.7875 30.1604C19.6842 30.1493 19.5447 30.2916 19.4791 30.0907C19.4652 30.0474 19.4051 30.0725 19.3661 30.0711C19.1833 30.0628 18.9977 30.0963 18.8163 30.0502C18.7912 30.0446 18.7507 30.0502 18.7438 30.0349C18.6419 29.8479 18.4591 29.9344 18.3112 29.9023C18.2414 29.887 18.1745 29.8604 18.1075 29.8367C18.0447 29.8144 18.0168 29.7642 18.0419 29.7042C18.0656 29.6456 18.1186 29.6456 18.1717 29.6693C18.4354 29.7851 18.7005 29.746 18.9656 29.6749C19.02 29.6609 19.0814 29.6302 19.1107 29.7014C19.1414 29.7739 19.08 29.7977 19.0284 29.8242C19.0117 29.8325 18.9949 29.8437 18.9782 29.8549C18.9796 29.8674 18.9824 29.8814 18.9838 29.8939L18.9851 29.8953Z" fill="black"/>
<path d="M18.2762 34.0758C18.4227 34.0047 18.5678 33.9321 18.7143 33.8609C18.7506 33.8428 18.7966 33.8037 18.8273 33.8316C18.992 33.9809 19.0952 33.8428 19.2027 33.7535C19.2641 33.7019 19.3115 33.7116 19.3673 33.7479C19.4036 33.7716 19.4329 33.8023 19.4245 33.8484C19.4162 33.8986 19.3729 33.914 19.331 33.9112C19.2417 33.9056 19.1775 33.9558 19.105 33.9949C19.0422 34.0284 18.971 34.0744 18.9069 34.0702C18.6794 34.0563 18.4924 34.1581 18.2985 34.2474C18.198 34.2935 18.0669 34.3619 17.9873 34.2544C17.898 34.1358 18.0292 34.0451 18.1031 33.9712C18.2064 33.8679 18.2775 33.7437 18.3669 33.6321C18.3989 33.5916 18.431 33.5498 18.4924 33.5623C18.5469 33.5735 18.5664 33.6153 18.572 33.6628C18.5789 33.72 18.558 33.7605 18.5036 33.7856C18.3836 33.84 18.3613 33.9823 18.2762 34.0772V34.0758Z" fill="black"/>
<path d="M34.4581 26.7126C34.3785 26.6889 34.3102 26.7168 34.2446 26.7307C34.1581 26.7475 34.073 26.7614 33.9865 26.7586C33.9251 26.7572 33.8483 26.7628 33.8469 26.6777C33.8469 26.594 33.9209 26.5996 33.9837 26.5926C34.1511 26.5744 34.3172 26.5507 34.4846 26.5298C34.6367 26.5117 34.6911 26.5758 34.6548 26.7237C34.6116 26.901 34.4525 26.9623 34.3241 27.0461C34.1148 27.1828 33.8958 27.3042 33.6795 27.4312C33.6223 27.4647 33.5553 27.5135 33.5092 27.4298C33.4688 27.3572 33.5358 27.3196 33.5874 27.2875C33.8511 27.1228 34.1162 26.9568 34.3813 26.7935C34.4106 26.7754 34.4427 26.7614 34.4595 26.714L34.4581 26.7126Z" fill="black"/>
<path d="M26.3663 29.5954C26.2519 29.5745 26.1347 29.608 26.0161 29.6428C25.7245 29.728 25.4287 29.7098 25.1328 29.661C25.1077 29.6568 25.0826 29.6498 25.0589 29.6401C25.0045 29.6163 24.9528 29.5828 24.971 29.5145C24.9905 29.4419 25.0533 29.4447 25.1091 29.4628C25.2919 29.5228 25.4817 29.5256 25.6714 29.5228C25.7314 29.5228 25.797 29.5354 25.7984 29.4391C25.7984 29.3917 25.8445 29.3652 25.8877 29.3735C26.0189 29.4001 26.1542 29.3763 26.2812 29.4042C26.3998 29.4294 26.5128 29.4447 26.6273 29.4112C26.6859 29.3945 26.7194 29.4182 26.7361 29.4642C26.7528 29.5117 26.7194 29.541 26.6803 29.5605C26.584 29.6121 26.4794 29.5828 26.3677 29.5968L26.3663 29.5954Z" fill="black"/>
<path d="M13.539 29.4893C13.4316 29.4893 13.3242 29.4893 13.2167 29.4893C13.1623 29.4893 13.1148 29.474 13.0897 29.421C13.0646 29.3693 13.0925 29.3275 13.1274 29.2982C13.2935 29.1614 13.4595 29.0261 13.6297 28.8963C13.6814 28.8559 13.7483 28.8489 13.7902 28.9159C13.8279 28.9773 13.8293 29.0428 13.7721 29.0973C13.7539 29.1154 13.7246 29.1252 13.7148 29.1447C13.6911 29.1893 13.6437 29.2354 13.6632 29.2828C13.6828 29.3303 13.7442 29.301 13.786 29.308C13.8265 29.3149 13.8669 29.3163 13.906 29.3275C13.9548 29.3414 13.9855 29.3763 13.973 29.4321C13.9618 29.481 13.9214 29.4907 13.8781 29.4893C13.7651 29.4893 13.6535 29.4893 13.5404 29.4893C13.5404 29.4893 13.5404 29.488 13.5404 29.4866L13.539 29.4893Z" fill="black"/>
<path d="M24.6613 30.0432C24.706 30.106 24.7465 30.1493 24.7046 30.2023C24.6641 30.2525 24.6097 30.2344 24.5651 30.2079C24.413 30.1158 24.2344 30.067 24.1004 29.9414C24.0488 29.8925 23.9706 29.8437 24.032 29.7656C24.0948 29.686 24.1576 29.7502 24.2148 29.7963C24.2651 29.8381 24.3181 29.8772 24.3823 29.9135C24.3544 29.8507 24.2874 29.7879 24.3669 29.7279C24.4381 29.6735 24.4939 29.7376 24.5455 29.7711C24.6265 29.8256 24.706 29.8786 24.8037 29.9037C24.8595 29.9176 24.939 29.9344 24.9167 30.0181C24.8958 30.099 24.8232 30.0795 24.7618 30.0656C24.7381 30.06 24.713 30.0544 24.6613 30.0432Z" fill="black"/>
<path d="M15.8386 28.2684C15.586 28.2935 15.3739 28.2251 15.1563 28.2711C15.0391 28.2963 15.0433 28.1693 15.0349 28.0967C15.0237 28.0116 15.0935 28.0186 15.1521 28.0297C15.4298 28.0814 15.7102 28.1051 15.9921 28.1065C16.0535 28.1065 16.1288 28.1065 16.1274 28.1916C16.1274 28.2697 16.0549 28.2642 15.9991 28.267C15.9321 28.2697 15.8651 28.267 15.8372 28.267L15.8386 28.2684Z" fill="black"/>
<path d="M34.3074 23.446C34.3074 23.4837 34.2976 23.5172 34.2599 23.5339C34.2209 23.5507 34.1874 23.5339 34.1664 23.5032C34.0534 23.3232 33.9585 23.1307 33.8232 22.9633C33.7897 22.9228 33.8078 22.8739 33.8525 22.8446C33.9041 22.8098 33.9753 22.8028 34.0046 22.8544C34.1106 23.0372 34.2041 23.2284 34.3032 23.4167C34.3074 23.4251 34.306 23.4363 34.3074 23.446Z" fill="black"/>
<path d="M27.6779 31.5001C27.569 31.4917 27.4421 31.4596 27.3053 31.4889C27.2244 31.5056 27.1184 31.454 27.1253 31.3452C27.1309 31.2294 27.237 31.2405 27.3165 31.2531C27.4518 31.2754 27.5858 31.3103 27.7211 31.3382C27.7797 31.3494 27.8411 31.3619 27.8342 31.4359C27.8258 31.5154 27.7574 31.5001 27.6793 31.5001H27.6779Z" fill="black"/>
<path d="M16.5068 29.0889C16.4161 29.0847 16.324 29.0833 16.2333 29.0721C16.1859 29.0665 16.151 29.0316 16.1566 28.9758C16.1622 28.9214 16.2012 28.8949 16.2515 28.8963C16.398 28.9005 16.5459 28.9047 16.6924 28.9172C16.7524 28.9228 16.8278 28.9423 16.8194 29.0205C16.811 29.1056 16.7357 29.0889 16.6743 29.0861C16.6185 29.0833 16.5626 29.0861 16.5068 29.0861V29.0916V29.0889Z" fill="black"/>
<path d="M26.6679 29.3818C26.5688 29.3707 26.4753 29.3818 26.3888 29.3386C26.3288 29.3079 26.2827 29.2674 26.312 29.1949C26.3413 29.1251 26.4125 29.1069 26.4655 29.1404C26.573 29.2088 26.6874 29.2046 26.8046 29.2088C26.8632 29.2102 26.926 29.2172 26.9232 29.2953C26.9218 29.3623 26.8646 29.3693 26.8102 29.3721C26.7586 29.3749 26.7083 29.379 26.6665 29.3818H26.6679Z" fill="black"/>
<path d="M28.2696 30.9739C28.1426 30.9586 28.031 30.953 27.9221 30.9293C27.8454 30.9125 27.7449 30.8804 27.7714 30.7758C27.7993 30.6669 27.89 30.7214 27.9612 30.7395C28.0645 30.766 28.1677 30.7925 28.2724 30.8134C28.3296 30.8246 28.3924 30.8302 28.3854 30.9055C28.377 30.9851 28.3086 30.9697 28.2696 30.9739Z" fill="black"/>
<path d="M15.8483 28.4818C15.9683 28.5153 16.0981 28.5488 16.2251 28.5865C16.2767 28.6018 16.3241 28.6311 16.3032 28.6967C16.2851 28.7511 16.2362 28.7595 16.1888 28.7455C16.0562 28.7051 15.9125 28.726 15.7855 28.6632C15.7367 28.6395 15.6934 28.6074 15.7158 28.5446C15.7353 28.486 15.7869 28.4762 15.8497 28.4832L15.8483 28.4818Z" fill="black"/>
<path d="M32.1933 20.3246C32.1849 20.3958 32.1389 20.4167 32.0747 20.3944C31.9923 20.3651 31.9156 20.3706 31.8389 20.4125C31.7705 20.4488 31.7035 20.4209 31.6533 20.3776C31.5905 20.3232 31.5919 20.2437 31.6756 20.2227C31.8193 20.1865 31.97 20.192 32.1165 20.2325C32.1556 20.2437 32.1877 20.2744 32.1947 20.3246H32.1933Z" fill="black"/>
<path d="M27.4297 28.8154C27.4674 28.8056 27.5023 28.8112 27.519 28.8502C27.5386 28.8963 27.5176 28.9312 27.4772 28.9507C27.3334 29.0219 27.1716 29.0247 27.0209 29.0721C26.9818 29.0847 26.9469 29.0428 26.9413 28.9954C26.9344 28.934 26.9679 28.8963 27.0237 28.8851C27.159 28.8586 27.2944 28.8377 27.4297 28.8154Z" fill="black"/>
<path d="M23.8479 29.8981C23.8604 29.9009 23.8744 29.8981 23.88 29.9051C23.9804 30.0293 24.1074 30.1214 24.2274 30.2246C24.2525 30.247 24.2456 30.2832 24.2232 30.3084C24.2009 30.3335 24.1702 30.3432 24.1395 30.3293C23.9916 30.2651 23.8604 30.1744 23.7781 30.0321C23.7418 29.9693 23.7711 29.9135 23.8493 29.8981H23.8479Z" fill="black"/>
<path d="M13.5388 22.9088C13.5081 22.9088 13.4774 22.9088 13.4467 22.9088C13.3895 22.9075 13.3309 22.9088 13.303 22.8433C13.2835 22.7958 13.2918 22.7512 13.3337 22.7191C13.3853 22.68 13.4481 22.6577 13.5053 22.6926C13.5556 22.7219 13.6002 22.7498 13.6602 22.747C13.716 22.7442 13.769 22.7609 13.7718 22.8251C13.7732 22.8921 13.7174 22.9033 13.663 22.9061C13.6225 22.9075 13.5807 22.9061 13.5402 22.9061V22.9088H13.5388Z" fill="black"/>
<path d="M31.9882 20.8395C31.9589 20.834 31.9045 20.8242 31.8515 20.8102C31.7859 20.7935 31.7343 20.7586 31.7649 20.6819C31.7915 20.6149 31.8501 20.5981 31.9156 20.633C31.9561 20.6554 31.9952 20.6763 32.0426 20.6791C32.1012 20.6833 32.164 20.7 32.1584 20.7712C32.1515 20.8619 32.0733 20.8354 31.9896 20.8395H31.9882Z" fill="black"/>
<path d="M13.6269 29.5828C13.6855 29.5856 13.7525 29.5828 13.7566 29.6581C13.7622 29.7335 13.6939 29.739 13.638 29.7474C13.5822 29.7558 13.5278 29.7642 13.472 29.7711C13.4204 29.7781 13.3618 29.7837 13.3464 29.7167C13.3297 29.6414 13.3883 29.6218 13.4455 29.6107C13.5055 29.5995 13.5655 29.5911 13.6255 29.5828H13.6269Z" fill="black"/>
<path d="M13.5935 23.2144C13.5112 23.1865 13.3842 23.2172 13.3535 23.0832C13.3395 23.0219 13.3884 22.9939 13.4484 22.9926C13.5446 22.9898 13.7121 23.0874 13.7065 23.1474C13.6995 23.2074 13.6535 23.2144 13.5935 23.2144Z" fill="black"/>
<path d="M16.8823 29.3679C16.8153 29.3302 16.6883 29.3637 16.6855 29.2312C16.6855 29.1725 16.7442 29.1405 16.7958 29.1614C16.8739 29.1935 16.9925 29.1893 17.0023 29.3051C17.0079 29.3707 16.9409 29.3721 16.8809 29.3679H16.8823Z" fill="black"/>
<path d="M28.5947 27.8888C28.6533 27.9098 28.758 27.8456 28.7622 27.9405C28.7664 28.0353 28.6561 28.0158 28.5933 28.0186C28.5236 28.0214 28.4008 28.0995 28.3938 27.9753C28.3868 27.8511 28.5222 27.9084 28.5947 27.8888Z" fill="black"/>
<path d="M15.3278 33.5372C15.3975 33.5568 15.4715 33.5679 15.4743 33.6544C15.4757 33.7103 15.4338 33.7396 15.3822 33.734C15.3152 33.727 15.2454 33.7075 15.2399 33.6223C15.2371 33.5637 15.2873 33.5512 15.3278 33.5372Z" fill="black"/>
<path d="M29.1249 16.913C29.1124 16.9786 29.0649 16.9884 29.0105 16.9828C28.9449 16.9772 28.8849 16.9563 28.8919 16.8768C28.8975 16.8237 28.9435 16.8014 28.9938 16.814C29.0496 16.8279 29.1207 16.8265 29.1235 16.9116L29.1249 16.913Z" fill="black"/>
<path d="M26.9705 16.9326C26.9677 17.266 26.8798 17.4991 26.6677 17.6735C26.4291 17.8716 26.09 17.8507 25.8737 17.6302C25.5654 17.3163 25.5765 16.7233 25.8974 16.4191C26.1905 16.1414 26.6119 16.1916 26.8351 16.5321C26.9258 16.673 26.9747 16.8279 26.9705 16.9326Z" fill="black"/>
<path d="M29.6665 2.83257C29.7167 2.82141 29.7697 2.7949 29.8186 2.80187C30.2679 2.86745 30.7116 2.95118 31.1302 3.13676C31.1595 3.14931 31.1958 3.1549 31.2181 3.17583C31.2544 3.20931 31.2823 3.25257 31.313 3.29164C31.2614 3.3042 31.1972 3.34187 31.1581 3.32513C30.7227 3.13955 30.2651 3.04327 29.8032 2.96094C29.753 2.95257 29.7083 2.90792 29.6609 2.88001C29.6623 2.86327 29.6637 2.84792 29.6665 2.83118V2.83257Z" fill="black"/>
<path d="M31.9812 3.51628C32.2561 3.46186 33.2719 4.01163 33.3389 4.24186C33.2189 4.26279 32.0412 3.64046 31.9812 3.51628Z" fill="black"/>
<path d="M36.6947 6.8275C36.6598 6.7661 36.6194 6.7075 36.5915 6.64331C36.4952 6.41727 36.3989 6.18982 36.3124 5.9582C36.2942 5.90936 36.318 5.84517 36.3235 5.78796C36.3696 5.81308 36.4408 5.82703 36.4589 5.86471C36.5635 6.09355 36.664 6.32517 36.7491 6.56099C36.7756 6.63355 36.7533 6.72424 36.7533 6.80796C36.7338 6.81494 36.7142 6.82192 36.6947 6.82889V6.8275Z" fill="black"/>
<path d="M11.5102 42.4033C11.4628 42.4201 11.4195 42.4521 11.386 42.4452C11.2465 42.4145 10.8669 41.954 10.8669 41.8159C10.8669 41.7754 10.8949 41.7238 10.9269 41.6987C10.9423 41.6861 11.0093 41.714 11.0316 41.7405C11.1739 41.9149 11.3107 42.0935 11.446 42.2721C11.4683 42.3015 11.4781 42.3377 11.5102 42.4033Z" fill="black"/>
<path d="M35.4251 5.62745C35.3846 5.69024 35.3706 5.73629 35.3455 5.74466C35.3204 5.75303 35.2716 5.7321 35.252 5.70838C35.2227 5.6721 35.2074 5.62327 35.1878 5.58001C35.093 5.37629 34.9967 5.17257 34.9074 4.96606C34.8892 4.92559 34.9018 4.87257 34.9004 4.82373C34.9478 4.83629 35.0218 4.83489 35.0385 4.86559C35.1753 5.11815 35.3009 5.37768 35.4265 5.62745H35.4251Z" fill="black"/>
<path d="M34.783 5.11256C34.7635 5.14047 34.737 5.19768 34.7272 5.19489C34.6868 5.18372 34.6351 5.1614 34.617 5.12791C34.5333 4.97303 34.4607 4.81117 34.3812 4.65349C34.3575 4.60605 34.3156 4.56558 34.2989 4.51675C34.2863 4.47907 34.3003 4.43163 34.303 4.38977C34.3491 4.40372 34.4175 4.40372 34.437 4.43582C34.5375 4.59349 34.6268 4.75814 34.7147 4.92279C34.744 4.97861 34.7593 5.04279 34.7858 5.11256H34.783Z" fill="black"/>
<path d="M35.8227 6.06842C35.8046 6.02796 35.7893 5.98749 35.7683 5.94982C35.6776 5.774 35.5813 5.59958 35.499 5.42098C35.4795 5.37912 35.506 5.31633 35.5116 5.26331C35.5576 5.28982 35.6232 5.30517 35.6469 5.34424C35.746 5.51586 35.8381 5.69168 35.9218 5.87028C35.9413 5.91354 35.9162 5.97772 35.912 6.03354C35.8827 6.0461 35.8534 6.05726 35.8241 6.06982L35.8227 6.06842Z" fill="black"/>
<path d="M33.9836 43.7233C34.0492 43.673 34.1092 43.6158 34.1804 43.5754C34.7092 43.2754 35.2478 42.9907 35.7683 42.6754C36.3027 42.3516 36.8218 42.0042 37.3409 41.6568C37.9743 41.234 38.4697 40.6619 38.9874 40.1135C39.0404 40.0577 39.1018 40.0102 39.159 39.9586L39.219 39.9949C39.1869 40.0619 39.1674 40.1386 39.1213 40.1916C38.5674 40.8335 37.9855 41.4433 37.2795 41.9247C36.4116 42.5177 35.5171 43.0675 34.585 43.553C34.4511 43.6228 34.3115 43.6786 34.1706 43.733C34.119 43.7526 34.0604 43.7526 34.0046 43.7623C33.9976 43.7484 33.9906 43.7358 33.9836 43.7219V43.7233Z" fill="black"/>
<path d="M44.3803 29.9805C44.4291 29.9289 44.4752 29.8758 44.5268 29.8284C44.7361 29.6372 44.9454 29.4461 45.1589 29.2605C45.1966 29.227 45.2566 29.22 45.3054 29.1991C45.3054 29.2493 45.325 29.3093 45.304 29.347C45.1324 29.661 44.8701 29.8758 44.545 30.0182C44.5059 30.0349 44.4543 30.0279 44.4082 30.0307C44.3984 30.014 44.3887 29.9972 44.3789 29.9805H44.3803Z" fill="black"/>
<path d="M43.899 32.114C43.8739 32.0986 43.8293 32.0847 43.8195 32.0582C43.8097 32.0317 43.8293 31.9884 43.846 31.9577C43.8586 31.9368 43.8851 31.9214 43.9074 31.9075C44.1181 31.7791 44.3274 31.6479 44.5423 31.5252C44.5856 31.5 44.6497 31.5112 44.7042 31.5056C44.6874 31.5614 44.6888 31.6424 44.6525 31.6689C44.4418 31.8154 44.2228 31.9493 44.0037 32.0847C43.9772 32.1014 43.9423 32.1014 43.899 32.114Z" fill="black"/>
<path d="M44.986 30.2428C44.9665 30.3028 44.9651 30.3809 44.926 30.4214C44.7432 30.6084 44.5548 30.7898 44.3581 30.9628C44.3218 30.9949 44.2437 30.9768 44.1851 30.9823C44.2032 30.9279 44.206 30.8582 44.2437 30.8219C44.4292 30.6363 44.6218 30.4591 44.8158 30.2819C44.8506 30.2498 44.9009 30.2358 44.9455 30.2135C44.9595 30.2233 44.9734 30.233 44.9874 30.2428H44.986Z" fill="black"/>
<path d="M44.8395 28.8C44.8716 28.7526 44.8981 28.7023 44.9343 28.6605C45.099 28.4693 45.2636 28.2768 45.4353 28.0912C45.4716 28.0507 45.5357 28.0368 45.5874 28.0103C45.5832 28.0647 45.5999 28.1344 45.572 28.1693C45.4046 28.3786 45.2288 28.5823 45.0474 28.7805C45.0083 28.8223 44.9316 28.8307 44.8716 28.8544C44.8604 28.8363 44.8478 28.8182 44.8367 28.8H44.8395Z" fill="black"/>
<path d="M39.8301 39.0628C39.8594 39.0028 39.8817 38.94 39.9166 38.8856C40.0436 38.6875 40.1733 38.4893 40.3087 38.2968C40.3394 38.2521 40.4008 38.2298 40.4482 38.1963C40.4524 38.2507 40.4789 38.3205 40.4552 38.3582C40.3157 38.5856 40.1664 38.8075 40.0129 39.0251C39.985 39.0656 39.9208 39.0795 39.8733 39.1061C39.8594 39.0921 39.844 39.0768 39.8301 39.0628Z" fill="black"/>
<path d="M45.6877 27.2861C45.6975 27.5358 45.1854 28.0856 44.9858 28.0396C45.0082 27.8944 45.5607 27.3028 45.6877 27.2861Z" fill="black"/>
<g style="mix-blend-mode:overlay" opacity="0.49">
<path d="M13.193 40.7888C12.106 39.36 10.5195 38.4474 9.23435 37.2195C7.76086 35.8116 6.63481 33.8498 5.69714 32.0526C5.20458 31.1093 4.79295 30.1102 4.61435 29.0553C4.46086 28.1553 4.66319 27.2679 4.06458 26.513C3.92644 26.3386 3.759 26.1795 3.64319 25.987C3.47854 25.7121 3.49109 25.426 3.46179 25.1177C3.43388 24.8191 3.3683 24.5051 3.12412 24.3014C2.7404 23.9805 2.27854 24.1856 2.10551 24.6098C1.97016 24.9405 2.01761 25.3242 2.03854 25.6688C2.07621 26.2814 2.11807 26.894 2.19063 27.5037C2.26877 28.1693 2.38737 28.8237 2.56179 29.4628C3.18691 32.2814 4.419 34.9493 6.16598 37.2488C6.2204 37.3577 6.27481 37.4665 6.32923 37.574C6.3683 37.6535 6.43528 37.6814 6.50086 37.6758C6.66551 37.8809 6.83295 38.0833 7.00598 38.2814C8.18923 39.6363 9.58458 40.9744 11.2744 41.6623C11.8074 41.8786 12.8148 42.2805 13.3785 41.9623C13.9143 41.6595 13.4497 41.1237 13.193 40.7874V40.7888Z" fill="white"/>
</g>
<g style="mix-blend-mode:overlay" opacity="0.49">
<path d="M5.28826 15.2819C4.82919 14.5842 4.26826 14.9121 3.85105 15.4326C3.18408 16.2628 2.83524 17.2382 2.64687 18.2568C2.4264 18.9014 2.33291 19.5852 2.28547 20.2731C2.24222 20.8912 2.29803 21.7577 3.03478 21.9489C3.81338 22.1512 4.27524 21.3503 4.44408 20.7307C4.7371 19.6549 4.63524 18.5093 5.02733 17.4545C5.27989 16.7735 5.75571 15.9907 5.28826 15.2819Z" fill="white"/>
</g>
<g style="mix-blend-mode:overlay" opacity="0.49">
<path d="M44.6747 19.6284C44.5603 18.9586 44.4361 18.2903 44.2993 17.6247C44.0663 16.4833 43.924 15.1173 43.3114 14.1028C42.7156 13.1163 41.6691 12.3475 40.8444 11.5619C40.2863 11.0303 39.6221 10.5154 39.177 9.88051C38.8226 9.37539 38.7138 8.7419 38.3426 8.24795C37.8668 7.61725 36.9096 7.35911 36.4449 8.14469C36.4017 8.21725 36.41 8.28841 36.4449 8.34283C36.3179 9.10748 37.3617 9.53167 37.797 10.0145C38.6538 10.9647 39.1965 12.2428 39.7993 13.3605C41.1054 15.7828 42.3319 18.2484 43.6296 20.6749C43.871 21.1242 44.5658 21.6782 44.7919 20.8814C44.9007 20.4963 44.7389 20.0052 44.6747 19.6298V19.6284Z" fill="white"/>
</g>
<g style="mix-blend-mode:multiply" opacity="0.25">
<path d="M38.5129 39.6349C37.8431 39.9935 37.1775 40.1763 36.4352 40.3019C35.9747 40.38 35.605 40.4861 35.3175 40.8754C35.1208 41.1419 35.0008 41.421 34.744 41.647C34.4915 41.8689 34.1747 42.0238 33.8747 42.1703C33.1422 42.5289 32.3873 42.8456 31.6254 43.1359C30.9557 43.3912 30.2761 43.6214 29.5896 43.8279C29.2338 43.9354 28.6422 44.001 28.4943 44.4196C28.3073 44.9512 28.8668 45.2163 29.4222 45.3489C29.4487 45.4159 29.5073 45.4689 29.6022 45.4703C29.8143 45.4717 30.0264 45.4731 30.2385 45.4745C30.3333 45.4745 30.392 45.4256 30.4171 45.3628C31.1175 45.3112 31.7985 45.1661 32.4473 44.8577C33.2985 44.4531 34.0268 43.8447 34.7706 43.2768C35.5617 42.6726 36.4087 42.2372 37.2571 41.7293C37.9882 41.2912 38.6022 40.7163 38.8073 39.8638C38.8492 39.6893 38.6678 39.5512 38.5101 39.6349H38.5129Z" fill="#932A8E"/>
</g>
<path d="M27.0432 7.04517C26.9818 7.04517 26.9162 7.05773 26.859 7.04377C26.3385 6.92098 25.8153 6.82191 25.2767 6.84145C25.2418 6.84145 25.2013 6.83866 25.1706 6.82331C25.1483 6.81214 25.126 6.78145 25.1218 6.75633C25.119 6.74098 25.1483 6.71168 25.1692 6.7047C25.2083 6.69214 25.2501 6.68935 25.2906 6.68656C25.8404 6.65586 26.3734 6.75075 26.9008 6.89447C26.9553 6.90982 27.0041 6.9461 27.0557 6.974C27.0515 6.99773 27.0473 7.02145 27.0432 7.04517Z" fill="black"/>
<path d="M23.5325 6.83308C23.6525 6.70192 24.2162 6.63912 24.3711 6.73959C24.2999 6.83168 23.6748 6.90145 23.5325 6.83308Z" fill="black"/>
<path d="M41.167 23.4056C41.1544 23.3498 41.1349 23.294 41.1307 23.2368C41.0679 22.5405 41.0107 21.8456 40.9451 21.1493C40.934 21.0321 40.8865 20.9177 40.8712 20.8005C40.8642 20.7433 40.8935 20.6819 40.9061 20.6219C40.9437 20.6665 41.0079 20.707 41.0163 20.7572C41.093 21.2163 41.1712 21.6754 41.2284 22.1358C41.2647 22.4233 41.2702 22.7135 41.2786 23.0037C41.2828 23.1377 41.2577 23.2717 41.2465 23.4042C41.22 23.4042 41.1935 23.4042 41.167 23.4042V23.4056Z" fill="black"/>
<path d="M40.8835 20.093C40.8626 20.1237 40.8472 20.1684 40.8249 20.174C40.7984 20.1796 40.7496 20.1572 40.7384 20.1321C40.6812 20.0107 40.6296 19.8865 40.5849 19.7596C40.5765 19.7358 40.6016 19.6842 40.624 19.6716C40.6435 19.6605 40.7021 19.68 40.7119 19.7009C40.7733 19.8265 40.8249 19.9549 40.8835 20.0916V20.093Z" fill="black"/>
<path d="M6.77581 22.5252C6.78697 22.4791 6.78837 22.4512 6.80093 22.4303C6.94744 22.1749 7.09255 21.9182 7.24604 21.667C7.26976 21.628 7.33674 21.6168 7.38279 21.5931C7.38 21.6447 7.39255 21.7033 7.37023 21.7452C7.23209 22.0061 7.08976 22.2642 6.94186 22.521C6.91953 22.5601 6.86651 22.581 6.82744 22.6103C6.8079 22.5782 6.78697 22.5475 6.77441 22.5266L6.77581 22.5252Z" fill="black"/>
<path d="M6.85376 21.6042C6.86213 21.5428 6.85376 21.4716 6.88167 21.42C6.9905 21.2107 7.10771 21.0042 7.2305 20.8019C7.25004 20.7712 7.31283 20.7656 7.35609 20.7488C7.35469 20.7907 7.36585 20.8409 7.34771 20.8758C7.23469 21.0963 7.11609 21.314 6.99609 21.5302C6.97516 21.5679 6.93748 21.5958 6.90818 21.6279C6.89004 21.6209 6.87329 21.6126 6.85516 21.6056L6.85376 21.6042Z" fill="black"/>
<path d="M7.46911 19.7512C7.44818 19.9759 7.09795 20.5787 6.96539 20.6303C6.91376 20.4308 7.27934 19.7777 7.46911 19.7512Z" fill="black"/>
<path d="M6.93896 20.0414C6.95013 19.9647 6.94176 19.9075 6.96548 19.8698C7.09803 19.6549 7.23617 19.4428 7.3785 19.2335C7.39664 19.207 7.44827 19.2056 7.48455 19.1917C7.49292 19.2279 7.52222 19.2768 7.50827 19.2977C7.35338 19.5363 7.19292 19.7693 7.03245 20.0037C7.02269 20.0177 6.99617 20.0191 6.93896 20.0414Z" fill="black"/>
<path d="M40.458 27.5233C40.4678 27.4047 40.9352 26.8884 41.0552 26.8535C41.1138 27.0419 40.7161 27.4954 40.458 27.5233Z" fill="black"/>
<path d="M41.0608 27.4982C41.0385 27.5442 41.0273 27.593 40.998 27.6265C40.885 27.7535 40.7706 27.8805 40.645 27.9963C40.6129 28.0256 40.5445 28.0158 40.4929 28.0242C40.5041 27.974 40.4985 27.9098 40.5278 27.8763C40.6492 27.7354 40.779 27.6014 40.9101 27.4688C40.9325 27.4465 40.9715 27.4298 41.0036 27.4312C41.0218 27.4312 41.0399 27.4716 41.0608 27.4995V27.4982Z" fill="black"/>
<path d="M40.412 28.7135C40.405 28.6828 40.3771 28.627 40.3925 28.6089C40.5069 28.4707 40.6241 28.334 40.7539 28.2098C40.8069 28.1582 40.8613 28.193 40.8641 28.2726C40.8683 28.3912 40.5613 28.7149 40.412 28.7149V28.7135Z" fill="black"/>
</g>
<defs>
<clipPath id="clip0_40_476">
<rect width="48" height="48" fill="white"/>
</clipPath>
</defs>
</svg>
