<svg width="462" height="411" viewBox="0 0 462 411" fill="none" xmlns="http://www.w3.org/2000/svg">
<g clip-path="url(#clip0_40_1450)">
<path d="M223.656 40.6938C140.164 40.627 72.5155 108.053 72.471 191.389C72.4264 274.68 139.908 342.351 223.043 342.384C306.591 342.418 374.161 274.97 374.161 191.533C374.161 108.097 306.736 40.7717 223.656 40.6938ZM223.789 340.814C140.877 340.981 74.0408 274.379 73.8293 191.411C73.6289 109.367 140.498 42.2748 222.687 42.0632C305.277 41.8405 372.447 108.576 372.592 190.999C372.736 273.544 306.079 340.658 223.778 340.814H223.789Z" fill="black"/>
<path d="M223.878 1.87048C118.91 1.79254 33.8592 86.5536 33.8035 191.344C33.7478 296.068 118.598 381.152 223.11 381.185C328.157 381.23 413.107 296.424 413.107 191.533C413.107 86.6426 328.324 1.97068 223.878 1.87048ZM224.045 379.215C119.8 379.415 35.763 295.678 35.507 191.366C35.262 88.2125 119.333 3.86341 222.676 3.5962C326.52 3.31786 410.969 87.2216 411.148 190.854C411.326 294.632 327.522 379.014 224.057 379.215H224.045Z" fill="#D8872B"/>
<path d="M398.21 141.643C398.21 141.643 398.188 141.643 398.177 141.654C398.054 140.73 397.854 139.817 397.464 138.893C397.409 138.748 397.331 138.637 397.253 138.526C384.549 95.8725 354.366 55.6686 310.154 31.6643C280.171 15.3757 248.105 8.29461 214.303 9.8422C214.214 9.80879 214.136 9.76426 214.036 9.74199C213.079 9.53045 212.11 9.64179 211.141 9.85333C210.752 9.83106 210.373 9.8422 209.984 9.88673C209.872 9.89786 209.772 9.92013 209.672 9.95353C209.126 9.909 208.581 9.88673 208.046 9.96467C207.801 9.99807 207.59 10.1205 207.412 10.2875C199.195 11.0224 191.045 12.2025 183.007 14.0841C142.936 23.481 109.702 44.0116 83.2484 75.5311C82.4801 76.4441 81.634 77.3348 80.8991 78.2923C79.2959 79.6172 78.7169 81.5879 77.3586 83.1132C76.6906 83.8703 75.811 84.2711 75.2766 85.1507C74.8201 85.8966 74.475 86.7428 74.1187 87.5556C54.7906 115.479 43.9797 146.431 41.8532 180.444C40.84 196.677 41.9756 212.777 45.3714 228.687C53.2875 265.773 70.9345 297.504 98.5127 323.49C129.297 352.505 165.95 368.738 208.091 372.534C208.146 372.534 208.213 372.534 208.28 372.534C209.46 372.724 210.674 372.779 211.876 372.79C223.244 373.525 234.244 373.18 245.222 371.866C268.77 369.038 290.903 361.835 311.623 350.323C334.002 337.875 352.974 321.419 368.361 300.967C391.541 270.149 403.733 235.389 405.024 196.855C405.648 178.14 403.376 159.758 398.21 141.643Z" fill="#FEBF32"/>
<path d="M216.363 383C214.392 382.844 212.433 382.677 210.462 382.532C160.349 378.736 117.952 358.573 83.4933 322.065C60.2127 297.404 44.8482 268.323 37.0435 235.311C32.9908 218.176 31.3987 200.797 32.2003 183.194C33.7367 149.069 43.412 117.438 61.9719 88.7692C90.129 45.2809 129.554 17.3352 179.922 5.07699C197.792 0.7237 216.007 -0.812753 234.366 0.400822C285.459 3.75207 328.714 24.0488 363.762 61.3579C387.143 86.2418 402.474 115.568 410.134 148.858C414.232 166.616 415.857 184.631 414.577 202.812C410.591 259.238 386.631 305.454 342.809 341.171C318.459 361.011 290.558 373.57 259.74 379.582C250.655 381.352 241.47 382.432 232.218 382.8C231.661 382.822 231.115 382.944 230.57 383.011H216.363V383ZM413.118 191.533C413.118 86.9544 328.324 1.97068 223.878 1.88161C118.91 1.7814 33.8592 86.5647 33.8035 191.344C33.7479 296.079 118.587 381.152 223.11 381.196C328.168 381.23 413.118 296.435 413.118 191.533Z" fill="black"/>
<path d="M370.331 191.444C370.331 272.854 304.397 338.666 222.865 338.643C141.745 338.61 75.9001 272.587 75.9446 191.3C75.9891 109.979 141.99 44.1786 223.466 44.2565C304.531 44.3345 370.331 110.279 370.331 191.444ZM80.554 191.322C80.7432 270.471 144.495 333.989 223.589 333.833C302.082 333.678 365.666 269.67 365.522 190.932C365.388 112.317 301.324 48.6655 222.542 48.8659C144.15 49.0774 80.3647 113.063 80.554 191.322Z" fill="#231F20"/>
<path d="M222.698 7.8159C121.682 8.08311 39.5039 90.5395 39.7488 191.366C39.9938 293.34 122.138 375.195 224.045 374.995C325.184 374.794 407.106 292.316 406.928 190.865C406.75 89.5708 324.204 7.54869 222.698 7.8159ZM368.372 300.978C352.985 321.442 334.024 337.897 311.634 350.334C290.914 361.857 268.781 369.061 245.233 371.877C234.032 373.225 222.809 373.559 211.197 372.768C211.219 372.757 211.23 372.746 211.253 372.724C210.284 372.668 209.327 372.612 208.358 372.568C208.313 372.568 208.28 372.545 208.247 372.534C208.202 372.534 208.157 372.534 208.113 372.534C165.972 368.738 129.32 352.505 98.5349 323.49C70.9566 297.493 53.3097 265.773 45.3936 228.687C41.9978 212.777 40.8622 196.666 41.8754 180.444C44.0465 145.685 55.2692 114.11 75.4101 85.7074C75.4435 85.6183 75.5103 85.5293 75.5883 85.4513C75.6105 85.4291 75.6217 85.3957 75.6439 85.3734C75.733 85.2398 75.8332 85.1062 75.9557 84.9614C76.1004 84.672 76.2118 84.3268 76.401 84.0819C76.8241 83.5586 77.3363 83.2023 77.7037 82.6234C78.3606 81.5657 78.8839 80.5859 79.8859 79.8177C79.8859 79.8177 79.9082 79.8177 79.9193 79.8065C80.7989 78.2255 82.1238 76.9118 83.2817 75.5312C109.724 44.0116 142.97 23.481 183.04 14.0842C191.468 12.1135 200.019 10.8999 208.636 10.1762C208.714 10.1762 208.781 10.1762 208.848 10.1762C208.848 10.1762 208.859 10.1762 208.87 10.1651C210.362 9.80883 212.032 9.8311 213.557 9.81997C213.635 9.81997 213.691 9.84223 213.758 9.8645C247.76 8.21671 280.015 15.2978 310.153 31.6643C354.978 56.0138 385.395 96.997 397.776 140.307C398.143 140.73 398.243 141.276 398.255 141.844C403.387 159.891 405.636 178.206 405.013 196.844C403.732 235.378 391.53 270.149 368.349 300.956L368.372 300.978Z" fill="black"/>
<path d="M372.525 191.533C372.525 273.979 305.756 340.636 223.177 340.603C141.021 340.569 74.3415 273.7 74.386 191.389C74.4305 109.033 141.277 42.3972 223.778 42.4752C305.867 42.5531 372.514 109.344 372.514 191.545L372.525 191.533ZM79.0622 191.411C79.2514 271.563 143.816 335.893 223.912 335.737C303.407 335.581 367.793 270.75 367.659 191.01C367.526 111.393 302.638 46.9287 222.854 47.1402C143.46 47.3517 78.8618 112.15 79.0622 191.411Z" fill="#D8872B"/>
<path d="M223.856 10.5548C123.686 10.4657 42.5325 91.3633 42.4768 191.355C42.4212 291.292 123.386 372.479 223.133 372.512C323.381 372.557 404.445 291.637 404.445 191.533C404.445 91.4301 323.525 10.6438 223.856 10.5548ZM224.023 370.63C124.555 370.831 44.3584 290.924 44.1135 191.378C43.8797 92.9443 124.098 12.4475 222.71 12.1914C321.8 11.9242 402.385 91.9979 402.564 190.877C402.742 289.911 322.757 370.43 224.023 370.619V370.63Z" fill="#FEDE4D"/>
<path d="M223.867 5.03246C120.647 4.95453 37.0213 88.3127 36.9656 191.355C36.9099 294.331 120.346 378.001 223.121 378.023C326.42 378.068 409.956 294.676 409.956 191.533C409.956 88.3906 326.576 5.13267 223.867 5.03246ZM224.034 376.086C121.526 376.286 38.8917 293.953 38.6468 191.366C38.4019 89.9382 121.07 6.992 222.687 6.72479C324.795 6.44645 407.841 88.9584 408.019 190.854C408.197 292.906 325.785 375.874 224.046 376.075L224.034 376.086Z" fill="#FFDF99"/>
<path d="M223.789 40.6826C140.298 40.6158 72.649 108.042 72.6045 191.378C72.56 274.669 140.041 342.34 223.177 342.373C306.724 342.406 374.295 274.958 374.295 191.522C374.295 108.086 306.869 40.7605 223.789 40.6826ZM223.923 340.803C141.01 340.97 74.1744 274.368 73.9628 191.4C73.7624 109.355 140.632 42.2636 222.821 42.0521C305.411 41.8294 372.58 108.565 372.725 190.988C372.87 273.533 306.212 340.647 223.912 340.803H223.923Z" fill="#FEDE4D"/>
<path d="M223.878 1.87048C118.91 1.79254 33.8592 86.5536 33.8035 191.344C33.7478 296.068 118.598 381.152 223.11 381.185C328.157 381.23 413.107 296.424 413.107 191.533C413.107 86.6426 328.324 1.97068 223.878 1.87048ZM39.7378 191.366C39.504 90.5394 121.682 8.08309 222.698 7.81588C324.193 7.55981 406.75 89.5708 406.917 190.865C407.095 292.316 325.173 374.794 224.034 374.995C122.127 375.195 39.9827 293.362 39.7378 191.378V191.366Z" fill="#FEBF32"/>
<path d="M365.522 191.444C365.522 270.193 301.748 333.856 222.876 333.834C144.406 333.8 80.721 269.937 80.7544 191.311C80.7989 112.64 144.64 48.9995 223.455 49.0663C301.87 49.1331 365.522 112.929 365.522 191.444Z" fill="#FEBF32"/>
<path d="M248.83 202.411C247.349 212.064 241.181 217.876 233.176 222.029C224.179 226.705 214.649 227.985 204.707 225.625C204.384 225.547 204.083 225.436 203.749 225.581C198.95 227.763 194.063 227.217 189.22 225.87C183.686 224.322 178.798 221.595 174.712 217.497C173.955 216.74 172.909 216.384 172.218 215.538C171.506 214.681 171.495 213.79 172.397 213.122C173.254 212.476 173.644 213.178 174.122 213.801C177.585 218.355 182.161 221.361 187.483 223.287C191.613 224.79 195.844 225.58 200.242 224.757C202.213 224.378 202.291 224.378 202.168 222.352C201.99 219.29 201.801 216.228 201.934 213.144C201.99 212.008 202.268 210.884 202.124 209.715C202.046 209.069 201.879 208.824 201.222 208.713C197.859 208.156 194.597 207.243 191.547 205.673C190.812 205.295 190.133 204.85 189.609 204.193C189.431 203.97 189.142 203.68 189.186 203.48C189.487 201.988 188.251 201.487 187.46 200.708C183.72 197.067 181.047 192.925 181.281 187.459C181.459 183.528 183.374 180.478 186.358 178.028C186.637 177.795 187.071 177.583 187.138 177.282C187.505 175.779 188.641 176.28 189.52 176.369C190.166 176.436 190.4 177.127 190.043 177.594C189.442 178.374 190.021 178.708 190.455 179.075C192.326 180.689 194.564 181.591 196.891 182.27C202.357 183.862 207.891 184.363 213.513 183.172C215.005 182.86 216.43 182.359 217.644 181.391C218.357 180.823 218.323 180.3 217.733 179.654C216.664 178.485 215.774 177.138 214.415 176.236C213.836 175.857 213.636 175.245 214.148 174.655C214.627 174.098 215.217 174.265 215.662 174.688C219.192 178.062 222.532 181.58 223.701 186.557C224.346 189.34 224.369 192.224 223.979 194.985C223.612 197.601 221.997 199.795 219.938 201.532C217.254 203.803 214.17 205.518 211.365 207.577C209.305 209.091 207.256 209.125 205.029 209.103C204.428 209.103 204.183 209.136 204.116 209.837C203.693 214.124 203.76 218.41 204.105 222.697C204.172 223.532 204.707 223.576 205.219 223.71C209.216 224.823 213.313 225.035 217.399 224.623C225.705 223.799 233.22 220.949 239.544 215.349C241.025 214.046 242.238 212.51 243.474 210.973C245.334 208.68 245.545 205.896 246.169 203.213C246.347 202.445 245.712 202.166 245.278 201.921C244.899 201.699 244.543 202.077 244.476 202.556C244.421 202.946 244.153 203.102 243.775 203.09C243.318 203.079 242.995 202.834 242.817 202.434C242.65 202.066 242.673 201.654 243.007 201.42C244.554 200.329 246.169 199.127 248.15 199.683C249.13 199.951 249.999 200.853 250.355 201.955C250.488 202.367 250.511 202.879 249.987 203.135C249.319 203.458 249.208 202.779 248.818 202.367L248.83 202.411Z" fill="black"/>
<path d="M211.921 237.516C211.865 235.667 212.099 233.407 212.645 231.158C213.313 228.386 214.872 227.729 217.31 229.176C218.791 230.056 219.537 231.392 220.004 232.973C220.895 235.99 220.928 239.108 221.106 242.203C221.229 244.24 221.129 246.3 221.129 248.349C221.129 248.85 221.162 249.217 221.73 249.518C222.977 250.186 223.578 251.377 223.578 252.769C223.567 259.171 225.827 264.704 229.679 269.725C230.526 270.839 231.583 271.384 232.719 271.941C233.788 272.464 234.901 272.743 235.914 273.544C237.952 275.159 240.446 276.138 242.561 277.708C242.984 278.02 243.296 278.076 243.83 277.708C245.022 276.884 246.057 275.971 246.926 274.791C248.005 273.333 249.475 272.242 251.101 271.418C255.665 269.113 259.863 266.341 263.37 262.555C264.572 261.253 266.187 260.462 267.567 259.371C273.646 254.584 279.091 249.284 281.496 241.624C281.919 240.266 282.208 238.852 282.587 237.471C282.72 236.981 282.977 236.547 283.578 236.525C284.012 236.502 284.257 236.747 284.413 237.115C284.624 237.627 284.569 238.039 284.068 238.395C283.522 238.785 283.489 239.475 283.355 240.043C282.019 245.588 279.28 250.253 275.261 254.372C272.01 257.712 268.313 260.429 264.728 263.335C262.134 265.439 259.885 267.977 256.979 269.725C254.808 271.028 252.593 272.264 250.399 273.533C249.497 274.056 248.729 274.758 248.128 275.571C247.226 276.795 246.224 277.898 244.766 278.788C246.536 279.768 248.228 280.559 249.765 281.594C252.036 283.119 253.929 283.03 256.445 281.661C260.264 279.59 263.86 277.23 267.501 274.903C270.518 272.977 272.878 270.483 275.172 267.766C277.332 265.216 279.87 262.978 281.841 260.251C283.344 258.158 284.903 256.12 286.64 254.194C288.989 251.589 289.679 248.182 290.681 244.942C291.527 242.214 292.117 239.397 293.32 236.792C293.531 236.335 293.698 235.645 294.422 235.979C295.123 236.291 294.778 236.87 294.578 237.36C293.03 241.067 292.273 245.02 290.993 248.816C290.024 251.7 288.71 254.294 286.539 256.476C285.482 257.534 284.613 258.814 283.756 260.061C281.707 263.045 279.291 265.706 276.686 268.189C275.472 269.347 274.604 270.805 273.468 272.052C271.331 274.39 268.514 275.782 266.031 277.63C262.88 279.991 259.429 281.839 255.844 283.453C254.508 284.055 254.519 284.277 255.755 285.057C256.723 285.669 257.748 286.181 258.738 286.749C260.164 287.562 269.304 297.359 269.126 299.063C268.959 300.789 267.768 301.69 266.265 302.258C265.163 302.67 264.016 302.648 262.869 302.548C262.29 302.503 261.811 302.214 261.878 301.546C261.945 300.9 262.424 300.688 263.025 300.688C263.927 300.688 264.84 300.789 265.697 300.432C266.421 300.132 267.144 299.764 267.222 298.84C267.3 297.983 258.493 288.853 257.837 288.464C253.261 285.769 248.763 282.952 243.975 280.625C240.913 279.133 238.197 277.063 235.202 275.459C233.688 274.647 233.788 274.658 233.187 276.239C232.875 277.051 232.719 277.875 232.541 278.699C232.262 279.968 231.728 281.104 230.804 282.017C228.688 284.088 226.384 285.858 223.5 286.771C222.687 287.027 221.763 287.239 221.396 288.274C220.861 289.777 244.086 302.937 245.523 303.661C246.258 304.028 246.981 304.396 247.705 304.786C248.262 305.086 248.618 305.576 248.317 306.2C247.994 306.868 247.427 306.79 246.848 306.5C245.979 306.055 245.1 305.621 244.22 305.175C242.472 304.273 218.824 290.378 219.358 288.452C219.559 287.74 219.503 287.306 218.846 286.849C217.399 285.825 216.775 284.233 216.363 282.596C216.163 281.772 215.807 281.472 214.994 281.438C213.925 281.394 212.856 281.26 212.122 280.314C211.977 280.124 211.81 280.013 211.643 280.236C210.819 281.394 209.516 281.349 208.325 281.494C207.779 281.561 207.579 281.75 207.445 282.262C206.922 284.177 206.232 286.003 204.45 287.172C204.05 287.439 204.183 287.784 204.261 288.152C204.84 290.635 204.384 291.581 202.146 292.683C201.411 293.051 184.076 303.628 183.352 304.006C182.795 304.296 182.227 304.44 181.849 303.795C181.437 303.082 181.905 302.637 182.472 302.314C183.218 301.891 183.987 301.501 184.755 301.134C185.356 300.844 202.602 290.39 202.524 289.555C202.446 288.653 202.357 287.751 201.366 287.294C199.963 286.649 198.438 286.337 197.136 285.413C195.866 284.511 194.553 283.687 193.406 282.629C192.025 281.36 191.168 279.79 190.979 277.942C190.89 277.074 190.411 276.361 190.299 275.493C190.199 274.68 189.498 274.892 188.952 275.203C187.082 276.305 185.156 277.319 183.363 278.532C181.793 279.601 180.101 280.392 178.453 281.293C175.091 283.13 171.561 284.689 168.455 287.005C167.609 287.628 166.585 288.007 165.694 288.586C164.258 289.532 155.15 302.147 156.709 302.915C157.589 303.349 158.535 303.305 159.47 303.294C160.138 303.294 160.762 303.405 160.773 304.24C160.773 305.086 160.105 305.164 159.47 305.197C158.067 305.253 156.698 305.175 155.44 304.418C152.957 302.915 162.042 288.653 164.503 287.094C169.201 284.132 173.977 281.305 178.976 278.866C181.66 277.552 184.031 275.693 186.67 274.301C187.427 273.901 188.173 273.478 188.952 273.099C189.498 272.843 190.132 272.776 190.589 273.166C191.491 273.912 191.791 273.366 192.114 272.609C192.938 270.705 194.33 269.169 195.543 267.532C198.171 263.958 199.151 259.783 200.108 255.608C200.286 254.84 200.075 253.982 200.064 253.17C200.041 251.577 200.609 250.253 202.034 249.473C202.658 249.139 202.513 248.672 202.502 248.226C202.457 244.419 202.535 240.611 202.925 236.825C203.103 235.144 203.448 233.519 204.038 231.938C204.606 230.401 205.731 229.444 207.145 228.798C209.015 227.952 210.518 228.742 210.964 230.858C211.454 233.207 211.966 235.567 211.888 237.538L211.921 237.516ZM209.884 238.083C209.962 235.779 209.683 233.519 209.182 231.258C208.937 230.156 208.492 230.279 207.746 230.602C206.555 231.125 205.976 232.105 205.619 233.296C204.706 236.313 204.673 239.431 204.517 242.526C204.395 244.897 204.495 247.28 204.495 249.651C204.495 250.308 204.417 250.987 203.66 251.088C202.146 251.288 201.945 252.335 202.046 253.492C202.157 254.851 202.046 256.142 201.734 257.478C200.765 261.654 199.451 265.662 196.813 269.124C196.568 269.447 196.134 269.848 196.178 270.149C196.378 271.429 196.133 272.208 194.653 272.208C194.508 272.208 194.352 272.565 194.23 272.776C193.974 273.244 193.751 273.734 193.506 274.201C192.426 276.216 192.638 278.833 194.185 280.536C196.078 282.618 198.338 284.199 201.066 285.023C203.671 285.814 203.704 285.936 205.118 283.286C205.252 283.041 205.297 282.741 205.408 282.485C206.065 280.87 206.9 279.479 208.937 279.479C209.917 279.479 210.396 278.933 210.262 277.987C209.817 274.836 210.563 271.696 210.351 268.556C210.062 264.192 209.75 259.816 209.238 255.474C209.104 254.305 208.982 253.225 209.071 252.034C209.438 247.391 209.628 242.726 209.884 238.072V238.083ZM219.191 244.663C219.292 242.047 219.058 239.03 218.69 236.013C218.535 234.754 218.234 233.519 217.733 232.35C217.332 231.414 216.575 230.88 215.695 230.501C215.161 230.268 214.66 230.245 214.549 231.069C214.393 232.205 214.092 233.318 213.981 234.454C213.658 237.649 213.792 240.833 214.226 244.007C214.66 247.202 213.959 250.486 214.927 253.648C214.972 253.793 214.949 253.994 214.883 254.127C214.215 255.374 214.359 256.755 214.192 258.08C213.313 264.749 213.313 271.451 213.469 278.154C213.491 279.044 213.858 279.479 214.682 279.479C216.831 279.479 217.688 280.915 218.356 282.618C218.624 283.297 218.947 283.965 219.314 284.6C219.737 285.324 220.283 285.613 221.24 285.435C223.912 284.934 226.039 283.476 228.154 281.928C230.147 280.47 230.915 278.454 230.96 276.083C230.971 275.27 230.715 274.725 229.757 274.558C228.811 274.39 228.098 273.166 228.488 272.398C228.878 271.652 228.51 271.284 228.143 270.794C226.751 268.968 225.337 267.154 224.447 265.027C222.81 261.13 221.407 257.189 221.619 252.847C221.652 252.101 221.44 251.344 220.483 251.221C219.459 251.088 219.147 250.453 219.169 249.507C219.203 248.037 219.169 246.556 219.169 244.663H219.191ZM211.854 261.809C212.968 254.695 212.745 247.681 211.854 240.666C210.986 247.681 210.719 254.695 211.854 261.809Z" fill="black"/>
<path d="M303.807 163.577C304.308 164.579 305.243 165.047 305.789 165.87C306.613 167.106 306.357 167.763 304.909 167.986C303.941 168.142 302.961 168.22 301.992 168.331C301.547 168.387 301.135 168.32 301.046 167.797C300.968 167.307 301.28 167.073 301.736 166.95C302.549 166.717 303.395 166.672 304.453 166.661C303.718 165.815 303.184 165.113 302.549 164.512C301.97 163.955 302.014 163.532 302.326 162.82C302.46 162.508 301.235 162.23 301.28 161.395C301.324 160.582 302.371 159.346 303.762 158.6C301.992 157.643 300.578 156.373 299.331 154.926C298.73 154.225 297.951 153.467 299.142 152.577C299.242 152.499 299.298 152.276 299.276 152.131C298.663 148.847 299.075 145.329 297.728 142.245C295.835 137.925 293.085 134.317 288.209 132.814C285.915 132.102 283.733 130.799 282.441 128.739C281.239 126.836 280.337 124.653 280.56 122.249C280.727 120.467 280.003 118.875 279.558 117.227C279.179 115.847 278.734 114.488 278.333 113.119C277.955 111.861 278.812 110.001 280.037 109.534C280.961 109.178 281.74 109.679 282.375 110.269C284.557 112.25 286.739 114.243 288.131 116.915C289.088 118.753 290.413 120.3 292.016 121.614C293.063 122.471 293.931 123.495 294.644 124.676C297.227 129.007 300.077 133.171 303.662 136.722C306.947 139.973 310.855 142.245 315.442 143.425C319.094 144.371 322.779 144.527 326.486 144.728C329.593 144.895 332.565 144.071 335.494 143.191C337.219 142.668 337.275 142.501 337.164 140.641C337.03 138.47 336.228 136.489 335.126 134.651C331.675 128.895 326.976 124.564 320.586 122.215C319.305 121.747 317.98 121.514 316.622 121.536C315.876 121.536 315.408 121.358 315.264 120.489C315.13 119.721 314.629 119.242 313.716 119.254C309.452 119.343 305.677 117.684 301.925 115.913C299.12 114.589 296.125 113.687 293.33 112.306C290.691 111.003 288.086 109.634 285.614 108.02C284.356 107.196 282.931 106.661 281.573 106.016C280.181 105.348 278.979 104.234 278.211 102.798C277.999 102.397 277.732 102.03 277.543 101.629C277.175 100.838 276.552 100.627 275.817 100.95C273.701 101.874 272.12 100.972 270.272 99.9031C266.442 97.6764 262.557 95.4162 257.969 94.9932C256.188 94.8262 254.418 94.5144 252.636 94.3029C252.269 94.2583 251.857 94.1247 251.623 94.6926C251.278 95.5387 250.688 95.316 250.421 94.6926C250.098 93.9466 249.486 93.7796 248.873 93.4901C247.281 92.7442 245.689 91.9871 244.164 91.1186C242.393 90.1055 240.49 89.5599 238.497 89.2593C233.509 88.5022 228.476 88.3018 223.444 88.3463C223.076 88.3463 222.709 88.3797 222.353 88.4577C221.796 88.569 221.317 88.4577 221.217 87.8565C221.083 87.0994 221.696 86.9658 222.241 86.9658C224.457 86.9435 226.661 86.9324 228.877 86.988C232.195 87.066 235.479 87.4445 238.775 87.8342C241.57 88.1682 244.03 89.3372 246.435 90.6399C248.172 91.5863 249.931 92.1207 251.913 92.4769C254.551 92.9557 257.212 93.3676 259.851 93.8687C264.227 94.7148 268.023 96.8636 271.742 99.1683C272.8 99.8252 273.757 100.248 275.049 99.725C276.964 98.9456 277.954 99.3019 278.901 101.117C279.825 102.887 281.094 103.956 283.031 104.613C286.104 105.648 288.609 107.83 291.504 109.278C293.553 110.302 295.613 111.304 297.739 112.161C300.578 113.308 303.451 114.399 306.212 115.713C308.806 116.949 311.512 117.272 314.306 117.361C315.52 117.394 316.499 117.773 316.6 119.176C316.633 119.599 316.845 119.61 317.156 119.632C323.291 120.1 327.945 123.395 332.12 127.548C335.237 130.643 337.709 134.184 338.8 138.526C339.346 140.686 339.39 142.824 338.188 144.828C337.865 145.362 337.442 145.507 336.841 145.685C335.026 146.186 333.111 146.364 331.441 147.388C330.461 147.99 329.248 148.023 328.134 148.201C325.373 148.635 322.634 148.747 319.884 147.878C317.39 147.099 314.818 146.587 312.291 145.919C311.667 145.752 311.345 145.919 310.977 146.409C308.617 149.66 305.232 151.586 301.77 153.39C301.536 153.512 301.246 153.512 300.957 153.579C301.179 154.147 301.669 154.392 302.07 154.726C302.772 155.316 303.618 155.705 303.885 156.763C304.03 157.32 304.798 157.531 305.332 157.821C306.167 158.266 306.312 158.767 305.477 159.368C305.243 159.535 304.954 159.669 304.809 159.903C304.575 160.27 303.406 159.847 304.007 161.027C304.252 161.506 304.163 162.141 304.854 162.352C304.887 162.363 304.932 162.386 304.954 162.419C305.444 162.909 306.512 163.31 306.023 164.089C305.366 165.113 304.842 163.866 304.252 163.655C304.186 163.633 304.096 163.633 303.874 163.599L303.807 163.577Z" fill="black"/>
<path d="M132.905 207.076C131.903 207.254 131.569 206.764 131.625 205.829C131.658 205.172 131.602 204.526 131.781 203.881C131.959 203.213 132.215 202.545 131.335 202.099C131.035 201.943 131.135 201.509 131.168 201.186C131.291 199.928 131.012 198.648 131.38 197.401C131.48 197.045 131.402 196.811 130.89 196.822C129.91 196.844 129.498 196.154 129.743 195.352C130.3 193.471 129.676 191.467 130.4 189.618C130.589 189.128 130.734 188.605 130.845 188.093C130.968 187.581 131.335 187.013 130.522 186.668C130.177 186.523 130.244 186.122 130.311 185.788C130.5 184.697 130.667 183.606 130.868 182.404C130.277 182.493 129.721 182.37 129.353 181.825C128.919 181.19 129.465 180.7 129.565 180.121C129.888 178.384 130.957 176.781 130.556 174.911C130.467 174.911 130.355 174.855 130.322 174.888C129.843 175.311 129.498 176.247 128.663 175.59C127.939 175.022 128.529 174.376 128.886 173.864C131.524 170.157 132.137 165.725 133.35 161.506C133.495 160.994 133.417 160.749 132.816 160.782C131.68 160.86 130.556 159.836 129.409 160.737C127.817 159.513 127.283 161.25 126.537 161.906C124.232 163.966 121.716 165.659 119.021 167.173C116.628 168.52 114.078 169.433 111.617 170.546C108.199 172.094 104.904 172.617 101.296 172.116C100.228 171.971 99.1699 172.027 98.1567 172.751C97.2103 173.419 96.5646 172.873 96.4866 171.582C96.1972 167.073 96.8652 162.708 98.3237 158.422C99.3591 155.36 100.617 152.387 101.742 149.359C102.911 146.197 105.382 143.836 107.041 140.986C109.502 136.778 113.12 133.749 116.717 130.665C119.923 127.904 123.608 125.867 127.372 123.963C130.511 122.382 133.707 120.812 137.08 119.955C139.207 119.42 140.253 118.051 141.567 116.692C142.948 115.256 144.25 113.697 146.143 112.862C146.31 112.785 146.444 112.595 146.544 112.428C148.37 109.444 151.075 107.296 153.603 104.958C154.605 104.033 155.696 103.187 156.252 101.818C156.631 100.883 157.477 100.549 158.357 101.217C159.125 101.796 159.682 101.684 159.971 100.849C160.494 99.335 161.663 98.7115 163.044 98.1325C165.07 97.2752 166.996 96.173 168.967 95.1821C172.786 93.256 176.894 92.1649 180.992 91.0404C183.096 90.4614 185.278 90.3278 187.36 89.4816C189.219 88.7245 191.368 88.8136 193.395 89.2144C193.806 89.2924 194.129 89.1588 194.452 89.0363C195.521 88.6243 196.601 88.2235 197.625 87.7225C200.531 86.2974 203.526 86.598 206.499 87.3106C208.525 87.8004 210.273 87.8116 211.676 85.9857C212.121 85.4067 212.834 85.1506 213.524 85.6962C214.359 86.3531 215.306 86.4755 216.308 86.3976C217.221 86.3308 218.1 86.5312 218.98 86.6982C219.392 86.7761 219.759 87.0322 219.637 87.5666C219.525 88.012 219.147 88.1456 218.768 88.0454C216.92 87.5555 214.883 88.3349 213.135 87.177C212.756 86.9209 212.533 87.2104 212.311 87.4442C210.652 89.2256 208.614 89.3258 206.421 88.7579C203.426 87.9675 200.464 87.7448 197.581 89.2144C196.924 89.5484 196.234 89.8045 195.543 90.0606C194.619 90.4169 193.751 90.5727 192.66 90.4503C191.09 90.261 189.286 90.1497 187.828 90.8399C185.779 91.8197 183.575 91.9199 181.448 92.4209C175.714 93.7681 170.281 95.839 165.171 98.7449C164.436 99.1568 163.567 99.502 163.055 100.27C163.011 100.337 162.933 100.437 162.877 100.426C161.407 100.148 161.374 101.528 160.795 102.252C160.038 103.187 159.292 103.41 158.112 102.786C157.499 102.464 157.087 102.185 157.299 103.232C157.388 103.666 157.154 103.866 156.831 104.122C153.948 106.416 151.187 108.832 148.771 111.627C148.425 112.027 148.147 112.484 147.846 112.929C147.657 113.208 147.446 113.441 147.936 113.697C148.604 114.054 148.359 114.466 147.891 114.822C146.811 115.635 145.731 116.448 144.64 117.238C143.538 118.017 142.758 119.042 142.146 120.222C141.534 121.402 140.242 122.003 138.94 121.691C138.561 121.602 138.227 121.524 137.871 121.658C132.938 123.517 128.151 125.622 123.553 128.249C119.611 130.498 116.538 133.727 112.998 136.41C112.207 137.011 111.584 137.769 111.061 138.615C109.48 141.153 107.631 143.502 105.883 145.93C105.093 147.032 104.325 148.145 103.835 149.414C101.797 154.58 99.5595 159.68 98.602 165.213C98.4016 166.393 98.3905 167.574 98.3571 168.765C98.346 169.388 98.5018 169.767 99.2255 169.756C100.25 169.733 101.352 170.101 102.131 169.021C102.354 168.709 102.788 168.709 103.167 168.776C105.883 169.288 108.455 168.654 110.938 167.64C116.783 165.247 121.682 161.45 126.214 157.119C130.289 153.233 133.918 148.969 137.058 144.304C140.821 138.704 144.005 132.825 145.33 126.112C145.798 123.751 145.943 121.402 145.174 119.075C144.941 118.351 144.952 117.717 145.753 117.483C146.611 117.238 146.9 117.951 147.089 118.585C147.913 121.413 147.657 124.263 147.078 127.091C146.934 127.771 146.755 128.439 146.577 129.118C146.455 129.552 146.277 129.942 146.722 130.342C147.145 130.721 146.822 131.166 146.7 131.589C146.522 132.213 145.954 132.814 146.499 133.538C146.566 133.627 146.522 133.872 146.455 133.994C144.306 138.058 143.137 142.489 141.523 146.753C140.843 148.546 139.763 150.094 138.606 151.563C136.691 153.99 136.167 156.796 135.789 159.769C135.444 162.508 136.167 165.313 135.143 167.997C134.909 168.609 134.831 169.31 134.419 169.811C132.393 172.205 133.083 175.367 132.014 178.028C131.825 178.485 132.103 178.563 132.526 178.518C133.072 178.462 133.517 178.685 133.584 179.286C133.64 179.887 133.195 179.954 132.716 180.077C132.048 180.255 131.502 180.678 131.213 181.391C132.794 181.591 132.738 181.569 132.27 183.172C132.103 183.729 131.346 184.653 132.816 184.831C133.284 184.886 133.183 185.465 133.05 185.877C132.794 186.69 132.571 187.525 132.304 188.338C132.092 188.995 131.625 189.618 132.638 190.119C133.028 190.309 132.716 190.888 132.593 191.255C132.248 192.257 131.881 193.237 131.458 194.395C132.415 194.05 133.439 193.148 133.996 194.384C134.62 195.742 132.872 194.94 132.582 195.675C133.473 196.12 134.152 196.532 132.927 197.523C132.371 197.969 132.66 198.993 132.66 199.872C133.005 199.783 133.306 199.65 133.584 199.661C134.319 199.694 134.72 200.028 134.208 200.752C133.618 201.598 133.473 202.533 133.417 203.636C134.419 203.413 135.566 202.578 136.223 203.647C137.002 204.905 135.789 205.907 135.21 206.954C135.31 206.998 135.377 207.065 135.455 207.054C136.078 207.043 136.824 206.664 137.214 207.443C137.648 208.312 136.824 208.668 136.356 209.136C134.92 210.572 133.918 212.198 133.918 214.302C133.918 214.669 133.807 214.959 133.417 215.025C132.983 215.103 132.738 214.836 132.593 214.458C132.337 213.845 132.526 213.244 132.671 212.654C132.916 211.652 133.339 210.728 133.918 209.704C133.317 209.781 133.172 210.26 132.849 210.494C132.449 210.784 132.025 210.906 131.602 210.594C131.157 210.271 131.246 209.871 131.402 209.392C131.691 208.457 132.582 207.956 132.916 207.076C133.773 206.575 134.23 205.751 134.642 204.883C133.662 205.283 133.161 206.085 132.95 207.098L132.905 207.076Z" fill="black"/>
<path d="M174.178 131.066C179.077 131.378 183.786 134.161 187.093 139.372C187.55 140.095 187.661 140.886 187.873 141.654C188.006 142.144 187.705 142.511 187.416 142.857C181.56 150.138 169.814 150.717 163.167 144.048C162.254 143.124 162.198 141.921 162.243 140.741C162.488 134.785 166.696 130.966 174.167 131.055L174.178 131.066ZM177.997 146.297C178.131 146.319 178.242 146.375 178.353 146.353C181.259 145.629 183.664 144.081 185.69 141.91C186.136 141.431 185.846 141.109 185.646 140.719C182.974 135.653 176.917 132.447 171.205 133.07C167.242 133.504 164.369 136.444 164.191 140.34C164.147 141.175 164.013 142.177 164.659 142.79C167.219 145.195 170.27 146.542 173.822 146.72C170.972 145.295 169.68 142.946 169.78 139.851C169.836 137.969 170.649 136.421 172.152 135.197C173.599 134.016 175.258 134.417 176.739 134.707C178.309 135.007 179.333 136.343 180.012 137.813C181.382 140.797 180.747 143.458 177.997 146.308V146.297Z" fill="black"/>
<path d="M149.004 246.968C149.405 246.924 149.806 246.823 150.207 246.834C150.585 246.834 150.964 246.99 150.997 247.447C151.031 247.825 150.764 248.037 150.396 248.093C149.695 248.204 149.617 248.883 149.316 249.328C148.492 250.553 147.991 251.923 147.479 253.637C148.849 252.546 150.173 252.101 151.554 251.822C152.255 251.678 152.868 251.744 153.235 252.457C153.547 253.058 153.391 253.437 152.801 253.882C152.411 254.172 152.333 254.817 151.71 255.029C151.432 255.129 151.342 255.697 151.498 256.031C151.643 256.365 151.999 256.165 152.267 256.12C152.923 256.02 153.514 256.12 153.87 256.732C154.204 257.311 153.959 257.812 153.614 258.313C153.18 258.948 152.723 259.571 152.033 260.106C152.723 260.306 153.135 259.861 153.636 259.772C154.861 259.549 155.54 260.173 155.184 261.331C154.972 262.021 154.916 262.778 154.36 263.346C154.193 263.513 153.87 263.825 154.182 264.081C155.095 264.815 154.438 265.227 153.692 265.784C154.649 265.762 155.462 266.185 156.007 265.216C156.097 265.049 156.486 264.893 156.653 264.96C157.778 265.394 159.08 264.882 160.138 265.929C161.251 267.031 161.964 266.786 162.888 265.45C163.178 265.038 163.478 264.648 164.024 264.615C164.391 264.593 164.792 264.537 164.981 264.971C165.171 265.417 164.903 265.617 164.536 265.806C163.411 266.408 163.434 267.955 162.287 268.556C162.153 268.623 162.12 268.913 162.276 268.968C162.532 269.057 162.844 269.08 163.111 269.035C165.438 268.657 167.642 267.922 169.613 266.597C170.459 266.029 171.495 265.339 172.252 266.062C172.975 266.764 172.029 267.688 171.606 268.456C171.238 269.135 170.871 269.803 170.415 270.627C171.751 270.449 172.808 269.959 173.911 269.57C174.311 269.425 174.846 269.113 175.08 269.714C175.313 270.304 174.746 270.449 174.345 270.638C172.797 271.407 171.138 271.852 169.468 272.275C169.134 272.364 168.834 272.42 168.566 272.141C168.243 271.807 168.388 271.473 168.511 271.117C168.934 269.926 170.025 269.102 170.359 267.677C168.377 268.89 166.362 269.759 164.202 270.204C162.899 270.483 161.53 270.861 160.416 269.659C160.183 269.403 159.982 269.558 159.793 269.737C159.114 270.371 158.424 271.006 157.689 271.685C158.334 271.841 158.835 271.485 159.37 271.451C159.949 271.429 160.506 271.551 160.561 272.219C160.606 272.821 160.094 272.832 159.615 272.899C156.798 273.322 154.66 274.58 153.569 277.408C152.556 280.035 150.986 282.418 150.04 285.09C149.405 286.871 148.904 288.675 148.837 290.568C148.826 291.002 148.726 291.403 148.303 291.592C147.858 291.781 147.512 291.625 147.279 291.202C147.223 291.091 147.134 290.913 147.067 290.913C144.996 291.046 145.965 289.644 146.132 288.864C146.945 285.09 148.403 281.516 150.04 278.053C152.244 273.388 154.015 271.251 159.581 267.387C159.08 267.053 158.668 267.009 158.045 267.176C156.965 267.454 155.84 266.831 154.716 267.12C153.313 267.476 152.1 266.541 150.741 266.463C149.951 266.419 149.906 265.506 150.095 264.982C150.43 264.058 149.817 263.19 150.129 262.299C150.251 261.965 149.895 262.099 149.75 262.021C148.826 261.564 148.726 261.086 149.483 260.362C150.251 259.627 151.086 258.97 151.877 258.258C152.01 258.135 152.066 257.935 152.155 257.757C151.81 257.59 151.543 257.69 151.265 257.768C150.519 257.979 150.196 257.59 150.107 256.91C149.962 255.797 150.107 254.717 150.719 253.526C149.583 253.815 148.759 254.183 148.381 255.207C148.292 255.441 148.192 255.664 148.069 255.875C147.746 256.465 147.234 256.61 146.611 256.476C145.998 256.343 145.931 255.864 145.898 255.352C145.742 252.891 146.867 250.843 147.947 248.783C148.281 248.148 148.871 247.658 149.027 246.912L148.993 246.946L149.004 246.968Z" fill="black"/>
<path d="M239.132 144.939C236.772 144.983 233.276 143.714 230.459 140.719C230.192 140.441 230.013 140.151 229.991 139.761C229.613 133.783 232.585 128.305 238.542 126.802C242.205 125.878 245.679 126.657 248.996 128.316C251.023 129.329 252.76 130.743 254.43 132.268C255.554 133.282 255.543 134.484 255.331 135.72C254.875 138.437 253.16 140.34 250.978 141.843C247.928 143.948 244.498 144.894 239.132 144.939ZM240.19 143.001C243.786 142.99 246.614 142.278 249.197 140.719C251.323 139.427 252.993 137.757 253.539 135.197C253.673 134.595 253.583 134.139 253.105 133.671C250.767 131.411 248.139 129.697 244.977 128.828C238.531 127.036 233.142 130.376 232.006 136.8C231.661 138.748 232.251 140.129 233.888 141.175C235.992 142.523 238.319 143.001 240.19 143.013V143.001Z" fill="black"/>
<path d="M321.165 285.268C321.343 287.183 321.009 288.987 321.388 290.768C321.532 291.436 321.02 291.926 320.452 291.559C319.684 291.047 319.684 291.637 319.473 292.004C319.194 292.505 318.938 293.017 318.626 293.496C318.381 293.886 318.058 294.287 317.535 293.997C317.001 293.697 317.212 293.24 317.435 292.828C317.724 292.283 318.047 291.759 318.281 291.191C318.983 289.455 319.417 287.718 318.37 285.914C317.992 285.257 318.315 284.667 319.061 284.812C319.829 284.968 319.74 284.623 319.762 284.144C319.851 281.761 319.573 279.412 319.317 277.052C318.994 274.135 318.727 271.218 318.504 268.289C318.337 266.018 317.424 263.936 317.023 261.732C316.466 258.681 315.197 256.009 313.226 253.637C312.113 252.301 311.679 250.598 311.044 249.006C309.14 244.285 306.747 239.854 303.039 236.235C302.015 235.233 301.08 234.142 300.345 232.906C300.044 232.405 299.833 231.882 300.434 231.515C301.013 231.158 301.325 231.648 301.581 232.071C303.173 234.677 305.656 236.547 307.359 239.052C309.385 242.025 311.311 245.087 312.369 248.538C313.249 251.4 315.141 253.593 316.656 256.042C316.979 256.566 317.257 257.111 317.435 257.701C318.983 262.956 320.252 268.256 320.452 273.778C320.597 277.653 321.521 281.472 321.187 285.257L321.165 285.268Z" fill="black"/>
<path d="M281.373 235.177C281.295 235.79 281.407 236.157 281.93 236.358C282.208 236.469 282.364 236.747 282.253 237.07C282.13 237.437 281.819 237.616 281.473 237.515C279.258 236.859 276.897 236.614 274.96 235.177C274.593 234.899 274.314 234.509 274.559 234.008C274.782 233.563 275.172 233.619 275.606 233.641C276.252 233.663 276.886 233.663 277.354 232.939C277.755 232.316 278.556 232.528 279.169 232.739C280.204 233.095 281.228 233.53 282.242 233.953C282.531 234.075 282.843 234.153 283.021 233.886C283.255 233.518 282.798 233.452 282.642 233.262C282.375 232.951 282.075 232.683 281.796 232.372C281.485 232.027 281.373 231.615 281.707 231.269C282.03 230.935 282.453 230.98 282.821 231.269C283.143 231.525 283.433 231.826 283.767 232.049C284.557 232.561 285.058 233.429 286.227 233.452C288.176 233.485 289.98 233.184 291.572 232.049C291.973 231.759 292.496 231.392 291.828 230.802C291.583 230.59 291.583 230.178 291.85 230.045C292.707 229.61 293.353 228.72 294.4 228.72C297.116 228.72 299.532 227.963 301.648 226.215C302.36 225.625 303.218 225.202 304.119 224.611C303.173 224.11 302.249 224.166 301.369 224.144C300.991 224.133 300.635 224.11 300.323 223.899C299.933 223.621 299.432 223.342 299.722 222.73C299.967 222.207 300.445 222.307 300.891 222.418C302.238 222.774 303.607 222.964 304.988 223.064C305.622 223.108 306.402 223.197 306.547 223.988C306.68 224.689 306.079 225.09 305.556 225.413C303.863 226.482 302.16 227.528 300.534 228.698C299.454 229.477 298.141 229.7 296.838 229.889C296.437 229.944 296.014 229.889 295.569 230.245C296.304 230.446 296.96 230.613 297.617 230.813C298.04 230.947 298.374 231.225 298.252 231.715C298.118 232.238 297.673 232.205 297.25 232.104C297.094 232.071 296.938 231.993 296.782 231.96C295.212 231.559 293.787 231.303 292.585 232.984C291.906 233.93 290.547 234.287 289.356 234.61C288.477 234.854 287.541 234.788 286.695 235.355C285.994 235.823 285.448 234.977 284.847 234.71C284.424 234.532 284.168 234.031 283.811 234.877C283.477 235.678 282.887 235.667 281.373 235.155V235.177Z" fill="black"/>
<path d="M136.858 213.6C137.949 213.856 138.094 214.513 137.648 215.204C137.203 215.916 137.27 216.25 137.993 216.718C140.031 218.02 139.786 220.114 139.663 222.118C139.63 222.641 139.374 223.131 139.953 223.532C140.187 223.699 140.176 224.033 140.053 224.322C139.508 225.669 139.53 227.217 138.517 228.408C139.029 228.742 139.363 228.375 139.697 228.241C140.587 227.874 141.311 227.907 141.924 228.753C142.113 229.021 142.413 229.199 142.28 229.577C142.146 229.956 141.79 230.011 141.467 230C139.552 229.956 137.849 230.435 136.479 231.871C136.167 232.194 135.789 232.093 135.51 231.782C135.221 231.47 135.221 231.091 135.466 230.769C135.967 230.134 136.891 229.588 135.466 228.898C135.043 228.698 135.332 228.085 135.622 227.707C136.357 226.76 136.802 225.658 137.348 224.612C138.071 223.242 138.372 221.784 138.294 220.236C138.249 219.401 138.116 218.688 137.114 218.521C136.924 218.488 136.713 218.354 136.602 218.21C136 217.419 135.466 217.653 134.976 218.332C134.653 217.876 135.087 217.519 135.021 217.041C134.531 217.408 134.531 217.976 134.264 218.377C134.097 218.622 133.852 218.822 133.54 218.666C133.239 218.51 133.184 218.143 133.362 217.92C134.52 216.562 134.397 214.669 135.343 213.233C135.588 212.854 135.8 212.442 136.112 212.142C136.468 211.797 136.958 211.863 137.381 212.042C137.704 212.175 137.915 212.442 137.893 212.799C137.86 213.333 137.359 213.333 136.835 213.567L136.858 213.6Z" fill="black"/>
<path d="M193.984 140.875C194.162 139.773 194.964 139.105 195.844 138.592C198.404 137.112 201.132 136.098 204.06 135.497C207.579 134.762 210.685 135.609 213.669 137.379C214.047 137.602 214.392 137.924 214.715 138.225C215.127 138.604 215.261 139.06 214.916 139.539C214.515 140.073 213.947 140.04 213.513 139.661C212.633 138.871 211.509 138.559 210.518 138.013C210.162 137.813 209.772 137.624 209.36 137.657C206.755 137.858 204.116 137.635 201.544 138.258C199.273 138.804 197.246 139.784 195.855 141.777C195.543 142.222 195.142 142.311 194.675 142.111C194.174 141.888 193.973 141.454 193.984 140.886V140.875Z" fill="black"/>
<path d="M305.066 204.014C306.335 204.204 307.626 204.271 308.884 203.981C309.642 203.803 310.143 204.137 310.677 204.504C310.966 204.705 311.145 204.994 310.9 205.339C309.341 207.51 307.637 209.515 305.11 210.606C304.81 210.739 304.498 210.839 304.186 210.917C303.774 211.029 303.318 211.096 303.128 210.606C302.906 210.038 303.329 209.759 303.785 209.637C305.21 209.225 306.301 208.301 307.393 207.377C308.016 206.854 308.562 206.263 308.84 205.395C307.381 205.473 305.99 205.64 304.62 205.317C303.473 205.061 303.841 204.861 303.997 203.859C304.353 201.61 306.613 202.2 307.626 200.964C306.513 200.674 305.444 200.418 304.398 200.118C303.885 199.973 303.284 199.739 303.551 199.038C303.785 198.425 304.353 198.626 304.832 198.737C306.658 199.182 308.473 199.628 310.287 200.107C310.788 200.24 311.456 200.351 311.467 200.997C311.479 201.765 310.733 201.543 310.276 201.71C308.517 202.344 306.791 203.035 305.043 203.692C305.054 203.792 305.066 203.892 305.088 203.992L305.066 204.014Z" fill="black"/>
<path d="M159.805 133.861C159.036 133.861 158.424 133.916 157.878 133.516C157.589 133.304 157.422 133.037 157.556 132.669C157.678 132.358 157.945 132.224 158.246 132.28C160.929 132.859 163.211 131.634 165.483 130.576C168.912 128.984 172.052 126.924 174.824 124.33C175.447 123.74 176.026 123.106 176.527 122.404C176.806 122.003 177.129 121.514 177.708 121.914C178.331 122.349 177.986 122.85 177.663 123.295C176.683 124.62 175.525 125.767 174.223 126.78C170.604 129.63 166.707 132.001 162.276 133.404C161.419 133.672 160.539 133.883 159.782 133.861H159.805Z" fill="black"/>
<path d="M174.946 153.757C173.654 153.823 172.418 153.545 171.171 153.256C170.737 153.155 170.325 152.955 169.858 153.133C169.379 153.3 168.967 153.167 168.7 152.71C168.455 152.287 168.421 151.842 168.677 151.43C168.967 150.973 169.401 150.751 169.935 150.884C170.693 151.073 171.416 151.341 172.173 151.519C176.259 152.465 179.822 151.185 183.151 148.902C183.385 148.746 183.608 148.546 183.864 148.424C184.175 148.279 184.509 148.312 184.777 148.557C185.088 148.847 185.133 149.225 184.944 149.57C184.799 149.849 184.565 150.116 184.309 150.305C181.515 152.365 178.442 153.668 174.934 153.768L174.946 153.757Z" fill="black"/>
<path d="M149.038 246.935C148.058 247.068 147.245 247.614 146.444 248.126C145.898 248.482 145.341 248.772 144.774 248.293C144.15 247.781 144.618 247.269 144.885 246.779C145.341 245.933 145.831 245.098 146.633 244.296C145.609 244.084 144.84 244.162 144.061 244.43C142.981 244.808 142.38 244.463 142.28 243.372C142.079 241.223 142.402 239.141 143.204 237.126C143.326 236.814 143.504 236.536 143.794 236.369C144.094 236.191 144.428 236.18 144.707 236.413C145.007 236.681 144.941 236.981 144.74 237.293C143.838 238.729 143.638 240.321 143.616 241.98C143.616 242.67 143.682 243.038 144.562 242.849C145.564 242.626 146.599 242.771 147.613 242.893C148.214 242.96 148.759 243.205 148.904 243.84C149.049 244.43 148.459 244.508 148.136 244.786C147.746 245.12 147.434 245.543 147.178 246.077C147.913 245.777 148.648 245.465 149.394 245.176C149.806 245.009 150.307 244.752 150.552 245.331C150.786 245.888 150.296 246.1 149.906 246.345C149.606 246.534 149.205 246.59 149.004 246.935L149.038 246.912V246.935Z" fill="black"/>
<path d="M262.79 292.605C262.323 292.605 262.022 292.505 261.911 292.126C261.777 291.625 262.1 291.369 262.479 291.18C264.182 290.3 265.874 289.387 267.6 288.564C271.976 286.47 274.503 282.718 276.641 278.61C276.83 278.254 276.919 277.842 277.287 277.597C277.687 277.33 278.055 277.363 278.389 277.719C278.667 278.02 278.778 278.387 278.489 278.71C277.465 279.879 276.696 281.249 275.973 282.585C273.813 286.604 270.25 288.864 266.409 290.868C265.396 291.403 264.293 291.737 263.358 292.416C263.169 292.549 262.913 292.583 262.79 292.616V292.605Z" fill="black"/>
<path d="M263.403 132.848C258.983 132.469 255.131 130.476 251.757 127.448C250.009 125.878 248.484 124.13 247.86 121.77C247.704 121.191 247.537 120.545 248.295 120.356C249.029 120.177 249.085 120.834 249.23 121.358C249.775 123.317 250.989 124.854 252.459 126.19C255.197 128.672 258.315 130.487 261.989 131.222C262.802 131.389 263.615 131.367 264.427 131.333C264.917 131.311 265.507 131.233 265.563 131.923C265.619 132.58 265.017 132.658 264.55 132.759C264.227 132.825 263.904 132.814 263.392 132.848H263.403Z" fill="black"/>
<path d="M302.182 174.031C302.104 172.784 301.436 171.771 301.125 170.647C300.98 170.123 300.702 169.411 301.514 169.222C302.249 169.043 302.372 169.689 302.572 170.268C303.296 172.35 303.93 174.454 304.476 176.592C304.598 177.071 304.743 177.483 304.309 177.95C303.763 178.518 304.376 179.019 304.643 179.442C305.5 180.801 306.202 182.226 306.736 183.729C306.847 184.029 306.903 184.363 306.925 184.675C306.948 185.176 306.769 185.599 306.213 185.633C305.701 185.666 305.545 185.288 305.5 184.831C305.367 183.629 304.788 182.571 304.198 181.558C303.017 179.543 302.082 177.416 301.002 175.356C300.757 174.9 300.267 174.466 300.679 173.92C301.18 173.274 301.67 173.987 302.205 174.054L302.182 174.031Z" fill="black"/>
<path d="M309.63 198.358C306.713 197.757 304.263 196.31 302.549 193.804C301.769 192.669 300.701 191.533 301.469 189.908C301.536 189.774 301.313 189.473 301.19 189.273C300.445 188.015 300.612 186.679 301.636 185.833C301.714 185.777 301.914 185.744 301.948 185.777C302.293 186.256 303.072 186.412 303.05 187.135C303.016 188.193 303.339 189.151 303.863 190.03C304.13 190.475 304.085 190.743 303.684 190.876C302.604 191.255 303.016 191.856 303.395 192.48C304.876 194.94 307.103 196.321 309.841 196.944C310.309 197.056 310.788 197.111 310.721 197.712C310.665 198.302 310.131 198.291 309.63 198.358Z" fill="black"/>
<path d="M263.248 183.116C263.225 187.625 261.867 191.723 259.529 195.53C259.251 195.976 258.928 196.599 258.304 196.232C257.581 195.809 258.082 195.241 258.382 194.773C260.397 191.478 261.244 187.837 261.433 184.029C261.5 182.738 261.923 181.457 261.622 180.144C261.544 179.81 261.733 179.476 262.112 179.398C262.535 179.32 262.791 179.576 262.936 179.965C263.326 180.99 263.081 182.081 263.248 183.127V183.116Z" fill="black"/>
<path d="M163.945 185.076C163.3 187.069 163.277 189.24 163.366 191.4C163.467 193.816 163.7 196.221 165.092 198.325C165.304 198.648 165.448 199.004 165.17 199.338C164.881 199.683 164.502 199.572 164.157 199.394C162.375 198.492 161.797 196.867 161.685 195.052C161.529 192.513 161.73 189.986 162.019 187.47C162.131 186.535 162.208 185.599 162.543 184.709C162.698 184.297 162.954 183.963 163.444 184.085C163.879 184.196 163.945 184.575 163.945 185.076Z" fill="black"/>
<path d="M239.655 150.094C237.294 150.327 234.711 149.248 232.106 148.29C231.727 148.145 231.349 147.967 230.959 147.878C230.302 147.722 229.89 147.355 230.068 146.664C230.258 145.941 230.837 145.718 231.516 145.952C232.707 146.375 233.843 146.921 235.045 147.344C237.74 148.29 240.467 148.479 243.273 148.067C243.852 147.978 244.509 147.878 244.687 148.635C244.876 149.459 244.231 149.637 243.607 149.826C242.483 150.161 241.325 150.016 239.666 150.094H239.655Z" fill="black"/>
<path d="M183.486 238.54C184.733 238.54 185.98 238.551 187.215 238.54C187.728 238.54 188.184 238.473 188.396 239.108C188.629 239.809 189.22 239.408 189.654 239.408C190.099 239.408 190.511 239.419 190.578 239.954C190.622 240.399 190.244 240.7 189.888 240.655C189.064 240.566 187.95 241.702 187.427 240.099C187.316 239.753 186.837 239.954 186.525 239.943C185.067 239.876 183.586 240.143 182.138 239.776C181.938 239.731 181.615 239.776 181.559 239.653C180.747 238.161 179.288 238.852 178.108 238.595C177.551 238.473 177.017 238.261 176.483 238.072C175.982 237.894 175.759 237.493 175.959 237.014C176.149 236.547 176.572 236.547 176.995 236.736C179.099 237.66 181.214 237.348 183.33 236.781C183.764 236.669 184.254 236.424 184.488 236.992C184.733 237.571 184.243 237.76 183.831 237.972C183.697 238.039 183.564 238.128 183.43 238.217C183.441 238.317 183.463 238.428 183.475 238.529L183.486 238.54Z" fill="black"/>
<path d="M177.829 271.896C178.998 271.329 180.156 270.75 181.325 270.182C181.615 270.037 181.982 269.725 182.227 269.948C183.541 271.139 184.365 270.037 185.222 269.325C185.712 268.913 186.091 268.991 186.536 269.28C186.825 269.469 187.059 269.714 186.992 270.082C186.926 270.482 186.58 270.605 186.246 270.583C185.534 270.538 185.022 270.939 184.443 271.251C183.942 271.518 183.374 271.885 182.862 271.852C181.047 271.741 179.555 272.553 178.007 273.266C177.206 273.633 176.159 274.179 175.525 273.322C174.812 272.375 175.859 271.652 176.449 271.061C177.273 270.238 177.84 269.247 178.553 268.356C178.809 268.033 179.065 267.699 179.555 267.799C179.989 267.888 180.145 268.222 180.19 268.601C180.245 269.057 180.078 269.38 179.644 269.581C178.687 270.015 178.508 271.15 177.829 271.908V271.896Z" fill="black"/>
<path d="M306.947 213.144C306.312 212.955 305.767 213.177 305.243 213.289C304.553 213.422 303.874 213.534 303.184 213.511C302.694 213.5 302.081 213.545 302.07 212.866C302.07 212.198 302.66 212.242 303.161 212.186C304.497 212.042 305.822 211.852 307.158 211.685C308.372 211.541 308.806 212.053 308.517 213.233C308.172 214.647 306.902 215.137 305.878 215.805C304.208 216.896 302.46 217.865 300.734 218.878C300.278 219.145 299.743 219.535 299.376 218.867C299.053 218.288 299.588 217.987 299.999 217.731C302.104 216.417 304.219 215.092 306.335 213.79C306.568 213.645 306.824 213.534 306.958 213.155L306.947 213.144Z" fill="black"/>
<path d="M242.382 236.146C241.47 235.979 240.534 236.247 239.588 236.525C237.261 237.204 234.901 237.059 232.54 236.67C232.34 236.636 232.139 236.581 231.95 236.503C231.516 236.313 231.104 236.046 231.249 235.501C231.405 234.922 231.906 234.944 232.351 235.089C233.81 235.567 235.324 235.59 236.838 235.567C237.317 235.567 237.84 235.668 237.851 234.899C237.851 234.521 238.218 234.309 238.564 234.376C239.61 234.588 240.69 234.398 241.703 234.621C242.65 234.822 243.552 234.944 244.464 234.677C244.932 234.543 245.199 234.732 245.333 235.1C245.467 235.478 245.199 235.712 244.888 235.868C244.119 236.28 243.284 236.046 242.394 236.158L242.382 236.146Z" fill="black"/>
<path d="M140.031 235.3C139.173 235.3 138.316 235.3 137.459 235.3C137.025 235.3 136.646 235.178 136.446 234.755C136.245 234.343 136.468 234.009 136.746 233.775C138.071 232.684 139.396 231.604 140.754 230.568C141.166 230.246 141.701 230.19 142.035 230.724C142.335 231.214 142.347 231.737 141.89 232.172C141.745 232.316 141.512 232.394 141.434 232.55C141.244 232.906 140.866 233.274 141.022 233.652C141.178 234.031 141.667 233.797 142.001 233.853C142.324 233.908 142.647 233.92 142.959 234.009C143.349 234.12 143.594 234.398 143.493 234.844C143.404 235.233 143.081 235.311 142.736 235.3C141.834 235.3 140.944 235.3 140.042 235.3C140.042 235.3 140.042 235.289 140.042 235.278L140.031 235.3Z" fill="black"/>
<path d="M228.777 239.72C229.133 240.221 229.456 240.566 229.122 240.989C228.799 241.39 228.365 241.245 228.009 241.034C226.795 240.299 225.37 239.909 224.301 238.907C223.889 238.518 223.266 238.128 223.756 237.504C224.257 236.87 224.758 237.382 225.214 237.749C225.615 238.083 226.038 238.395 226.55 238.685C226.328 238.184 225.793 237.683 226.428 237.204C226.996 236.77 227.441 237.282 227.853 237.549C228.499 237.983 229.133 238.406 229.913 238.607C230.358 238.718 230.993 238.852 230.815 239.52C230.648 240.165 230.069 240.01 229.579 239.898C229.389 239.854 229.189 239.809 228.777 239.72Z" fill="black"/>
<path d="M158.379 225.558C156.364 225.758 154.671 225.213 152.934 225.58C151.999 225.781 152.033 224.768 151.966 224.189C151.877 223.509 152.433 223.565 152.901 223.654C155.117 224.066 157.354 224.255 159.604 224.267C160.093 224.267 160.695 224.267 160.683 224.946C160.683 225.569 160.105 225.525 159.659 225.547C159.125 225.569 158.59 225.547 158.368 225.547L158.379 225.558Z" fill="black"/>
<path d="M305.745 187.08C305.745 187.381 305.667 187.648 305.366 187.781C305.055 187.915 304.787 187.781 304.62 187.536C303.719 186.1 302.961 184.564 301.881 183.228C301.614 182.905 301.759 182.515 302.115 182.281C302.527 182.003 303.095 181.947 303.329 182.359C304.175 183.818 304.921 185.343 305.711 186.846C305.745 186.913 305.734 187.002 305.745 187.08Z" fill="black"/>
<path d="M252.848 251.344C251.98 251.277 250.966 251.021 249.875 251.255C249.23 251.389 248.383 250.977 248.439 250.108C248.484 249.184 249.33 249.273 249.964 249.373C251.044 249.552 252.113 249.83 253.193 250.053C253.661 250.142 254.151 250.242 254.095 250.832C254.028 251.467 253.483 251.344 252.859 251.344H252.848Z" fill="black"/>
<path d="M163.712 232.105C162.988 232.072 162.254 232.06 161.53 231.971C161.151 231.927 160.873 231.648 160.918 231.203C160.962 230.769 161.274 230.557 161.675 230.568C162.844 230.602 164.024 230.635 165.193 230.735C165.672 230.78 166.273 230.936 166.206 231.559C166.139 232.239 165.538 232.105 165.048 232.083C164.603 232.06 164.157 232.083 163.712 232.083V232.127V232.105Z" fill="black"/>
<path d="M244.788 234.443C243.997 234.353 243.251 234.443 242.561 234.097C242.082 233.852 241.715 233.53 241.949 232.951C242.183 232.394 242.75 232.249 243.173 232.516C244.031 233.062 244.944 233.029 245.879 233.062C246.347 233.073 246.848 233.129 246.825 233.752C246.814 234.287 246.358 234.342 245.924 234.365C245.512 234.387 245.111 234.42 244.777 234.443H244.788Z" fill="black"/>
<path d="M257.569 247.146C256.556 247.024 255.665 246.979 254.796 246.79C254.184 246.656 253.382 246.4 253.594 245.565C253.817 244.697 254.54 245.131 255.108 245.276C255.932 245.487 256.756 245.699 257.591 245.866C258.047 245.955 258.548 245.999 258.493 246.601C258.426 247.235 257.88 247.113 257.569 247.146Z" fill="black"/>
<path d="M158.456 227.261C159.414 227.529 160.449 227.796 161.463 228.096C161.875 228.219 162.253 228.453 162.086 228.976C161.941 229.41 161.552 229.477 161.173 229.366C160.115 229.043 158.969 229.21 157.955 228.709C157.566 228.52 157.221 228.263 157.399 227.762C157.555 227.295 157.967 227.217 158.468 227.273L158.456 227.261Z" fill="black"/>
<path d="M288.877 162.174C288.81 162.741 288.443 162.908 287.93 162.73C287.274 162.496 286.661 162.541 286.049 162.875C285.503 163.164 284.969 162.942 284.568 162.597C284.067 162.162 284.078 161.528 284.746 161.361C285.893 161.071 287.095 161.116 288.264 161.439C288.576 161.528 288.832 161.773 288.888 162.174H288.877Z" fill="black"/>
<path d="M250.867 229.923C251.167 229.845 251.446 229.889 251.579 230.201C251.735 230.568 251.568 230.847 251.245 231.003C250.099 231.57 248.807 231.593 247.605 231.971C247.293 232.071 247.014 231.737 246.97 231.359C246.914 230.869 247.181 230.568 247.627 230.479C248.707 230.268 249.787 230.101 250.867 229.923Z" fill="black"/>
<path d="M222.287 238.562C222.387 238.585 222.498 238.562 222.543 238.618C223.344 239.609 224.358 240.344 225.315 241.168C225.515 241.346 225.46 241.635 225.282 241.836C225.104 242.036 224.859 242.114 224.614 242.003C223.433 241.49 222.387 240.767 221.73 239.631C221.441 239.13 221.674 238.685 222.298 238.562H222.287Z" fill="black"/>
<path d="M140.03 182.793C139.785 182.793 139.54 182.793 139.295 182.793C138.839 182.782 138.371 182.793 138.148 182.27C137.993 181.892 138.059 181.535 138.393 181.279C138.805 180.967 139.306 180.789 139.763 181.068C140.164 181.301 140.52 181.524 140.999 181.502C141.444 181.48 141.867 181.613 141.889 182.125C141.9 182.66 141.455 182.749 141.021 182.771C140.698 182.782 140.364 182.771 140.041 182.771V182.793H140.03Z" fill="black"/>
<path d="M287.241 166.282C287.007 166.238 286.573 166.16 286.15 166.048C285.627 165.915 285.215 165.636 285.459 165.024C285.671 164.49 286.139 164.356 286.662 164.634C286.985 164.812 287.297 164.979 287.675 165.002C288.143 165.035 288.644 165.169 288.599 165.737C288.544 166.46 287.92 166.249 287.252 166.282H287.241Z" fill="black"/>
<path d="M140.733 236.046C141.2 236.068 141.735 236.046 141.768 236.647C141.812 237.248 141.267 237.293 140.822 237.36C140.376 237.426 139.942 237.493 139.497 237.549C139.085 237.605 138.617 237.649 138.495 237.115C138.361 236.514 138.829 236.358 139.285 236.269C139.764 236.18 140.243 236.113 140.721 236.046H140.733Z" fill="black"/>
<path d="M140.464 185.232C139.808 185.009 138.794 185.254 138.549 184.185C138.438 183.695 138.828 183.473 139.307 183.462C140.075 183.439 141.411 184.219 141.366 184.697C141.311 185.176 140.943 185.232 140.464 185.232Z" fill="black"/>
<path d="M166.707 234.331C166.173 234.031 165.159 234.298 165.137 233.24C165.137 232.773 165.605 232.517 166.017 232.684C166.64 232.94 167.587 232.906 167.665 233.83C167.709 234.354 167.175 234.365 166.696 234.331H166.707Z" fill="black"/>
<path d="M260.164 222.529C260.632 222.696 261.467 222.184 261.5 222.941C261.533 223.698 260.654 223.543 260.153 223.565C259.596 223.587 258.616 224.211 258.561 223.22C258.505 222.229 259.585 222.685 260.164 222.529Z" fill="black"/>
<path d="M154.304 267.599C154.861 267.755 155.451 267.844 155.473 268.534C155.484 268.98 155.15 269.214 154.738 269.169C154.204 269.113 153.647 268.957 153.602 268.278C153.58 267.811 153.981 267.711 154.304 267.599Z" fill="black"/>
<path d="M264.394 134.952C264.294 135.475 263.915 135.553 263.481 135.508C262.958 135.464 262.479 135.297 262.535 134.662C262.579 134.239 262.947 134.061 263.347 134.161C263.793 134.273 264.361 134.261 264.383 134.941L264.394 134.952Z" fill="black"/>
<path d="M247.204 135.108C247.181 137.769 246.48 139.628 244.787 141.02C242.884 142.601 240.178 142.434 238.452 140.674C235.992 138.169 236.081 133.438 238.642 131.01C240.98 128.795 244.342 129.196 246.124 131.912C246.847 133.037 247.237 134.273 247.204 135.108Z" fill="black"/>
<path d="M268.714 22.6014C269.115 22.5124 269.538 22.3008 269.928 22.3565C273.513 22.8798 277.053 23.5478 280.393 25.0286C280.627 25.1288 280.917 25.1733 281.095 25.3403C281.384 25.6075 281.607 25.9527 281.852 26.2644C281.44 26.3646 280.928 26.6652 280.616 26.5316C277.142 25.0508 273.49 24.2826 269.805 23.6257C269.404 23.5589 269.048 23.2027 268.669 22.98C268.681 22.8464 268.692 22.7239 268.714 22.5903V22.6014Z" fill="black"/>
<path d="M287.185 28.057C289.378 27.6227 297.483 32.0094 298.018 33.8465C297.06 34.0135 287.664 29.0479 287.185 28.057Z" fill="black"/>
<path d="M324.794 54.4773C324.516 53.9874 324.193 53.5198 323.971 53.0077C323.202 51.204 322.434 49.3892 321.744 47.541C321.599 47.1513 321.788 46.6392 321.833 46.1827C322.2 46.3831 322.768 46.4944 322.913 46.795C323.748 48.621 324.549 50.4692 325.229 52.3508C325.44 52.9297 325.262 53.6534 325.262 54.3214C325.106 54.3771 324.95 54.4328 324.794 54.4884V54.4773Z" fill="black"/>
<path d="M123.842 338.343C123.463 338.476 123.118 338.732 122.851 338.677C121.738 338.432 118.709 334.758 118.709 333.655C118.709 333.332 118.932 332.921 119.188 332.72C119.31 332.62 119.845 332.843 120.023 333.054C121.159 334.446 122.25 335.871 123.33 337.296C123.508 337.53 123.586 337.819 123.842 338.343Z" fill="black"/>
<path d="M314.663 44.9023C314.34 45.4033 314.229 45.7707 314.028 45.8375C313.828 45.9043 313.438 45.7373 313.282 45.548C313.049 45.2586 312.926 44.8689 312.77 44.5237C312.013 42.8982 311.245 41.2727 310.532 39.6249C310.388 39.302 310.488 38.8789 310.477 38.4893C310.855 38.5895 311.445 38.5783 311.579 38.8233C312.67 40.8385 313.672 42.9093 314.674 44.9023H314.663Z" fill="black"/>
<path d="M309.541 40.7939C309.385 41.0166 309.174 41.4731 309.096 41.4508C308.773 41.3618 308.361 41.1836 308.216 40.9164C307.548 39.6806 306.969 38.3891 306.335 37.1309C306.146 36.7524 305.812 36.4295 305.678 36.0398C305.578 35.7392 305.689 35.3607 305.711 35.0267C306.079 35.138 306.624 35.138 306.78 35.3941C307.582 36.6522 308.294 37.966 308.996 39.2798C309.23 39.7251 309.352 40.2373 309.564 40.7939H309.541Z" fill="black"/>
<path d="M317.836 48.4206C317.691 48.0977 317.569 47.7748 317.402 47.4742C316.678 46.0713 315.91 44.6796 315.253 43.2545C315.097 42.9205 315.308 42.4195 315.353 41.9964C315.72 42.2079 316.244 42.3304 316.433 42.6422C317.223 44.0116 317.958 45.4144 318.626 46.8396C318.782 47.1847 318.582 47.6969 318.548 48.1422C318.315 48.2424 318.081 48.3315 317.847 48.4317L317.836 48.4206Z" fill="black"/>
<path d="M303.162 348.875C303.685 348.474 304.164 348.018 304.731 347.695C308.951 345.301 313.249 343.03 317.402 340.514C321.666 337.931 325.808 335.158 329.949 332.386C335.004 329.013 338.957 324.448 343.087 320.072C343.51 319.627 344 319.248 344.457 318.836L344.935 319.126C344.679 319.66 344.523 320.273 344.156 320.696C339.736 325.817 335.093 330.683 329.459 334.524C322.534 339.256 315.398 343.642 307.96 347.517C306.891 348.074 305.778 348.519 304.654 348.953C304.242 349.109 303.774 349.109 303.329 349.187C303.273 349.076 303.217 348.975 303.162 348.864V348.875Z" fill="black"/>
<path d="M386.119 239.219C386.509 238.807 386.876 238.384 387.288 238.006C388.958 236.48 390.628 234.955 392.332 233.474C392.632 233.207 393.111 233.151 393.501 232.984C393.501 233.385 393.657 233.864 393.49 234.164C392.12 236.67 390.027 238.384 387.433 239.52C387.121 239.653 386.709 239.598 386.342 239.62C386.264 239.486 386.186 239.353 386.108 239.219H386.119Z" fill="black"/>
<path d="M382.278 256.243C382.077 256.12 381.721 256.009 381.643 255.797C381.565 255.586 381.721 255.241 381.855 254.996C381.955 254.829 382.166 254.706 382.345 254.595C384.026 253.571 385.696 252.524 387.41 251.544C387.756 251.344 388.268 251.433 388.702 251.388C388.568 251.834 388.579 252.479 388.29 252.691C386.609 253.86 384.861 254.929 383.113 256.009C382.901 256.142 382.623 256.142 382.278 256.243Z" fill="black"/>
<path d="M390.951 241.312C390.795 241.791 390.784 242.415 390.472 242.737C389.014 244.229 387.511 245.677 385.941 247.057C385.651 247.313 385.028 247.169 384.56 247.213C384.705 246.779 384.727 246.222 385.028 245.933C386.509 244.452 388.045 243.038 389.593 241.624C389.871 241.368 390.272 241.257 390.628 241.078C390.739 241.156 390.851 241.234 390.962 241.312H390.951Z" fill="black"/>
<path d="M389.782 229.8C390.038 229.421 390.25 229.021 390.539 228.687C391.853 227.161 393.167 225.625 394.536 224.144C394.826 223.821 395.338 223.71 395.75 223.498C395.716 223.933 395.85 224.489 395.627 224.768C394.291 226.438 392.888 228.063 391.441 229.644C391.129 229.978 390.517 230.045 390.038 230.234C389.949 230.089 389.849 229.945 389.76 229.8H389.782Z" fill="black"/>
<path d="M349.812 311.689C350.046 311.21 350.224 310.709 350.502 310.275C351.515 308.694 352.551 307.113 353.631 305.576C353.876 305.22 354.366 305.042 354.744 304.774C354.778 305.209 354.989 305.765 354.8 306.066C353.687 307.881 352.495 309.651 351.271 311.388C351.048 311.711 350.536 311.822 350.157 312.034C350.046 311.922 349.923 311.8 349.812 311.689Z" fill="black"/>
<path d="M396.551 217.72C396.629 219.713 392.543 224.1 390.951 223.732C391.129 222.574 395.538 217.854 396.551 217.72Z" fill="black"/>
<g style="mix-blend-mode:overlay" opacity="0.49">
<path d="M137.269 325.461C128.596 314.06 115.937 306.779 105.683 296.981C93.9256 285.747 84.9407 270.093 77.4589 255.753C73.5287 248.226 70.2442 240.255 68.8191 231.837C67.5944 224.656 69.2088 217.575 64.4324 211.552C63.3302 210.16 61.9941 208.891 61.07 207.354C59.7563 205.161 59.8565 202.879 59.6226 200.418C59.4 198.035 58.8767 195.53 56.9283 193.905C53.8665 191.344 50.1813 192.981 48.8007 196.365C47.7207 199.004 48.0992 202.066 48.2663 204.816C48.5669 209.704 48.9009 214.591 49.4798 219.457C50.1033 224.768 51.0497 229.989 52.4414 235.089C57.4293 257.579 67.2604 278.866 81.1998 297.215C81.634 298.083 82.0682 298.952 82.5024 299.809C82.8142 300.443 83.3486 300.666 83.8719 300.622C85.1857 302.258 86.5217 303.873 87.9023 305.454C97.3437 316.264 108.477 326.942 121.96 332.431C126.213 334.156 134.252 337.363 138.75 334.824C143.025 332.408 139.318 328.133 137.269 325.45V325.461Z" fill="white"/>
</g>
<g style="mix-blend-mode:overlay" opacity="0.49">
<path d="M74.1967 121.937C70.5337 116.37 66.0579 118.986 62.729 123.139C57.407 129.764 54.6236 137.546 53.1206 145.674C51.3614 150.817 50.6155 156.273 50.2369 161.762C49.8918 166.694 50.3371 173.608 56.2157 175.133C62.4284 176.748 66.1136 170.357 67.4608 165.414C69.7989 156.83 68.9861 147.689 72.1147 139.272C74.1299 133.838 77.9265 127.592 74.1967 121.937Z" fill="white"/>
</g>
<g style="mix-blend-mode:overlay" opacity="0.49">
<path d="M388.468 156.618C387.555 151.274 386.564 145.941 385.473 140.63C383.614 131.523 382.478 120.623 377.591 112.529C372.837 104.657 364.486 98.5223 357.906 92.254C353.453 88.0121 348.153 83.9037 344.601 78.8379C341.773 74.8075 340.905 69.7528 337.943 65.8114C334.147 60.779 326.509 58.7192 322.802 64.9875C322.456 65.5665 322.523 66.1343 322.802 66.5685C321.788 72.6698 330.116 76.0544 333.59 79.9067C340.426 87.4888 344.757 97.6873 349.567 106.605C359.988 125.934 369.775 145.607 380.129 164.968C382.055 168.553 387.6 172.973 389.404 166.616C390.272 163.543 388.98 159.624 388.468 156.629V156.618Z" fill="white"/>
</g>
<g style="mix-blend-mode:multiply" opacity="0.25">
<path d="M339.302 316.253C333.958 319.115 328.647 320.573 322.724 321.575C319.05 322.199 316.099 323.045 313.806 326.151C312.236 328.278 311.278 330.505 309.23 332.308C307.214 334.078 304.687 335.314 302.293 336.483C296.448 339.345 290.425 341.872 284.346 344.188C279.002 346.225 273.579 348.062 268.102 349.71C265.263 350.568 260.542 351.091 259.362 354.431C257.87 358.673 262.334 360.788 266.766 361.846C266.977 362.38 267.445 362.803 268.202 362.815C269.894 362.826 271.586 362.837 273.279 362.848C274.036 362.848 274.504 362.458 274.704 361.957C280.293 361.545 285.726 360.387 290.903 357.927C297.695 354.698 303.507 349.844 309.441 345.312C315.754 340.492 322.512 337.018 329.281 332.965C335.115 329.469 340.014 324.882 341.651 318.079C341.985 316.688 340.538 315.585 339.279 316.253H339.302Z" fill="#932A8E"/>
</g>
<path d="M247.783 56.2142C247.293 56.2142 246.769 56.3144 246.313 56.203C242.16 55.2233 237.985 54.4328 233.687 54.5886C233.409 54.5886 233.086 54.5664 232.841 54.4439C232.663 54.3548 232.485 54.1099 232.451 53.9095C232.429 53.787 232.663 53.5532 232.83 53.4975C233.142 53.3973 233.476 53.3751 233.799 53.3528C238.185 53.1079 242.438 53.8649 246.647 55.0117C247.081 55.1342 247.471 55.4237 247.883 55.6463C247.849 55.8356 247.816 56.0249 247.783 56.2142Z" fill="black"/>
<path d="M219.77 54.5218C220.728 53.4752 225.226 52.9742 226.461 53.7759C225.894 54.5107 220.906 55.0674 219.77 54.5218Z" fill="black"/>
<path d="M360.478 186.757C360.378 186.312 360.222 185.866 360.188 185.41C359.687 179.854 359.231 174.31 358.708 168.754C358.619 167.819 358.24 166.906 358.118 165.97C358.062 165.514 358.296 165.024 358.396 164.545C358.697 164.902 359.209 165.224 359.275 165.625C359.888 169.288 360.511 172.951 360.968 176.625C361.257 178.919 361.302 181.235 361.369 183.551C361.402 184.619 361.202 185.688 361.113 186.746C360.901 186.746 360.689 186.746 360.478 186.746V186.757Z" fill="black"/>
<path d="M358.218 160.326C358.051 160.571 357.928 160.927 357.75 160.971C357.539 161.016 357.149 160.838 357.06 160.637C356.603 159.669 356.191 158.678 355.835 157.665C355.768 157.475 355.969 157.063 356.147 156.963C356.303 156.874 356.77 157.03 356.848 157.197C357.338 158.199 357.75 159.223 358.218 160.314V160.326Z" fill="black"/>
<path d="M86.0653 179.732C86.1544 179.364 86.1655 179.142 86.2657 178.975C87.4348 176.937 88.5927 174.888 89.8174 172.884C90.0067 172.573 90.5411 172.484 90.9085 172.294C90.8862 172.706 90.9864 173.174 90.8083 173.508C89.7061 175.59 88.5704 177.65 87.3902 179.698C87.2121 180.01 86.789 180.177 86.4773 180.411C86.3214 180.155 86.1544 179.91 86.0542 179.743L86.0653 179.732Z" fill="black"/>
<path d="M86.6887 172.383C86.7555 171.894 86.6887 171.326 86.9114 170.914C87.7798 169.244 88.7151 167.596 89.6948 165.982C89.8507 165.737 90.3517 165.692 90.6969 165.558C90.6857 165.892 90.7748 166.293 90.6301 166.572C89.7282 168.331 88.7819 170.068 87.8244 171.793C87.6574 172.094 87.3567 172.317 87.1229 172.573C86.9782 172.517 86.8446 172.45 86.6999 172.395L86.6887 172.383Z" fill="black"/>
<path d="M91.5987 157.598C91.4317 159.39 88.6372 164.2 87.5795 164.612C87.1675 163.02 90.0846 157.809 91.5987 157.598Z" fill="black"/>
<path d="M87.3679 159.914C87.457 159.301 87.3902 158.845 87.5795 158.544C88.6372 156.83 89.7394 155.137 90.875 153.467C91.0198 153.256 91.4317 153.245 91.7212 153.133C91.788 153.423 92.0218 153.812 91.9105 153.979C90.6746 155.883 89.3943 157.743 88.1139 159.613C88.0359 159.724 87.8244 159.735 87.3679 159.914Z" fill="black"/>
<path d="M354.822 219.613C354.9 218.666 358.63 214.547 359.587 214.268C360.055 215.772 356.882 219.39 354.822 219.613Z" fill="black"/>
<path d="M359.632 219.412C359.454 219.78 359.365 220.169 359.131 220.437C358.229 221.45 357.316 222.463 356.314 223.387C356.058 223.621 355.513 223.543 355.101 223.61C355.19 223.209 355.145 222.697 355.379 222.43C356.348 221.305 357.383 220.236 358.43 219.178C358.608 219 358.919 218.867 359.176 218.878C359.32 218.878 359.465 219.201 359.632 219.423V219.412Z" fill="black"/>
<path d="M354.455 229.11C354.399 228.865 354.176 228.419 354.299 228.275C355.212 227.172 356.147 226.081 357.183 225.09C357.606 224.678 358.04 224.957 358.062 225.591C358.096 226.538 355.646 229.121 354.455 229.121V229.11Z" fill="black"/>
</g>
<g filter="url(#filter0_d_40_1450)">
<path d="M3.46582 316L454.664 341.039L451.198 403.491L6.55313e-05 378.451L3.46582 316Z" fill="#4AFE7C"/>
<path d="M4.8804 317.581L453.083 342.454L449.783 401.91L1.58088 377.037L4.8804 317.581Z" stroke="black" stroke-width="3"/>
</g>
<path d="M34.3327 361.033L38.2866 361.252L38.915 349.929L43.1564 350.165L42.5281 361.487L46.482 361.707L47.8783 336.546L43.9244 336.326L43.3559 346.57L39.1144 346.335L39.6829 336.091L35.729 335.871L34.3327 361.033ZM56.9191 362.647C60.8012 362.862 63.0496 360.679 63.273 356.653L64.0071 343.426C64.2305 339.4 62.2374 336.982 58.3554 336.766C54.4733 336.551 52.2249 338.734 52.0015 342.76L51.2675 355.987C51.044 360.013 53.0371 362.431 56.9191 362.647ZM57.1186 359.052C55.8606 358.982 55.1077 358.256 55.2074 356.458L55.9694 342.727C56.0691 340.93 56.8978 340.291 58.1559 340.361C59.414 340.431 60.1668 341.158 60.0671 342.955L59.3051 356.686C59.2054 358.483 58.3767 359.122 57.1186 359.052ZM67.413 362.868L73.4517 363.204C77.4057 363.423 79.4684 361.338 79.6918 357.312L80.3979 344.588C80.6213 340.562 78.802 338.262 74.8481 338.042L68.8094 337.707L67.413 362.868ZM71.5664 359.493L72.5638 341.521L74.5767 341.633C75.8348 341.703 76.5537 342.391 76.454 344.189L75.7279 357.273C75.6281 359.07 74.8374 359.675 73.5793 359.605L71.5664 359.493ZM83.8128 363.779L94.2727 364.359L94.4722 360.765L87.9662 360.404L89.1631 338.837L85.2091 338.617L83.8128 363.779ZM105.52 364.983L108.971 365.175L110.028 346.124L110.1 346.128L111.918 365.338L115.225 365.522L119.158 346.631L119.23 346.635L118.173 365.685L121.911 365.893L123.307 340.732L117.664 340.418L114.148 358.287L114.076 358.283L112.56 340.135L106.916 339.822L105.52 364.983ZM126.659 366.156L137.442 366.755L137.641 363.16L130.812 362.781L131.241 355.053L136.669 355.354L136.868 351.76L131.44 351.459L131.809 344.809L138.639 345.188L138.838 341.593L128.055 340.995L126.659 366.156ZM152.159 367.571L156.113 367.791L157.31 346.224L161.444 346.453L161.643 342.859L149.422 342.181L149.222 345.775L153.356 346.005L152.159 367.571ZM169.513 368.895C173.395 369.111 175.644 366.928 175.867 362.902L176.601 349.674C176.824 345.648 174.831 343.23 170.949 343.015C167.067 342.799 164.819 344.982 164.595 349.008L163.861 362.236C163.638 366.261 165.631 368.68 169.513 368.895ZM169.713 365.301C168.454 365.231 167.702 364.504 167.801 362.707L168.563 348.976C168.663 347.179 169.492 346.54 170.75 346.609C172.008 346.679 172.761 347.406 172.661 349.203L171.899 362.934C171.799 364.731 170.971 365.37 169.713 365.301ZM187.561 369.536L193.6 369.871C197.554 370.091 199.616 368.006 199.84 363.98L200.546 351.256C200.769 347.23 198.95 344.929 194.996 344.71L188.957 344.375L187.561 369.536ZM191.714 366.161L192.712 348.189L194.725 348.3C195.983 348.37 196.702 349.059 196.602 350.856L195.876 363.94C195.776 365.737 194.985 366.343 193.727 366.273L191.714 366.161ZM202.848 370.384L206.515 370.588L207.507 365.703L212 365.953L212.004 365.881L212.445 370.917L216.399 371.136L213.698 345.748L208.342 345.451L202.848 370.384ZM208.163 362.315L210.579 349.973L210.651 349.977L211.722 362.512L208.163 362.315ZM227.669 371.762L231.119 371.953L232.177 352.903L232.249 352.907L234.067 372.117L237.374 372.3L241.307 353.409L241.379 353.413L240.321 372.464L244.06 372.672L245.456 347.51L239.813 347.197L236.297 365.066L236.225 365.062L234.708 346.914L229.065 346.601L227.669 371.762ZM247.765 372.877L251.431 373.081L252.424 368.196L256.917 368.445L256.921 368.374L257.362 373.41L261.316 373.629L258.615 348.24L253.259 347.943L247.765 372.877ZM253.08 364.807L255.496 352.466L255.568 352.47L256.639 365.005L253.08 364.807ZM265.032 373.835L268.986 374.055L269.584 363.271L270.95 363.347C272.747 363.447 273.388 364.24 273.259 366.576L273.003 371.177C272.889 373.226 273.011 373.629 273.191 374.288L277.217 374.512C276.873 373.555 276.887 372.654 276.955 371.432L277.2 367.011C277.358 364.172 276.815 362.267 274.872 361.546L274.876 361.474C276.677 360.853 277.595 359.245 277.739 356.657L277.825 355.111C278.04 351.229 276.385 349.227 272.287 348.999L266.428 348.674L265.032 373.835ZM269.783 359.677L270.182 352.488L271.98 352.588C273.381 352.666 273.949 353.49 273.849 355.287L273.741 357.228C273.629 359.241 272.695 359.838 271.221 359.757L269.783 359.677ZM286.446 375.384C290.328 375.6 292.541 373.415 292.768 369.317C292.942 366.19 292.011 364.119 288.866 361.024C286.403 358.616 285.65 357.24 285.752 355.407C285.848 353.682 286.605 353.039 287.863 353.109C289.121 353.178 289.802 353.901 289.702 355.698L289.63 356.993L293.368 357.2L293.426 356.158C293.65 352.132 291.872 349.726 288.026 349.512C284.18 349.299 282.004 351.485 281.784 355.439C281.625 358.315 282.589 360.424 285.735 363.519C288.197 365.927 288.914 367.301 288.798 369.385C288.695 371.255 287.868 371.858 286.61 371.788C285.352 371.718 284.597 371.027 284.697 369.23L284.792 367.505L281.054 367.297L280.974 368.735C280.751 372.761 282.564 375.169 286.446 375.384ZM296.258 379.895L298.091 379.997L300.329 375.398L300.519 371.983L296.709 371.771L296.497 375.582L297.791 375.653L296.258 379.895ZM312.623 376.476L316.577 376.696L317.146 366.452L319.015 366.555C322.969 366.775 325.031 364.69 325.255 360.664L325.392 358.184C325.616 354.158 323.797 351.858 319.843 351.638L314.02 351.315L312.623 376.476ZM317.345 362.857L317.774 355.129L319.643 355.233C320.901 355.303 321.552 355.916 321.452 357.713L321.287 360.696C321.187 362.494 320.472 363.031 319.214 362.961L317.345 362.857ZM328.286 377.346L338.746 377.926L338.945 374.332L332.439 373.971L333.636 352.404L329.682 352.184L328.286 377.346ZM342.439 378.131L353.222 378.73L353.422 375.135L346.592 374.756L347.021 367.028L352.449 367.329L352.648 363.735L347.221 363.434L347.59 356.784L354.419 357.163L354.619 353.568L343.835 352.97L342.439 378.131ZM356.252 378.898L359.918 379.101L360.91 374.217L365.404 374.466L365.408 374.394L365.849 379.43L369.803 379.65L367.102 354.261L361.746 353.964L356.252 378.898ZM361.567 370.828L363.983 358.487L364.055 358.491L365.126 371.025L361.567 370.828ZM378.533 380.495C382.415 380.71 384.628 378.525 384.855 374.428C385.029 371.301 384.098 369.23 380.953 366.135C378.491 363.727 377.738 362.351 377.839 360.518C377.935 358.792 378.692 358.149 379.95 358.219C381.208 358.289 381.889 359.012 381.789 360.809L381.717 362.103L385.456 362.31L385.514 361.268C385.737 357.242 383.96 354.836 380.113 354.623C376.267 354.409 374.091 356.596 373.871 360.55C373.712 363.425 374.677 365.534 377.822 368.629C380.284 371.037 381.001 372.411 380.885 374.496C380.782 376.365 379.955 376.968 378.697 376.898C377.439 376.828 376.684 376.138 376.784 374.34L376.88 372.615L373.141 372.408L373.061 373.845C372.838 377.871 374.651 380.279 378.533 380.495ZM388.584 380.692L399.368 381.29L399.567 377.696L392.738 377.317L393.167 369.589L398.594 369.89L398.794 366.296L393.366 365.994L393.735 359.345L400.565 359.724L400.764 356.129L389.981 355.531L388.584 380.692ZM412.19 375.332L415.137 375.495L416.085 367.508L416.668 357.012L412.714 356.792L412.131 367.288L412.19 375.332ZM411.389 381.958L415.199 382.169L415.411 378.359L411.601 378.147L411.389 381.958ZM421.534 375.85L424.481 376.014L425.429 368.026L426.012 357.53L422.058 357.311L421.475 367.807L421.534 375.85ZM420.733 382.476L424.543 382.688L424.755 378.877L420.945 378.666L420.733 382.476ZM430.878 376.369L433.825 376.532L434.773 368.545L435.356 358.049L431.402 357.829L430.82 368.325L430.878 376.369ZM430.078 382.995L433.888 383.206L434.099 379.396L430.289 379.185L430.078 382.995Z" fill="black"/>
<defs>
<filter id="filter0_d_40_1450" x="0" y="316" width="461.664" height="94.4905" filterUnits="userSpaceOnUse" color-interpolation-filters="sRGB">
<feFlood flood-opacity="0" result="BackgroundImageFix"/>
<feColorMatrix in="SourceAlpha" type="matrix" values="0 0 0 0 0 0 0 0 0 0 0 0 0 0 0 0 0 0 127 0" result="hardAlpha"/>
<feOffset dx="7" dy="7"/>
<feComposite in2="hardAlpha" operator="out"/>
<feColorMatrix type="matrix" values="0 0 0 0 0 0 0 0 0 0 0 0 0 0 0 0 0 0 1 0"/>
<feBlend mode="normal" in2="BackgroundImageFix" result="effect1_dropShadow_40_1450"/>
<feBlend mode="normal" in="SourceGraphic" in2="effect1_dropShadow_40_1450" result="shape"/>
</filter>
<clipPath id="clip0_40_1450">
<rect width="383" height="383" fill="white" transform="translate(32)"/>
</clipPath>
</defs>
</svg>
