<svg width="303" height="211" viewBox="0 0 303 211" fill="none" xmlns="http://www.w3.org/2000/svg">
<g clip-path="url(#clip0_8_1076)">
<path d="M164.469 210.882L57.0041 184.036C56.0609 183.801 55.2945 183.094 54.9408 182.211C54.5872 181.269 54.764 180.268 55.2945 179.503L86.6556 136.055C87.363 135.054 88.601 134.642 89.78 134.936L159.458 152.834C160.637 153.128 161.521 154.129 161.639 155.306L168.065 207.703C168.183 208.645 167.829 209.646 167.063 210.293C166.532 210.764 165.825 211.059 165.117 211.059C165.117 211.059 164.646 211.059 164.41 210.941L164.469 210.882ZM161.757 204.112L156.098 157.956L90.3105 141.059L62.6632 179.326L161.757 204.053V204.112Z" fill="#231F20"/>
<path d="M156.334 157.367C155.391 156.072 155.626 154.188 156.982 153.246L236.033 96.0804L184.099 81.0679L90.6642 140.176C89.3083 141.059 87.4809 140.647 86.5967 139.234C85.7124 137.88 86.1251 136.055 87.4809 135.172L182.036 75.3572C182.743 74.8862 183.627 74.7685 184.453 75.004L243.52 92.0182C244.581 92.3126 245.406 93.2545 245.583 94.3142C245.76 95.4328 245.288 96.5514 244.404 97.199L160.46 157.897C159.93 158.25 159.34 158.486 158.751 158.486C157.867 158.486 156.923 158.073 156.393 157.249L156.334 157.367Z" fill="#231F20"/>
<path d="M162.877 209.881C161.816 208.645 161.993 206.761 163.29 205.76L254.249 130.874L240.16 96.9045C239.512 95.4326 240.219 93.6665 241.752 93.0777C243.225 92.4301 244.994 93.1366 245.583 94.6673L260.497 130.639C260.969 131.816 260.615 133.229 259.613 134.053L167.004 210.293C166.473 210.764 165.766 211 165.117 211C164.292 211 163.408 210.647 162.818 209.94L162.877 209.881Z" fill="#231F20"/>
<path d="M161.522 105.382C160.578 104.087 160.873 102.203 162.17 101.261C163.467 100.319 165.353 100.614 166.296 101.968C166.945 102.792 167.24 102.851 168.065 102.91C169.303 103.027 171.543 101.968 173.96 100.26C173.606 99.9659 173.311 99.6127 173.076 99.2595C172.191 98.082 171.72 96.6691 171.72 95.2561C172.25 89.0156 178.322 86.0131 183.981 85.7776C185.691 85.7776 187.518 86.1308 189.169 87.0139C189.699 87.3083 190.112 87.7204 190.348 88.1914C191.35 89.1922 191.468 90.8406 190.584 91.9592C190.584 91.9592 189.405 93.5488 187.695 95.3739C186.457 96.7868 184.924 98.4352 183.156 100.084C178.853 104.087 173.901 108.502 168.065 108.679H167.888C165.53 108.679 162.995 107.443 161.522 105.264V105.382ZM179.324 93.1367C178.027 94.0198 177.556 95.0206 177.615 95.2561C177.615 95.2561 177.615 95.4327 177.851 95.7271C178.44 95.6093 180.798 94.1964 182.449 92.3713C182.449 92.3713 182.92 91.9004 183.097 91.7237C181.741 91.9004 180.326 92.4302 179.324 93.1367Z" fill="#231F20"/>
<path d="M176.907 110.033C175.964 108.679 176.259 106.854 177.556 105.912C178.853 104.97 180.739 105.264 181.682 106.56C182.331 107.384 182.625 107.443 183.451 107.502C184.689 107.619 186.929 106.501 189.346 104.852C188.992 104.558 188.697 104.205 188.461 103.851C187.577 102.674 187.106 101.261 187.106 99.8481C187.636 93.6076 193.708 90.6051 199.426 90.3696C201.135 90.3696 202.963 90.7229 204.613 91.606C205.144 91.9003 205.498 92.3124 205.792 92.7834C206.795 93.7842 206.913 95.4327 206.028 96.6101C206.028 96.6101 206.028 96.6101 206.028 96.669C205.792 97.0222 204.613 98.4941 202.963 100.26C201.784 101.614 200.31 103.145 198.66 104.735C194.356 108.738 189.405 113.153 183.569 113.33H183.392C181.034 113.33 178.558 112.094 177.025 109.974L176.907 110.033ZM194.71 97.7876C193.354 98.6707 192.942 99.7304 193 99.907C193 99.907 193 100.084 193.236 100.437C193.826 100.319 196.184 98.9062 197.834 97.0811C197.834 97.0811 198.247 96.6101 198.483 96.4335C197.127 96.6101 195.712 97.14 194.71 97.8465V97.7876Z" fill="#231F20"/>
<path d="M191.114 115.391C190.171 114.095 190.466 112.211 191.762 111.269C193.059 110.327 194.946 110.622 195.889 111.917C196.537 112.741 196.832 112.8 197.657 112.859C198.895 112.977 201.135 111.917 203.552 110.21C203.199 109.915 202.904 109.562 202.668 109.209C201.784 108.031 201.312 106.618 201.312 105.264C201.843 99.0239 207.915 96.0214 213.574 95.7859C215.283 95.7859 217.111 96.1391 218.761 97.0222C219.292 97.3166 219.646 97.7287 219.94 98.1997C220.942 99.2005 221.06 100.849 220.176 102.026C220.176 102.026 220.176 102.026 220.117 102.144C219.763 102.615 218.702 103.91 217.288 105.441C216.05 106.795 214.517 108.444 212.807 110.151C208.504 114.154 203.552 118.57 197.716 118.746H197.54C195.182 118.746 192.706 117.51 191.173 115.332L191.114 115.391ZM208.917 103.145C207.561 104.028 207.148 105.029 207.207 105.264C207.207 105.264 207.207 105.441 207.443 105.735C208.091 105.618 210.391 104.146 212.041 102.38C212.041 102.38 212.513 101.909 212.69 101.732C211.334 101.909 209.919 102.439 208.917 103.145Z" fill="#231F20"/>
<path d="M177.084 123.986L154.978 117.922C153.386 117.51 152.502 115.862 152.915 114.272C153.327 112.682 154.978 111.799 156.511 112.211L178.676 118.275C180.267 118.687 181.151 120.336 180.739 121.867C180.385 123.162 179.206 124.045 177.909 124.045C177.909 124.045 177.379 124.045 177.143 123.927L177.084 123.986Z" fill="#231F20"/>
<path d="M163.585 129.697L153.445 126.518C151.913 126.047 151.028 124.339 151.5 122.809C151.972 121.278 153.622 120.395 155.214 120.866L165.353 124.045C166.886 124.516 167.77 126.164 167.299 127.754C166.886 128.99 165.707 129.815 164.469 129.815C164.469 129.815 163.879 129.815 163.585 129.697Z" fill="#231F20"/>
<path d="M160.107 141.177L134.994 132.876C133.461 132.346 132.636 130.697 133.108 129.167C133.638 127.636 135.289 126.812 136.822 127.283L161.934 135.584C163.467 136.114 164.292 137.762 163.82 139.293C163.408 140.529 162.229 141.295 160.991 141.295C160.696 141.295 160.401 141.295 160.048 141.118L160.107 141.177Z" fill="#231F20"/>
<path d="M152.561 55.7525C149.201 38.385 144.485 20.8998 140.359 3.65005C140.005 2.06049 140.948 0.470923 142.54 0.117686C144.131 -0.23555 145.723 0.706414 146.077 2.29598C150.144 19.4868 154.919 37.0309 158.338 54.6927C158.633 56.2823 157.572 57.813 155.98 58.1662C155.98 58.1662 155.626 58.1662 155.45 58.1662C154.035 58.1662 152.797 57.1654 152.561 55.7525Z" fill="#231F20"/>
<path d="M117.604 62.8172C113.124 50.3362 108.526 37.4431 103.81 25.3742C103.22 23.8435 103.987 22.195 105.46 21.5474C106.993 20.9587 108.703 21.6652 109.292 23.1959C114.008 35.3825 118.665 48.3345 123.145 60.8156C123.676 62.3463 122.85 64.0536 121.318 64.5834C121.023 64.7012 120.669 64.76 120.316 64.76C119.078 64.76 117.958 63.9947 117.545 62.8172H117.604Z" fill="#231F20"/>
<path d="M97.2664 86.3074C91.5483 78.124 85.3586 69.4109 80.1122 60.3445C79.2869 58.9315 79.7585 57.1065 81.1732 56.3411C82.588 55.5169 84.3565 55.9879 85.1818 57.4008C90.1925 66.1729 96.2643 74.7683 102.041 82.9516C102.985 84.3057 102.631 86.1307 101.334 87.0727C100.803 87.4259 100.214 87.6026 99.6244 87.6026C98.6812 87.6026 97.797 87.1904 97.2075 86.3662L97.2664 86.3074Z" fill="#231F20"/>
<path d="M74.6889 107.737C65.3749 101.791 55.5893 96.4924 45.7448 91.7237C44.271 91.0172 43.6815 89.2511 44.3889 87.7792C45.0963 86.3074 46.8648 85.7187 48.3385 86.4252C58.301 91.2527 68.2634 96.669 77.8722 102.792C79.228 103.675 79.6407 105.5 78.7564 106.854C78.1669 107.737 77.2238 108.208 76.2806 108.208C75.75 108.208 75.2195 108.09 74.6889 107.737Z" fill="#231F20"/>
<path d="M50.166 140.294C41.7951 136.762 32.7169 134.053 24.1693 133.936C22.5187 133.936 21.2218 132.582 21.2807 130.933C21.2807 129.285 22.6366 128.048 24.2872 128.048C34.0138 128.284 43.6815 131.169 52.465 134.936C53.9387 135.584 54.6461 137.291 54.0566 138.822C53.585 139.941 52.465 140.588 51.3449 140.588C50.9912 140.588 50.5786 140.529 50.2249 140.353L50.166 140.294Z" fill="#231F20"/>
<path d="M34.2496 173.675C25.2893 173.439 16.4469 172.85 7.72235 172.85C6.13072 172.85 4.59803 172.85 3.06535 172.909C1.41477 172.968 0.0589296 171.673 -1.98187e-05 170.083C-0.0589692 168.435 1.23792 167.081 2.82955 167.022C4.48014 166.963 6.07177 166.963 7.72235 166.963C16.7416 166.963 25.584 167.552 34.3675 167.787C36.0181 167.787 37.256 169.2 37.1971 170.79C37.1971 172.379 35.8412 173.616 34.2496 173.616H34.1906L34.2496 173.675Z" fill="#231F20"/>
<path d="M201.902 54.4573C200.31 54.2807 199.131 52.8089 199.308 51.2193C200.605 39.7392 201.725 28.1412 204.672 16.9554C205.085 15.3658 206.677 14.4239 208.268 14.836C209.86 15.2481 210.803 16.8377 210.391 18.4272C207.62 29.0243 206.441 40.3868 205.144 51.867C204.967 53.3976 203.67 54.5162 202.197 54.5162C202.197 54.5162 201.961 54.5162 201.843 54.5162L201.902 54.4573Z" fill="#231F20"/>
<path d="M237.154 61.5221C235.68 60.8157 235.031 59.1084 235.68 57.6365C241.811 44.3902 248.884 31.7914 254.838 18.6628C255.487 17.1909 257.255 16.5433 258.729 17.1909C260.203 17.8385 260.851 19.6047 260.203 21.0765C254.131 34.5584 246.998 47.1572 241.044 60.1092C240.573 61.1689 239.453 61.8165 238.333 61.8165C237.92 61.8165 237.507 61.7576 237.095 61.5221H237.154Z" fill="#231F20"/>
<path d="M257.55 80.0671C256.371 78.8896 256.371 77.0645 257.55 75.8871C264.211 69.2933 271.639 64.1714 278.536 58.7551C279.833 57.7543 281.66 57.9898 282.662 59.2261C283.665 60.5213 283.429 62.3463 282.191 63.3472C275.117 68.9401 267.925 73.9443 261.735 80.0671C261.146 80.6558 260.38 80.9501 259.672 80.9501C258.906 80.9501 258.14 80.6558 257.609 80.0671H257.55Z" fill="#231F20"/>
<path d="M271.049 120.395C270.814 118.746 271.934 117.274 273.525 117.039C281.601 115.862 289.972 111.269 299.345 108.973C300.937 108.62 302.528 109.562 302.882 111.152C303.236 112.741 302.293 114.331 300.701 114.684C292.389 116.627 283.959 121.278 274.41 122.809C274.41 122.809 274.115 122.809 273.938 122.809C272.523 122.809 271.226 121.749 270.99 120.336L271.049 120.395Z" fill="#231F20"/>
<path d="M269.045 173.851C268.515 172.321 269.399 170.613 270.931 170.142C277.357 168.082 283.782 167.611 290.09 167.611C292.743 167.611 295.395 167.67 298.048 167.787C299.64 167.846 300.937 169.2 300.878 170.849C300.878 172.497 299.463 173.734 297.812 173.675C295.219 173.557 292.625 173.498 290.09 173.498C284.077 173.498 278.3 173.969 272.759 175.735C272.464 175.853 272.169 175.912 271.816 175.912C270.578 175.912 269.399 175.088 268.986 173.851H269.045Z" fill="#231F20"/>
</g>
<defs>
<clipPath id="clip0_8_1076">
<rect width="303" height="211" fill="white"/>
</clipPath>
</defs>
</svg>
