<svg width="100" height="51" viewBox="0 0 100 51" fill="none" xmlns="http://www.w3.org/2000/svg">
<path d="M70.5452 19.3401C70.9403 19.3664 71.4606 19.3796 72.1059 19.3796C72.7512 19.3796 73.2649 19.3664 73.6468 19.3401C74.0419 19.3138 74.3448 19.2611 74.5555 19.1821C74.7662 19.103 74.9045 18.9911 74.9704 18.8462C75.0494 18.7014 75.0889 18.5038 75.0889 18.2536L75.3062 14.4013C75.3062 14.1248 75.2733 13.8943 75.2074 13.7099C75.1548 13.5124 75.0165 13.3609 74.7926 13.2556C74.5687 13.1502 74.2394 13.0778 73.8048 13.0382C73.3834 12.9856 72.8171 12.9592 72.1059 12.9592C71.3947 12.9592 70.8218 12.9856 70.3872 13.0382C69.9658 13.0778 69.6431 13.1502 69.4192 13.2556C69.1953 13.3609 69.0504 13.5124 68.9846 13.7099C68.9319 13.8943 68.9056 14.1248 68.9056 14.4013L69.1426 18.2536C69.1426 18.5038 69.1756 18.7014 69.2414 18.8462C69.3204 18.9911 69.4587 19.103 69.6563 19.1821C69.867 19.2611 70.1633 19.3138 70.5452 19.3401Z" fill="url(#paint0_linear_740_11474)"/>
<path fill-rule="evenodd" clip-rule="evenodd" d="M45.8317 37.9494C45.8185 37.5543 45.8449 37.2382 45.9107 37.0012C45.9766 36.7509 46.1083 36.5666 46.3058 36.448C46.5166 36.3163 46.8063 36.2307 47.1751 36.1912C47.5438 36.1517 48.0311 36.1319 48.6369 36.1319C49.2428 36.1319 49.7498 36.1517 50.1581 36.1912C50.5663 36.2307 50.889 36.3163 51.1261 36.448C51.3763 36.5666 51.5475 36.7509 51.6397 37.0012C51.7451 37.2382 51.7912 37.5543 51.778 37.9494L51.699 40.3003C51.6726 40.8534 51.7121 41.3143 51.8175 41.6831C51.936 42.0519 52.1204 42.3482 52.3706 42.5721C52.634 42.7828 52.9699 42.9343 53.3781 43.0265C53.7864 43.1186 54.2803 43.1647 54.8598 43.1647C55.4524 43.1647 55.9529 43.1186 56.3612 43.0265C56.7826 42.9343 57.1184 42.7828 57.3687 42.5721C57.6189 42.3482 57.7967 42.0519 57.902 41.6831C58.0074 41.3143 58.0601 40.8534 58.0601 40.3003L58.0403 39.0162C58.0403 38.5552 58.0206 38.1404 57.9811 37.7716C57.9416 37.3897 57.856 37.0473 57.7243 36.7444C57.6057 36.4414 57.4213 36.1715 57.1711 35.9344C56.9341 35.6973 56.5982 35.4866 56.1636 35.3022L49.3086 32.3785C48.5579 32.0492 47.9323 31.6805 47.4319 31.2722C46.9314 30.8639 46.5297 30.3964 46.2268 29.8696C45.9371 29.3428 45.7264 28.7501 45.5947 28.0916C45.463 27.4331 45.3839 26.6956 45.3576 25.8791L45.16 19.1821C45.1337 18.1944 45.2917 17.2922 45.6342 16.4757C45.9898 15.6591 46.5561 14.9611 47.3331 14.3817C48.1101 13.8022 49.1045 13.3544 50.3161 13.0383C51.5409 12.7091 53.0094 12.5444 54.7215 12.5444C56.4336 12.5444 57.8955 12.7091 59.1071 13.0383C60.3319 13.3544 61.3263 13.8022 62.0901 14.3817C62.8671 14.9611 63.4335 15.6591 63.789 16.4757C64.1446 17.2922 64.3093 18.1944 64.2829 19.1821L64.0854 27.0841C64.0722 27.4792 64.0129 27.8019 63.9076 28.0521C63.8022 28.2892 63.6244 28.4736 63.3742 28.6053C63.124 28.7238 62.7881 28.8028 62.3667 28.8423C61.9584 28.8818 61.4514 28.9016 60.8455 28.9016C60.2266 28.9016 59.7063 28.8818 59.2849 28.8423C58.8766 28.8028 58.5474 28.7238 58.2971 28.6053C58.0469 28.4736 57.8691 28.2892 57.7638 28.0521C57.6584 27.8019 57.5991 27.4792 57.586 27.0841L57.3489 18.5697C57.3357 17.9902 57.2699 17.5293 57.1514 17.1869C57.0328 16.8444 56.8616 16.581 56.6377 16.3967C56.427 16.2123 56.157 16.0938 55.8278 16.0411C55.5117 15.9752 55.1429 15.9423 54.7215 15.9423C54.3 15.9423 53.9247 15.9752 53.5954 16.0411C53.2794 16.0938 53.0094 16.2123 52.7855 16.3967C52.5748 16.581 52.4101 16.8444 52.2916 17.1869C52.1731 17.5293 52.1072 17.9902 52.0941 18.5697L51.8768 26.452C51.8636 26.9524 51.8833 27.3936 51.936 27.7756C52.0019 28.1443 52.1138 28.4736 52.2719 28.7633C52.4431 29.0531 52.667 29.3099 52.9435 29.5338C53.2201 29.7577 53.5757 29.9618 54.0103 30.1462L60.4109 32.8329C61.1089 33.1226 61.6884 33.4387 62.1494 33.7811C62.6235 34.1103 62.9988 34.512 63.2754 34.9862C63.552 35.4603 63.7364 36.0266 63.8286 36.6851C63.9339 37.3436 63.9603 38.147 63.9076 39.0952L63.8681 40.2015C63.8417 41.0575 63.6573 41.8609 63.3149 42.6116C62.9725 43.3623 62.4391 44.0208 61.7148 44.5871C60.9904 45.1402 60.0619 45.5814 58.9293 45.9107C57.8099 46.2268 56.4533 46.3848 54.8598 46.3848C53.2662 46.3848 51.9031 46.2202 50.7705 45.8909C49.651 45.5617 48.7291 45.1139 48.0048 44.5476C47.2936 43.9813 46.7668 43.3162 46.4244 42.5523C46.082 41.7885 45.9042 40.9785 45.891 40.1225L45.8317 37.9494ZM68.7673 23.8443C68.7673 23.5677 68.7936 23.3373 68.8463 23.1529C68.9121 22.9553 69.057 22.8039 69.2809 22.6985C69.5048 22.5932 69.8275 22.5207 70.2489 22.4812C70.6835 22.4285 71.2564 22.4022 71.9676 22.4022C72.6788 22.4022 73.2451 22.4285 73.6665 22.4812C74.1011 22.5207 74.4304 22.5932 74.6543 22.6985C74.8782 22.8039 75.0164 22.9553 75.0691 23.1529C75.135 23.3373 75.1679 23.5677 75.1679 23.8443L74.5555 45.0217C74.5555 45.2719 74.5226 45.4695 74.4567 45.6144C74.3909 45.7592 74.2658 45.8712 74.0814 45.9502C73.897 46.0292 73.6336 46.0819 73.2912 46.1082C72.9619 46.1346 72.5207 46.1477 71.9676 46.1477C71.4144 46.1477 70.9667 46.1346 70.6242 46.1082C70.295 46.0819 70.0382 46.0292 69.8538 45.9502C69.6826 45.8712 69.5641 45.7592 69.4982 45.6144C69.4324 45.4695 69.3994 45.2719 69.3994 45.0217L68.7673 23.8443ZM80.3042 44.4291C80.2384 44.6793 80.2054 44.9032 80.2054 45.1007C80.2054 45.2588 80.2318 45.4036 80.2845 45.5353C80.3371 45.667 80.4425 45.779 80.6005 45.8712C80.7717 45.9502 81.0088 46.016 81.3117 46.0687C81.6146 46.1214 82.0163 46.1478 82.5168 46.1478C83.0436 46.1478 83.4716 46.128 83.8009 46.0885C84.1433 46.049 84.4198 45.97 84.6306 45.8514C84.8545 45.7329 85.0323 45.5749 85.164 45.3773C85.2957 45.1666 85.4208 44.8966 85.5393 44.5673L89.3125 33.6626H89.7076L93.4808 44.5673C93.5994 44.8966 93.7245 45.1666 93.8562 45.3773C93.9879 45.5749 94.1591 45.7329 94.3698 45.8514C94.5937 45.97 94.8769 46.049 95.2193 46.0885C95.5617 46.128 95.9963 46.1478 96.5231 46.1478C97.0236 46.1478 97.4252 46.1214 97.7282 46.0687C98.0311 46.016 98.2615 45.9502 98.4196 45.8712C98.5908 45.779 98.7027 45.667 98.7554 45.5353C98.8081 45.4036 98.8344 45.2588 98.8344 45.1007C98.8344 44.9032 98.7949 44.6859 98.7159 44.4488C98.6501 44.1986 98.5447 43.8298 98.3998 43.3425L94.3105 30.5413L99.5456 15.6262C99.6773 15.2443 99.7827 14.9282 99.8617 14.678C99.9539 14.4277 100 14.1709 100 13.9075C100 13.6573 99.9407 13.4598 99.8222 13.3149C99.7168 13.1568 99.5259 13.0383 99.2493 12.9593C98.9727 12.8803 98.5974 12.8276 98.1233 12.8012C97.6491 12.7749 97.0499 12.7617 96.3256 12.7617C95.588 12.7617 95.002 12.7749 94.5674 12.8012C94.1327 12.8276 93.7903 12.9 93.5401 13.0186C93.2899 13.1239 93.1055 13.2951 92.9869 13.5322C92.8684 13.7561 92.7631 14.0787 92.6709 14.5002L89.6879 28.0521H89.2928L86.29 14.5002C86.1978 14.0787 86.0924 13.7561 85.9739 13.5322C85.8554 13.2951 85.6644 13.1239 85.401 13.0186C85.1508 12.9 84.8084 12.8276 84.3738 12.8012C83.9391 12.7749 83.3597 12.7617 82.6353 12.7617C81.911 12.7617 81.3117 12.7749 80.8376 12.8012C80.3635 12.8276 79.9881 12.8803 79.7116 12.9593C79.435 13.0383 79.244 13.1568 79.1387 13.3149C79.0333 13.4598 78.9806 13.6573 78.9806 13.9075C78.9806 14.1709 79.0201 14.4343 79.0992 14.6977C79.1782 14.948 79.277 15.2575 79.3955 15.6262L84.7293 30.5413L80.64 43.3425C80.4952 43.8167 80.3832 44.1788 80.3042 44.4291Z" fill="white"/>
<path d="M32.8276 17.6056C30.6827 14.4322 30.2741 14.0094 30.4618 14.2541C10.2314 18.8788 8.63047 34.8882 9.2528 39.216C9.5022 40.9452 9.94638 42.4369 10.4998 43.7219C10.6708 44.1186 10.8537 44.4963 11.0438 44.8526C9.26943 41.3537 9.57821 37.5485 11.5378 35.0592C12.8205 33.4322 14.8086 32.3704 17.3834 32.3276C24.1886 32.4369 26.906 39.6863 23.286 45.6435C21.0224 49.3704 17.4095 50.9618 17.4095 50.9618C20.8276 51.1352 23.8608 50.3822 24.4998 50.159C27.5663 49.0901 30.7753 47.3134 32.8276 45.0449C40.1434 36.9642 38.2052 25.5604 32.8276 17.6056Z" fill="url(#paint1_linear_740_11474)"/>
<path d="M30.2532 47.2683C35.189 43.5818 35.5857 30.4417 23.9515 27.9975C13.809 25.8645 8.82806 35.0379 9.88744 41.5723C10.1654 43.2849 10.8684 44.4915 10.7449 44.2041C9.31975 40.8906 9.70217 37.3942 11.5406 35.0593C12.8233 33.4322 14.8114 32.3704 17.3862 32.3277C24.1914 32.4369 26.9088 39.6863 23.2888 45.6436C21.0252 49.3704 17.4124 50.9618 17.4124 50.9618C22.0014 51.1946 26.2698 50.0473 30.2556 47.2683H30.2532Z" fill="url(#paint2_linear_740_11474)"/>
<path d="M9.25543 39.2137C8.63073 34.8859 10.2341 18.8764 30.4644 14.2517C30.2768 14.0071 27.4383 10.2327 25.8421 8.24938C22.0677 3.55581 18.873 0 18.873 0C18.873 0 10.4407 9.24225 4.78751 17.6056C-0.590145 25.5629 -2.52838 36.9643 4.78751 45.045C7.42171 47.9547 12.4668 50.7101 17.4098 50.9618C17.4098 50.9618 10.5856 48.4417 9.25306 39.2137H9.25543Z" fill="url(#paint3_linear_740_11474)"/>
<defs>
<linearGradient id="paint0_linear_740_11474" x1="76.8076" y1="25.2864" x2="68.515" y2="12.4208" gradientUnits="userSpaceOnUse">
<stop offset="0.27266" stop-color="#138A94"/>
<stop offset="0.97" stop-color="#90E674"/>
</linearGradient>
<linearGradient id="paint1_linear_740_11474" x1="13.735" y1="21.0426" x2="32.4214" y2="43.6863" gradientUnits="userSpaceOnUse">
<stop stop-color="#137493"/>
<stop offset="0.97" stop-color="#83DF78"/>
</linearGradient>
<linearGradient id="paint2_linear_740_11474" x1="13.4623" y1="29.0094" x2="29.4622" y2="48.7291" gradientUnits="userSpaceOnUse">
<stop stop-color="#10708A"/>
<stop offset="0.97" stop-color="#6ED066"/>
</linearGradient>
<linearGradient id="paint3_linear_740_11474" x1="15.9157" y1="-0.909736" x2="14.4431" y2="50.8597" gradientUnits="userSpaceOnUse">
<stop stop-color="#138A94"/>
<stop offset="0.97" stop-color="#90E674"/>
</linearGradient>
</defs>
</svg>
