<svg width="556" height="556" viewBox="0 0 556 556" fill="none" xmlns="http://www.w3.org/2000/svg">
<g filter="url(#filter0_d_740_11508)">
<path d="M311.848 78.4255C349.503 80.677 385.499 94.7015 414.751 118.518C444.004 142.335 465.035 174.74 474.874 211.156L301.105 258.105L311.848 78.4255Z" fill="url(#paint0_radial_740_11508)"/>
</g>
<g filter="url(#filter1_d_740_11508)">
<path d="M292.879 103.093C254.935 101.875 217.578 112.685 186.148 133.977C154.719 155.269 130.825 185.953 117.885 221.643C104.944 257.332 103.619 296.199 114.098 332.687C124.578 369.175 146.325 401.416 176.231 424.8C206.138 448.183 242.672 461.513 280.61 462.883C318.548 464.253 355.948 453.592 387.463 432.426C418.978 411.26 442.994 380.672 456.077 345.034C469.161 309.397 470.642 270.536 460.308 234.006L287.105 283L292.879 103.093Z" fill="url(#paint1_radial_740_11508)"/>
</g>
<rect x="83" y="502" width="388" height="54" rx="8" fill="#695ADD"/>
<path d="M118.696 538C118.056 538 117.552 537.816 117.184 537.448C116.816 537.08 116.632 536.592 116.632 535.984V521.2H119.44V535.552H128.56V538H118.696ZM132.234 524.68C131.69 524.68 131.25 524.52 130.914 524.2C130.594 523.864 130.434 523.44 130.434 522.928C130.434 522.416 130.594 522 130.914 521.68C131.25 521.344 131.69 521.176 132.234 521.176C132.778 521.176 133.218 521.344 133.554 521.68C133.89 522 134.058 522.416 134.058 522.928C134.058 523.44 133.89 523.864 133.554 524.2C133.218 524.52 132.778 524.68 132.234 524.68ZM130.866 526.024H133.626V538H130.866V526.024ZM145.61 536.848C145.29 537.248 144.882 537.576 144.386 537.832C143.906 538.072 143.442 538.192 142.994 538.192H141.266C139.89 538.192 138.778 537.768 137.93 536.92C137.082 536.056 136.658 534.92 136.658 533.512V530.704C136.658 529.232 137.09 528.056 137.954 527.176C138.834 526.28 139.994 525.832 141.434 525.832H143.09C143.586 525.832 144.082 525.968 144.578 526.24C145.074 526.496 145.474 526.84 145.778 527.272V526.024H148.346V542.824H145.61V536.848ZM143.09 535.816C143.762 535.816 144.33 535.544 144.794 535C145.258 534.456 145.53 533.752 145.61 532.888V530.56C145.53 529.856 145.274 529.288 144.842 528.856C144.426 528.424 143.914 528.208 143.306 528.208H141.626C140.97 528.208 140.434 528.456 140.018 528.952C139.618 529.432 139.418 530.072 139.418 530.872V533.344C139.418 534.08 139.602 534.68 139.97 535.144C140.338 535.592 140.826 535.816 141.434 535.816H143.09ZM155.299 538.192C154.099 538.192 153.123 537.784 152.371 536.968C151.635 536.136 151.267 535.056 151.267 533.728V526.024H154.027V533.776C154.027 534.384 154.171 534.872 154.459 535.24C154.763 535.608 155.155 535.792 155.635 535.792H157.075C157.683 535.792 158.227 535.552 158.707 535.072C159.203 534.576 159.539 533.936 159.715 533.152V526.024H162.475V538H159.883V536.368C159.531 536.912 159.067 537.352 158.491 537.688C157.931 538.024 157.395 538.192 156.883 538.192H155.299ZM167.344 524.68C166.8 524.68 166.36 524.52 166.024 524.2C165.704 523.864 165.544 523.44 165.544 522.928C165.544 522.416 165.704 522 166.024 521.68C166.36 521.344 166.8 521.176 167.344 521.176C167.888 521.176 168.328 521.344 168.664 521.68C169 522 169.168 522.416 169.168 522.928C169.168 523.44 169 523.864 168.664 524.2C168.328 524.52 167.888 524.68 167.344 524.68ZM165.976 526.024H168.736V538H165.976V526.024ZM176.327 538.192C174.967 538.192 173.863 537.768 173.015 536.92C172.183 536.056 171.767 534.928 171.767 533.536V530.752C171.767 529.776 171.967 528.92 172.367 528.184C172.767 527.432 173.327 526.856 174.047 526.456C174.783 526.04 175.623 525.832 176.567 525.832H178.031C178.527 525.832 179.015 525.944 179.495 526.168C179.991 526.392 180.399 526.688 180.719 527.056V521.2H183.455V538H180.887V536.344C180.551 536.904 180.103 537.352 179.543 537.688C178.983 538.024 178.415 538.192 177.839 538.192H176.327ZM178.055 535.816C178.743 535.816 179.335 535.544 179.831 535C180.343 534.44 180.639 533.752 180.719 532.936V530.536C180.607 529.848 180.335 529.288 179.903 528.856C179.487 528.424 178.983 528.208 178.391 528.208H176.855C176.151 528.208 175.583 528.456 175.151 528.952C174.735 529.448 174.527 530.096 174.527 530.896V533.368C174.527 534.104 174.719 534.696 175.103 535.144C175.503 535.592 176.007 535.816 176.615 535.816H178.055ZM188.32 524.68C187.776 524.68 187.336 524.52 187 524.2C186.68 523.864 186.52 523.44 186.52 522.928C186.52 522.416 186.68 522 187 521.68C187.336 521.344 187.776 521.176 188.32 521.176C188.864 521.176 189.304 521.344 189.64 521.68C189.976 522 190.144 522.416 190.144 522.928C190.144 523.44 189.976 523.864 189.64 524.2C189.304 524.52 188.864 524.68 188.32 524.68ZM186.952 526.024H189.712V538H186.952V526.024ZM198.287 538C196.927 538 195.935 537.696 195.311 537.088C194.687 536.48 194.375 535.52 194.375 534.208V528.4H192.263V526.024H194.447V522.4H197.135V526.024H200.255V528.4H197.135V534.112C197.135 534.64 197.239 535.024 197.447 535.264C197.655 535.504 197.983 535.624 198.431 535.624H200.255V538H198.287ZM207.108 542.872C205.892 542.872 204.884 542.536 204.084 541.864C203.3 541.192 202.868 540.304 202.788 539.2H205.5C205.548 539.6 205.716 539.92 206.004 540.16C206.292 540.4 206.66 540.52 207.108 540.52H209.052C209.66 540.52 210.14 540.288 210.492 539.824C210.86 539.376 211.044 538.768 211.044 538V536.224C210.66 536.752 210.212 537.168 209.7 537.472C209.204 537.776 208.7 537.928 208.188 537.928H206.628C205.412 537.928 204.428 537.528 203.676 536.728C202.94 535.912 202.572 534.84 202.572 533.512V526.024H205.332V533.56C205.332 534.168 205.476 534.656 205.764 535.024C206.068 535.392 206.468 535.576 206.964 535.576H208.38C208.972 535.576 209.516 535.328 210.012 534.832C210.524 534.336 210.868 533.704 211.044 532.936V526.024H213.78V538C213.78 539.488 213.348 540.672 212.484 541.552C211.636 542.432 210.492 542.872 209.052 542.872H207.108ZM226.456 542.848C225.288 541.184 224.432 539.496 223.888 537.784C223.344 536.072 223.072 534.232 223.072 532.264V531.784C223.072 529.736 223.344 527.856 223.888 526.144C224.432 524.432 225.288 522.784 226.456 521.2H229.36C228.144 522.848 227.248 524.536 226.672 526.264C226.112 527.976 225.832 529.816 225.832 531.784V532.264C225.832 534.088 226.112 535.864 226.672 537.592C227.248 539.304 228.144 541.056 229.36 542.848H226.456ZM231.569 521.2H243.641V523.648H234.377V528.712H242.753V531.16H234.377V538H231.569V521.2ZM248.458 538.192C247.242 538.192 246.258 537.888 245.506 537.28C244.77 536.656 244.402 535.832 244.402 534.808V533.944C244.402 532.936 244.786 532.128 245.554 531.52C246.338 530.912 247.362 530.608 248.626 530.608H250.114C250.562 530.608 251.042 530.672 251.554 530.8C252.066 530.928 252.522 531.096 252.922 531.304V529.816C252.922 529.32 252.762 528.92 252.442 528.616C252.122 528.312 251.706 528.16 251.194 528.16H249.178C248.65 528.16 248.226 528.288 247.906 528.544C247.586 528.784 247.426 529.104 247.426 529.504H244.738C244.738 528.4 245.146 527.512 245.962 526.84C246.778 526.168 247.85 525.832 249.178 525.832H251.194C252.538 525.832 253.618 526.2 254.434 526.936C255.25 527.656 255.658 528.616 255.658 529.816V538H253.09V536.488C252.706 537 252.226 537.416 251.65 537.736C251.074 538.04 250.506 538.192 249.946 538.192H248.458ZM250.114 536.032C250.754 536.032 251.33 535.856 251.842 535.504C252.354 535.136 252.714 534.656 252.922 534.064V533.488C252.65 533.264 252.266 533.088 251.77 532.96C251.274 532.816 250.754 532.744 250.21 532.744H248.698C248.218 532.744 247.826 532.864 247.522 533.104C247.234 533.344 247.09 533.656 247.09 534.04V534.712C247.09 535.112 247.242 535.432 247.546 535.672C247.85 535.912 248.25 536.032 248.746 536.032H250.114ZM260.391 524.68C259.847 524.68 259.407 524.52 259.071 524.2C258.751 523.864 258.591 523.44 258.591 522.928C258.591 522.416 258.751 522 259.071 521.68C259.407 521.344 259.847 521.176 260.391 521.176C260.935 521.176 261.375 521.344 261.711 521.68C262.047 522 262.215 522.416 262.215 522.928C262.215 523.44 262.047 523.864 261.711 524.2C261.375 524.52 260.935 524.68 260.391 524.68ZM259.023 526.024H261.783V538H259.023V526.024ZM265.294 526.024H267.862V527.656C268.182 527.16 268.638 526.76 269.23 526.456C269.838 526.136 270.462 525.976 271.102 525.976H272.542V528.376H271.102C270.19 528.376 269.454 528.656 268.894 529.216C268.334 529.776 268.054 530.504 268.054 531.4V538H265.294V526.024ZM283.133 538C282.493 538 281.989 537.816 281.621 537.448C281.253 537.08 281.069 536.592 281.069 535.984V521.2H283.877V535.552H292.997V538H283.133ZM298.544 538.192C297.328 538.192 296.344 537.888 295.592 537.28C294.856 536.656 294.488 535.832 294.488 534.808V533.944C294.488 532.936 294.872 532.128 295.64 531.52C296.424 530.912 297.448 530.608 298.712 530.608H300.2C300.648 530.608 301.128 530.672 301.64 530.8C302.152 530.928 302.608 531.096 303.008 531.304V529.816C303.008 529.32 302.848 528.92 302.528 528.616C302.208 528.312 301.792 528.16 301.28 528.16H299.264C298.736 528.16 298.312 528.288 297.992 528.544C297.672 528.784 297.512 529.104 297.512 529.504H294.824C294.824 528.4 295.232 527.512 296.048 526.84C296.864 526.168 297.936 525.832 299.264 525.832H301.28C302.624 525.832 303.704 526.2 304.52 526.936C305.336 527.656 305.744 528.616 305.744 529.816V538H303.176V536.488C302.792 537 302.312 537.416 301.736 537.736C301.16 538.04 300.592 538.192 300.032 538.192H298.544ZM300.2 536.032C300.84 536.032 301.416 535.856 301.928 535.504C302.44 535.136 302.8 534.656 303.008 534.064V533.488C302.736 533.264 302.352 533.088 301.856 532.96C301.36 532.816 300.84 532.744 300.296 532.744H298.784C298.304 532.744 297.912 532.864 297.608 533.104C297.32 533.344 297.176 533.656 297.176 534.04V534.712C297.176 535.112 297.328 535.432 297.632 535.672C297.936 535.912 298.336 536.032 298.832 536.032H300.2ZM312.565 538.192C311.365 538.192 310.389 537.784 309.637 536.968C308.901 536.136 308.533 535.056 308.533 533.728V526.024H311.293V533.776C311.293 534.384 311.437 534.872 311.725 535.24C312.029 535.608 312.421 535.792 312.901 535.792H314.341C314.949 535.792 315.493 535.552 315.973 535.072C316.469 534.576 316.805 533.936 316.981 533.152V526.024H319.741V538H317.149V536.368C316.797 536.912 316.333 537.352 315.757 537.688C315.197 538.024 314.661 538.192 314.149 538.192H312.565ZM322.809 526.024H325.377V527.584C325.729 527.056 326.193 526.632 326.769 526.312C327.345 525.992 327.921 525.832 328.497 525.832H329.985C331.217 525.832 332.201 526.224 332.937 527.008C333.689 527.792 334.065 528.824 334.065 530.104V538H331.305V530.176C331.305 529.6 331.153 529.136 330.849 528.784C330.561 528.416 330.177 528.232 329.697 528.232H328.209C327.585 528.232 327.025 528.472 326.529 528.952C326.033 529.416 325.713 530.016 325.569 530.752V538H322.809V526.024ZM341.381 538.192C339.909 538.192 338.725 537.768 337.829 536.92C336.949 536.072 336.509 534.952 336.509 533.56V530.536C336.509 529.608 336.709 528.792 337.109 528.088C337.509 527.368 338.077 526.816 338.813 526.432C339.549 526.032 340.397 525.832 341.357 525.832H343.277C344.653 525.832 345.757 526.232 346.589 527.032C347.437 527.816 347.861 528.856 347.861 530.152H345.149C345.149 529.576 344.973 529.112 344.621 528.76C344.285 528.392 343.837 528.208 343.277 528.208H341.381C340.757 528.208 340.245 528.44 339.845 528.904C339.461 529.368 339.269 529.968 339.269 530.704V533.392C339.269 534.112 339.461 534.696 339.845 535.144C340.245 535.592 340.765 535.816 341.405 535.816H343.301C343.893 535.816 344.365 535.6 344.717 535.168C345.085 534.736 345.269 534.176 345.269 533.488H347.981C347.981 534.896 347.549 536.032 346.685 536.896C345.837 537.76 344.709 538.192 343.301 538.192H341.381ZM350.231 521.2H352.991V527.368C353.359 526.904 353.807 526.536 354.335 526.264C354.879 525.976 355.407 525.832 355.919 525.832H357.455C358.687 525.832 359.671 526.224 360.407 527.008C361.159 527.792 361.535 528.824 361.535 530.104V538H358.775V530.176C358.775 529.6 358.623 529.136 358.319 528.784C358.031 528.416 357.647 528.232 357.167 528.232H355.631C355.007 528.232 354.447 528.464 353.951 528.928C353.455 529.392 353.135 530 352.991 530.752V538H350.231V521.2ZM363.498 542.848C364.714 541.056 365.602 539.304 366.162 537.592C366.738 535.88 367.026 534.104 367.026 532.264V531.784C367.026 529.8 366.738 527.952 366.162 526.24C365.602 524.528 364.714 522.848 363.498 521.2H366.402C367.57 522.784 368.426 524.432 368.97 526.144C369.514 527.856 369.786 529.736 369.786 531.784V532.264C369.786 534.232 369.514 536.072 368.97 537.784C368.426 539.496 367.57 541.184 366.402 542.848H363.498ZM373.652 529.696C373.124 529.696 372.7 529.536 372.38 529.216C372.06 528.896 371.9 528.48 371.9 527.968C371.9 527.44 372.06 527.016 372.38 526.696C372.7 526.376 373.124 526.216 373.652 526.216C374.164 526.216 374.58 526.376 374.9 526.696C375.22 527.016 375.38 527.44 375.38 527.968C375.38 528.48 375.22 528.896 374.9 529.216C374.58 529.536 374.164 529.696 373.652 529.696ZM373.652 537.664C373.124 537.664 372.7 537.504 372.38 537.184C372.06 536.864 371.9 536.448 371.9 535.936C371.9 535.408 372.06 534.984 372.38 534.664C372.7 534.344 373.124 534.184 373.652 534.184C374.164 534.184 374.58 534.344 374.9 534.664C375.22 534.984 375.38 535.408 375.38 535.936C375.38 536.448 375.22 536.864 374.9 537.184C374.58 537.504 374.164 537.664 373.652 537.664ZM389.532 538.192C388.428 538.192 387.452 538.008 386.604 537.64C385.772 537.272 385.124 536.752 384.66 536.08C384.196 535.408 383.964 534.632 383.964 533.752V532.768C383.964 532.08 384.188 531.432 384.636 530.824C385.084 530.216 385.7 529.728 386.484 529.36V529.336C385.876 528.984 385.396 528.536 385.044 527.992C384.692 527.432 384.516 526.848 384.516 526.24V525.232C384.516 524.4 384.732 523.664 385.164 523.024C385.612 522.384 386.228 521.888 387.012 521.536C387.812 521.184 388.732 521.008 389.772 521.008H391.836C392.876 521.008 393.796 521.184 394.596 521.536C395.396 521.888 396.012 522.384 396.444 523.024C396.892 523.664 397.116 524.4 397.116 525.232V526.24C397.116 526.832 396.94 527.408 396.588 527.968C396.236 528.512 395.756 528.968 395.148 529.336V529.36C395.932 529.728 396.548 530.216 396.996 530.824C397.444 531.432 397.668 532.08 397.668 532.768V533.752C397.668 534.632 397.436 535.408 396.972 536.08C396.508 536.752 395.852 537.272 395.004 537.64C394.156 538.008 393.18 538.192 392.076 538.192H389.532ZM391.836 528.232C392.572 528.232 393.164 528.048 393.612 527.68C394.076 527.312 394.308 526.832 394.308 526.24V525.256C394.308 524.712 394.076 524.272 393.612 523.936C393.164 523.6 392.572 523.432 391.836 523.432H389.772C389.036 523.432 388.444 523.6 387.996 523.936C387.548 524.272 387.324 524.712 387.324 525.256V526.24C387.324 526.832 387.548 527.312 387.996 527.68C388.444 528.048 389.036 528.232 389.772 528.232H391.836ZM392.076 535.768C392.908 535.768 393.58 535.576 394.092 535.192C394.604 534.792 394.86 534.272 394.86 533.632V532.816C394.86 532.144 394.58 531.608 394.02 531.208C393.476 530.792 392.748 530.584 391.836 530.584H389.772C388.876 530.584 388.148 530.792 387.588 531.208C387.044 531.608 386.772 532.144 386.772 532.816V533.632C386.772 534.272 387.02 534.792 387.516 535.192C388.028 535.576 388.7 535.768 389.532 535.768H392.076ZM405.221 538.192C404.149 538.192 403.197 537.96 402.365 537.496C401.549 537.016 400.909 536.344 400.445 535.48C399.997 534.6 399.773 533.592 399.773 532.456V526.744C399.773 525.608 399.997 524.608 400.445 523.744C400.909 522.864 401.549 522.192 402.365 521.728C403.197 521.248 404.149 521.008 405.221 521.008H407.765C408.821 521.008 409.757 521.248 410.573 521.728C411.389 522.192 412.021 522.864 412.469 523.744C412.917 524.608 413.141 525.608 413.141 526.744V532.456C413.141 533.592 412.917 534.6 412.469 535.48C412.021 536.344 411.389 537.016 410.573 537.496C409.773 537.96 408.837 538.192 407.765 538.192H405.221ZM407.717 535.72C408.501 535.72 409.125 535.424 409.589 534.832C410.069 534.24 410.309 533.464 410.309 532.504V526.696C410.309 525.736 410.069 524.96 409.589 524.368C409.125 523.776 408.501 523.48 407.717 523.48H405.269C404.469 523.48 403.821 523.776 403.325 524.368C402.829 524.96 402.581 525.736 402.581 526.696V532.504C402.581 533.464 402.829 534.24 403.325 534.832C403.821 535.424 404.469 535.72 405.269 535.72H407.717ZM429.941 520.672H432.797L423.461 538.6H420.605L429.941 520.672ZM419.261 531.76C418.141 531.76 417.229 531.408 416.525 530.704C415.837 530 415.493 529.08 415.493 527.944V524.824C415.493 523.688 415.837 522.768 416.525 522.064C417.229 521.36 418.141 521.008 419.261 521.008H420.605C421.741 521.008 422.653 521.36 423.341 522.064C424.045 522.768 424.397 523.688 424.397 524.824V527.944C424.397 529.08 424.045 530 423.341 530.704C422.653 531.408 421.741 531.76 420.605 531.76H419.261ZM420.557 529.552C420.957 529.552 421.277 529.4 421.517 529.096C421.757 528.776 421.877 528.352 421.877 527.824V524.944C421.877 524.416 421.757 524 421.517 523.696C421.277 523.376 420.957 523.216 420.557 523.216H419.309C418.909 523.216 418.589 523.376 418.349 523.696C418.109 524.016 417.989 524.432 417.989 524.944V527.824C417.989 528.336 418.109 528.752 418.349 529.072C418.589 529.392 418.909 529.552 419.309 529.552H420.557ZM432.749 538.192C431.629 538.192 430.717 537.84 430.013 537.136C429.325 536.432 428.981 535.512 428.981 534.376V531.256C428.981 530.12 429.325 529.2 430.013 528.496C430.717 527.792 431.629 527.44 432.749 527.44H434.093C435.229 527.44 436.141 527.792 436.829 528.496C437.533 529.2 437.885 530.12 437.885 531.256V534.376C437.885 535.512 437.533 536.432 436.829 537.136C436.141 537.84 435.229 538.192 434.093 538.192H432.749ZM434.045 535.984C434.445 535.984 434.765 535.832 435.005 535.528C435.245 535.208 435.365 534.784 435.365 534.256V531.376C435.365 530.848 435.245 530.432 435.005 530.128C434.765 529.808 434.445 529.648 434.045 529.648H432.797C432.397 529.648 432.077 529.808 431.837 530.128C431.597 530.448 431.477 530.864 431.477 531.376V534.256C431.477 534.768 431.597 535.184 431.837 535.504C432.077 535.824 432.397 535.984 432.797 535.984H434.045Z" fill="white"/>
<path d="M277 490L265 502L289 502L277 490Z" fill="#695ADD"/>
<path d="M366 66L378 54H354L366 66Z" fill="#EC7560"/>
<rect width="541" height="54" rx="8" fill="#EE7862"/>
<path d="M37.76 21.624H32.432V19.2H45.896V21.624H40.568V36H37.76V21.624ZM45.3016 24.024H47.8696V25.656C48.1896 25.16 48.6456 24.76 49.2376 24.456C49.8456 24.136 50.4696 23.976 51.1096 23.976H52.5496V26.376H51.1096C50.1976 26.376 49.4616 26.656 48.9016 27.216C48.3416 27.776 48.0616 28.504 48.0616 29.4V36H45.3016V24.024ZM58.3432 36.192C57.3672 36.192 56.5032 36.008 55.7512 35.64C55.0152 35.272 54.4392 34.752 54.0232 34.08C53.6232 33.408 53.4232 32.632 53.4232 31.752V28.536C53.4232 27.608 53.6232 26.792 54.0232 26.088C54.4392 25.368 55.0152 24.816 55.7512 24.432C56.5032 24.032 57.3672 23.832 58.3432 23.832H60.2632C61.7192 23.832 62.8872 24.256 63.7672 25.104C64.6472 25.952 65.0872 27.08 65.0872 28.488V30.888H56.1832V31.752C56.1832 32.392 56.3752 32.904 56.7592 33.288C57.1592 33.672 57.6872 33.864 58.3432 33.864H60.1912C60.8312 33.864 61.3432 33.712 61.7272 33.408C62.1272 33.088 62.3272 32.672 62.3272 32.16H65.0392C65.0392 33.376 64.5912 34.352 63.6952 35.088C62.7992 35.824 61.6232 36.192 60.1672 36.192H58.3432ZM62.3752 28.824V28.488C62.3752 27.784 62.1832 27.216 61.7992 26.784C61.4152 26.352 60.9112 26.136 60.2872 26.136H58.3432C57.6872 26.136 57.1512 26.368 56.7352 26.832C56.3352 27.28 56.1352 27.872 56.1352 28.608V28.824H62.3752ZM71.2393 36.192C70.0233 36.192 69.0393 35.888 68.2873 35.28C67.5513 34.656 67.1833 33.832 67.1833 32.808V31.944C67.1833 30.936 67.5673 30.128 68.3353 29.52C69.1193 28.912 70.1433 28.608 71.4073 28.608H72.8953C73.3433 28.608 73.8233 28.672 74.3353 28.8C74.8473 28.928 75.3033 29.096 75.7033 29.304V27.816C75.7033 27.32 75.5433 26.92 75.2233 26.616C74.9033 26.312 74.4873 26.16 73.9753 26.16H71.9593C71.4313 26.16 71.0073 26.288 70.6873 26.544C70.3673 26.784 70.2073 27.104 70.2073 27.504H67.5193C67.5193 26.4 67.9273 25.512 68.7433 24.84C69.5593 24.168 70.6313 23.832 71.9593 23.832H73.9753C75.3193 23.832 76.3993 24.2 77.2153 24.936C78.0313 25.656 78.4393 26.616 78.4393 27.816V36H75.8713V34.488C75.4873 35 75.0073 35.416 74.4313 35.736C73.8553 36.04 73.2873 36.192 72.7273 36.192H71.2393ZM72.8953 34.032C73.5353 34.032 74.1113 33.856 74.6233 33.504C75.1353 33.136 75.4953 32.656 75.7033 32.064V31.488C75.4313 31.264 75.0473 31.088 74.5513 30.96C74.0553 30.816 73.5353 30.744 72.9913 30.744H71.4793C70.9993 30.744 70.6073 30.864 70.3033 31.104C70.0153 31.344 69.8713 31.656 69.8713 32.04V32.712C69.8713 33.112 70.0233 33.432 70.3273 33.672C70.6313 33.912 71.0313 34.032 71.5273 34.032H72.8953ZM85.3319 36.192C83.9559 36.192 82.8519 35.824 82.0199 35.088C81.1879 34.352 80.7719 33.376 80.7719 32.16H83.4839C83.4839 32.672 83.6519 33.088 83.9879 33.408C84.3239 33.712 84.7719 33.864 85.3319 33.864H87.4679C88.0119 33.864 88.4359 33.776 88.7399 33.6C89.0599 33.408 89.2199 33.152 89.2199 32.832V32.304C89.2199 32.08 89.1239 31.888 88.9319 31.728C88.7559 31.568 88.5079 31.456 88.1879 31.392L84.0359 30.672C83.1079 30.512 82.3719 30.176 81.8279 29.664C81.2839 29.136 81.0119 28.528 81.0119 27.84V27.048C81.0119 26.056 81.4039 25.272 82.1879 24.696C82.9879 24.12 84.0839 23.832 85.4759 23.832H87.3959C88.6599 23.832 89.6839 24.176 90.4679 24.864C91.2519 25.552 91.6439 26.456 91.6439 27.576H88.9319C88.9319 27.144 88.7879 26.8 88.4999 26.544C88.2279 26.288 87.8599 26.16 87.3959 26.16H85.4999C84.9399 26.16 84.5079 26.248 84.2039 26.424C83.8999 26.6 83.7479 26.848 83.7479 27.168V27.648C83.7479 27.872 83.8359 28.064 84.0119 28.224C84.2039 28.384 84.4519 28.488 84.7559 28.536L89.0519 29.304C89.9319 29.48 90.6359 29.816 91.1639 30.312C91.6919 30.808 91.9559 31.392 91.9559 32.064V32.952C91.9559 33.944 91.5479 34.736 90.7319 35.328C89.9159 35.904 88.8279 36.192 87.4679 36.192H85.3319ZM98.1974 36.192C96.9974 36.192 96.0214 35.784 95.2694 34.968C94.5334 34.136 94.1654 33.056 94.1654 31.728V24.024H96.9254V31.776C96.9254 32.384 97.0694 32.872 97.3574 33.24C97.6614 33.608 98.0534 33.792 98.5334 33.792H99.9734C100.581 33.792 101.125 33.552 101.605 33.072C102.101 32.576 102.437 31.936 102.613 31.152V24.024H105.373V36H102.781V34.368C102.429 34.912 101.965 35.352 101.389 35.688C100.829 36.024 100.293 36.192 99.7814 36.192H98.1974ZM108.442 24.024H111.01V25.656C111.33 25.16 111.786 24.76 112.378 24.456C112.986 24.136 113.61 23.976 114.25 23.976H115.69V26.376H114.25C113.338 26.376 112.602 26.656 112.042 27.216C111.482 27.776 111.202 28.504 111.202 29.4V36H108.442V24.024ZM121.811 40.872C120.595 40.872 119.587 40.536 118.787 39.864C118.003 39.192 117.571 38.304 117.491 37.2H120.203C120.251 37.6 120.419 37.92 120.707 38.16C120.995 38.4 121.363 38.52 121.811 38.52H123.755C124.363 38.52 124.843 38.288 125.195 37.824C125.563 37.376 125.747 36.768 125.747 36V34.224C125.363 34.752 124.915 35.168 124.403 35.472C123.907 35.776 123.403 35.928 122.891 35.928H121.331C120.115 35.928 119.131 35.528 118.379 34.728C117.643 33.912 117.275 32.84 117.275 31.512V24.024H120.035V31.56C120.035 32.168 120.179 32.656 120.467 33.024C120.771 33.392 121.171 33.576 121.667 33.576H123.083C123.675 33.576 124.219 33.328 124.715 32.832C125.227 32.336 125.571 31.704 125.747 30.936V24.024H128.483V36C128.483 37.488 128.051 38.672 127.187 39.552C126.339 40.432 125.195 40.872 123.755 40.872H121.811ZM141.159 40.848C139.991 39.184 139.135 37.496 138.591 35.784C138.047 34.072 137.775 32.232 137.775 30.264V29.784C137.775 27.736 138.047 25.856 138.591 24.144C139.135 22.432 139.991 20.784 141.159 19.2H144.063C142.847 20.848 141.951 22.536 141.375 24.264C140.815 25.976 140.535 27.816 140.535 29.784V30.264C140.535 32.088 140.815 33.864 141.375 35.592C141.951 37.304 142.847 39.056 144.063 40.848H141.159ZM147.305 26.4H145.241V24.024H147.305V23.184C147.305 21.888 147.689 20.888 148.457 20.184C149.241 19.464 150.337 19.104 151.745 19.104H153.209V21.456H151.793C151.201 21.456 150.761 21.6 150.473 21.888C150.201 22.16 150.065 22.6 150.065 23.208V24.024H152.945V26.4H150.065V36H147.305V26.4ZM158.89 36.192C157.418 36.192 156.234 35.768 155.338 34.92C154.442 34.056 153.994 32.92 153.994 31.512V28.536C153.994 27.608 154.194 26.792 154.594 26.088C155.01 25.368 155.586 24.816 156.322 24.432C157.074 24.032 157.938 23.832 158.914 23.832H161.026C162.002 23.832 162.858 24.032 163.594 24.432C164.346 24.816 164.922 25.368 165.322 26.088C165.738 26.792 165.946 27.608 165.946 28.536V31.512C165.946 32.92 165.49 34.056 164.578 34.92C163.682 35.768 162.482 36.192 160.978 36.192H158.89ZM160.954 33.816C161.626 33.816 162.162 33.592 162.562 33.144C162.978 32.68 163.186 32.08 163.186 31.344V28.68C163.186 27.944 162.986 27.352 162.586 26.904C162.186 26.44 161.65 26.208 160.978 26.208H158.962C158.29 26.208 157.754 26.44 157.354 26.904C156.954 27.352 156.754 27.944 156.754 28.68V31.344C156.754 32.08 156.954 32.68 157.354 33.144C157.754 33.592 158.274 33.816 158.914 33.816H160.954ZM168.536 24.024H171.104V25.656C171.424 25.16 171.88 24.76 172.472 24.456C173.08 24.136 173.704 23.976 174.344 23.976H175.784V26.376H174.344C173.432 26.376 172.696 26.656 172.136 27.216C171.576 27.776 171.296 28.504 171.296 29.4V36H168.536V24.024ZM184.312 19.2H192.928C194.336 19.2 195.472 19.6 196.336 20.4C197.2 21.184 197.632 22.224 197.632 23.52V25.824C197.632 27.184 197.176 28.28 196.264 29.112C195.368 29.928 194.184 30.336 192.712 30.336H187.12V36H184.312V19.2ZM192.664 27.888C193.32 27.888 193.84 27.688 194.224 27.288C194.624 26.888 194.824 26.368 194.824 25.728V23.592C194.824 23 194.648 22.528 194.296 22.176C193.944 21.824 193.472 21.648 192.88 21.648H187.12V27.888H192.664ZM199.638 19.2H202.398V25.368C202.766 24.904 203.214 24.536 203.742 24.264C204.286 23.976 204.814 23.832 205.326 23.832H206.862C208.094 23.832 209.078 24.224 209.814 25.008C210.566 25.792 210.942 26.824 210.942 28.104V36H208.182V28.176C208.182 27.6 208.03 27.136 207.726 26.784C207.438 26.416 207.054 26.232 206.574 26.232H205.038C204.414 26.232 203.854 26.464 203.358 26.928C202.862 27.392 202.542 28 202.398 28.752V36H199.638V19.2ZM217.536 36.192C216.32 36.192 215.336 35.888 214.584 35.28C213.848 34.656 213.48 33.832 213.48 32.808V31.944C213.48 30.936 213.864 30.128 214.632 29.52C215.416 28.912 216.44 28.608 217.704 28.608H219.192C219.64 28.608 220.12 28.672 220.632 28.8C221.144 28.928 221.6 29.096 222 29.304V27.816C222 27.32 221.84 26.92 221.52 26.616C221.2 26.312 220.784 26.16 220.272 26.16H218.256C217.728 26.16 217.304 26.288 216.984 26.544C216.664 26.784 216.504 27.104 216.504 27.504H213.816C213.816 26.4 214.224 25.512 215.04 24.84C215.856 24.168 216.928 23.832 218.256 23.832H220.272C221.616 23.832 222.696 24.2 223.512 24.936C224.328 25.656 224.736 26.616 224.736 27.816V36H222.168V34.488C221.784 35 221.304 35.416 220.728 35.736C220.152 36.04 219.584 36.192 219.024 36.192H217.536ZM219.192 34.032C219.832 34.032 220.408 33.856 220.92 33.504C221.432 33.136 221.792 32.656 222 32.064V31.488C221.728 31.264 221.344 31.088 220.848 30.96C220.352 30.816 219.832 30.744 219.288 30.744H217.776C217.296 30.744 216.904 30.864 216.6 31.104C216.312 31.344 216.168 31.656 216.168 32.04V32.712C216.168 33.112 216.32 33.432 216.624 33.672C216.928 33.912 217.328 34.032 217.824 34.032H219.192ZM231.629 36.192C230.253 36.192 229.149 35.824 228.317 35.088C227.485 34.352 227.069 33.376 227.069 32.16H229.781C229.781 32.672 229.949 33.088 230.285 33.408C230.621 33.712 231.069 33.864 231.629 33.864H233.765C234.309 33.864 234.733 33.776 235.037 33.6C235.357 33.408 235.517 33.152 235.517 32.832V32.304C235.517 32.08 235.421 31.888 235.229 31.728C235.053 31.568 234.805 31.456 234.485 31.392L230.333 30.672C229.405 30.512 228.669 30.176 228.125 29.664C227.581 29.136 227.309 28.528 227.309 27.84V27.048C227.309 26.056 227.701 25.272 228.485 24.696C229.285 24.12 230.381 23.832 231.773 23.832H233.693C234.957 23.832 235.981 24.176 236.765 24.864C237.549 25.552 237.941 26.456 237.941 27.576H235.229C235.229 27.144 235.085 26.8 234.797 26.544C234.525 26.288 234.157 26.16 233.693 26.16H231.797C231.237 26.16 230.805 26.248 230.501 26.424C230.197 26.6 230.045 26.848 230.045 27.168V27.648C230.045 27.872 230.133 28.064 230.309 28.224C230.501 28.384 230.749 28.488 231.053 28.536L235.349 29.304C236.229 29.48 236.933 29.816 237.461 30.312C237.989 30.808 238.253 31.392 238.253 32.064V32.952C238.253 33.944 237.845 34.736 237.029 35.328C236.213 35.904 235.125 36.192 233.765 36.192H231.629ZM245.046 36.192C244.07 36.192 243.206 36.008 242.454 35.64C241.718 35.272 241.142 34.752 240.726 34.08C240.326 33.408 240.126 32.632 240.126 31.752V28.536C240.126 27.608 240.326 26.792 240.726 26.088C241.142 25.368 241.718 24.816 242.454 24.432C243.206 24.032 244.07 23.832 245.046 23.832H246.966C248.422 23.832 249.59 24.256 250.47 25.104C251.35 25.952 251.79 27.08 251.79 28.488V30.888H242.886V31.752C242.886 32.392 243.078 32.904 243.462 33.288C243.862 33.672 244.39 33.864 245.046 33.864H246.894C247.534 33.864 248.046 33.712 248.43 33.408C248.83 33.088 249.03 32.672 249.03 32.16H251.742C251.742 33.376 251.294 34.352 250.398 35.088C249.502 35.824 248.326 36.192 246.87 36.192H245.046ZM249.078 28.824V28.488C249.078 27.784 248.886 27.216 248.502 26.784C248.118 26.352 247.614 26.136 246.99 26.136H245.046C244.39 26.136 243.854 26.368 243.438 26.832C243.038 27.28 242.838 27.872 242.838 28.608V28.824H249.078ZM260.374 33.864C260.374 32.936 260.542 32.136 260.878 31.464C261.23 30.776 261.806 30.168 262.605 29.64L268.558 25.776C268.878 25.568 269.126 25.304 269.302 24.984C269.494 24.664 269.59 24.336 269.59 24V23.232C269.59 22.72 269.398 22.304 269.014 21.984C268.646 21.648 268.166 21.48 267.574 21.48H265.366C264.662 21.48 264.11 21.736 263.71 22.248C263.31 22.744 263.11 23.432 263.11 24.312H260.302C260.302 22.664 260.75 21.368 261.646 20.424C262.542 19.48 263.766 19.008 265.318 19.008H267.574C268.518 19.008 269.358 19.184 270.094 19.536C270.83 19.888 271.398 20.384 271.798 21.024C272.198 21.664 272.398 22.4 272.398 23.232V24C272.398 24.8 272.222 25.504 271.87 26.112C271.534 26.72 270.998 27.248 270.262 27.696L264.478 31.368C264.03 31.656 263.702 31.968 263.494 32.304C263.302 32.624 263.206 33.04 263.206 33.552H272.542V36H260.374V33.864ZM285.874 36.192C284.402 36.192 283.218 35.768 282.322 34.92C281.426 34.056 280.978 32.92 280.978 31.512V28.536C280.978 27.608 281.178 26.792 281.578 26.088C281.994 25.368 282.57 24.816 283.306 24.432C284.058 24.032 284.922 23.832 285.898 23.832H288.01C288.986 23.832 289.842 24.032 290.578 24.432C291.33 24.816 291.906 25.368 292.306 26.088C292.722 26.792 292.93 27.608 292.93 28.536V31.512C292.93 32.92 292.474 34.056 291.562 34.92C290.666 35.768 289.466 36.192 287.962 36.192H285.874ZM287.938 33.816C288.61 33.816 289.146 33.592 289.546 33.144C289.962 32.68 290.17 32.08 290.17 31.344V28.68C290.17 27.944 289.97 27.352 289.57 26.904C289.17 26.44 288.634 26.208 287.962 26.208H285.946C285.274 26.208 284.738 26.44 284.338 26.904C283.938 27.352 283.738 27.944 283.738 28.68V31.344C283.738 32.08 283.938 32.68 284.338 33.144C284.738 33.592 285.258 33.816 285.898 33.816H287.938ZM296.508 26.4H294.444V24.024H296.508V23.184C296.508 21.888 296.892 20.888 297.66 20.184C298.444 19.464 299.54 19.104 300.948 19.104H302.412V21.456H300.996C300.404 21.456 299.964 21.6 299.676 21.888C299.404 22.16 299.268 22.6 299.268 23.208V24.024H302.148V26.4H299.268V36H296.508V26.4ZM316.077 36C314.717 36 313.725 35.696 313.101 35.088C312.477 34.48 312.165 33.52 312.165 32.208V26.4H310.053V24.024H312.237V20.4H314.925V24.024H318.045V26.4H314.925V32.112C314.925 32.64 315.029 33.024 315.237 33.264C315.445 33.504 315.773 33.624 316.221 33.624H318.045V36H316.077ZM320.645 19.2H323.405V25.368C323.773 24.904 324.221 24.536 324.749 24.264C325.293 23.976 325.821 23.832 326.333 23.832H327.869C329.101 23.832 330.085 24.224 330.821 25.008C331.573 25.792 331.949 26.824 331.949 28.104V36H329.189V28.176C329.189 27.6 329.037 27.136 328.733 26.784C328.445 26.416 328.061 26.232 327.581 26.232H326.045C325.421 26.232 324.861 26.464 324.365 26.928C323.869 27.392 323.549 28 323.405 28.752V36H320.645V19.2ZM339.312 36.192C338.336 36.192 337.472 36.008 336.72 35.64C335.984 35.272 335.408 34.752 334.992 34.08C334.592 33.408 334.392 32.632 334.392 31.752V28.536C334.392 27.608 334.592 26.792 334.992 26.088C335.408 25.368 335.984 24.816 336.72 24.432C337.472 24.032 338.336 23.832 339.312 23.832H341.232C342.688 23.832 343.856 24.256 344.736 25.104C345.616 25.952 346.056 27.08 346.056 28.488V30.888H337.152V31.752C337.152 32.392 337.344 32.904 337.728 33.288C338.128 33.672 338.656 33.864 339.312 33.864H341.16C341.8 33.864 342.312 33.712 342.696 33.408C343.096 33.088 343.296 32.672 343.296 32.16H346.008C346.008 33.376 345.56 34.352 344.664 35.088C343.768 35.824 342.592 36.192 341.136 36.192H339.312ZM343.344 28.824V28.488C343.344 27.784 343.152 27.216 342.768 26.784C342.384 26.352 341.88 26.136 341.256 26.136H339.312C338.656 26.136 338.12 26.368 337.704 26.832C337.304 27.28 337.104 27.872 337.104 28.608V28.824H343.344ZM355.239 24.024H357.807V25.44C358.143 24.96 358.575 24.576 359.103 24.288C359.647 23.984 360.175 23.832 360.687 23.832H362.271C363.663 23.832 364.783 24.256 365.631 25.104C366.495 25.936 366.927 27.04 366.927 28.416V31.2C366.927 32.704 366.503 33.912 365.655 34.824C364.807 35.736 363.679 36.192 362.271 36.192H360.663C360.199 36.192 359.719 36.08 359.223 35.856C358.727 35.616 358.319 35.304 357.999 34.92V40.8H355.239V24.024ZM361.983 33.816C362.639 33.816 363.167 33.56 363.567 33.048C363.983 32.536 364.191 31.864 364.191 31.032V28.584C364.191 27.88 363.991 27.312 363.591 26.88C363.191 26.432 362.663 26.208 362.007 26.208H360.471C359.927 26.208 359.423 26.424 358.959 26.856C358.511 27.272 358.191 27.816 357.999 28.488V31.272C358.079 32.024 358.343 32.64 358.791 33.12C359.255 33.584 359.807 33.816 360.447 33.816H361.983ZM369.513 24.024H372.081V25.656C372.401 25.16 372.857 24.76 373.449 24.456C374.057 24.136 374.681 23.976 375.321 23.976H376.761V26.376H375.321C374.409 26.376 373.673 26.656 373.113 27.216C372.553 27.776 372.273 28.504 372.273 29.4V36H369.513V24.024ZM382.53 36.192C381.058 36.192 379.874 35.768 378.978 34.92C378.082 34.056 377.634 32.92 377.634 31.512V28.536C377.634 27.608 377.834 26.792 378.234 26.088C378.65 25.368 379.226 24.816 379.962 24.432C380.714 24.032 381.578 23.832 382.554 23.832H384.666C385.642 23.832 386.498 24.032 387.234 24.432C387.986 24.816 388.562 25.368 388.962 26.088C389.378 26.792 389.586 27.608 389.586 28.536V31.512C389.586 32.92 389.13 34.056 388.218 34.92C387.322 35.768 386.122 36.192 384.618 36.192H382.53ZM384.594 33.816C385.266 33.816 385.802 33.592 386.202 33.144C386.618 32.68 386.826 32.08 386.826 31.344V28.68C386.826 27.944 386.626 27.352 386.226 26.904C385.826 26.44 385.29 26.208 384.618 26.208H382.602C381.93 26.208 381.394 26.44 380.994 26.904C380.594 27.352 380.394 27.944 380.394 28.68V31.344C380.394 32.08 380.594 32.68 380.994 33.144C381.394 33.592 381.914 33.816 382.554 33.816H384.594ZM394.217 22.68C393.673 22.68 393.233 22.52 392.897 22.2C392.577 21.864 392.417 21.44 392.417 20.928C392.417 20.416 392.577 20 392.897 19.68C393.233 19.344 393.673 19.176 394.217 19.176C394.761 19.176 395.201 19.344 395.537 19.68C395.873 20 396.041 20.416 396.041 20.928C396.041 21.44 395.873 21.864 395.537 22.2C395.201 22.52 394.761 22.68 394.217 22.68ZM389.681 38.4H390.953C391.609 38.4 392.089 38.2 392.393 37.8C392.697 37.416 392.849 36.784 392.849 35.904V24.024H395.609V35.784C395.609 37.512 395.233 38.776 394.481 39.576C393.745 40.376 392.569 40.776 390.953 40.776H389.681V38.4ZM403.554 36.192C402.578 36.192 401.714 36.008 400.962 35.64C400.226 35.272 399.65 34.752 399.234 34.08C398.834 33.408 398.634 32.632 398.634 31.752V28.536C398.634 27.608 398.834 26.792 399.234 26.088C399.65 25.368 400.226 24.816 400.962 24.432C401.714 24.032 402.578 23.832 403.554 23.832H405.474C406.93 23.832 408.098 24.256 408.978 25.104C409.858 25.952 410.298 27.08 410.298 28.488V30.888H401.394V31.752C401.394 32.392 401.586 32.904 401.97 33.288C402.37 33.672 402.898 33.864 403.554 33.864H405.402C406.042 33.864 406.554 33.712 406.938 33.408C407.338 33.088 407.538 32.672 407.538 32.16H410.25C410.25 33.376 409.802 34.352 408.906 35.088C408.01 35.824 406.834 36.192 405.378 36.192H403.554ZM407.586 28.824V28.488C407.586 27.784 407.394 27.216 407.01 26.784C406.626 26.352 406.122 26.136 405.498 26.136H403.554C402.898 26.136 402.362 26.368 401.946 26.832C401.546 27.28 401.346 27.872 401.346 28.608V28.824H407.586ZM417.17 36.192C415.698 36.192 414.514 35.768 413.618 34.92C412.738 34.072 412.298 32.952 412.298 31.56V28.536C412.298 27.608 412.498 26.792 412.898 26.088C413.298 25.368 413.866 24.816 414.602 24.432C415.338 24.032 416.186 23.832 417.146 23.832H419.066C420.442 23.832 421.546 24.232 422.378 25.032C423.226 25.816 423.65 26.856 423.65 28.152H420.938C420.938 27.576 420.762 27.112 420.41 26.76C420.074 26.392 419.626 26.208 419.066 26.208H417.17C416.546 26.208 416.034 26.44 415.634 26.904C415.25 27.368 415.058 27.968 415.058 28.704V31.392C415.058 32.112 415.25 32.696 415.634 33.144C416.034 33.592 416.554 33.816 417.194 33.816H419.09C419.682 33.816 420.154 33.6 420.506 33.168C420.874 32.736 421.058 32.176 421.058 31.488H423.77C423.77 32.896 423.338 34.032 422.474 34.896C421.626 35.76 420.498 36.192 419.09 36.192H417.17ZM430.991 36C429.631 36 428.639 35.696 428.015 35.088C427.391 34.48 427.079 33.52 427.079 32.208V26.4H424.967V24.024H427.151V20.4H429.839V24.024H432.959V26.4H429.839V32.112C429.839 32.64 429.943 33.024 430.151 33.264C430.359 33.504 430.687 33.624 431.135 33.624H432.959V36H430.991ZM434.599 40.848C435.815 39.056 436.703 37.304 437.263 35.592C437.839 33.88 438.127 32.104 438.127 30.264V29.784C438.127 27.8 437.839 25.952 437.263 24.24C436.703 22.528 435.815 20.848 434.599 19.2H437.503C438.671 20.784 439.527 22.432 440.071 24.144C440.615 25.856 440.887 27.736 440.887 29.784V30.264C440.887 32.232 440.615 34.072 440.071 35.784C439.527 37.496 438.671 39.184 437.503 40.848H434.599ZM444.753 27.696C444.225 27.696 443.801 27.536 443.481 27.216C443.161 26.896 443.001 26.48 443.001 25.968C443.001 25.44 443.161 25.016 443.481 24.696C443.801 24.376 444.225 24.216 444.753 24.216C445.265 24.216 445.681 24.376 446.001 24.696C446.321 25.016 446.481 25.44 446.481 25.968C446.481 26.48 446.321 26.896 446.001 27.216C445.681 27.536 445.265 27.696 444.753 27.696ZM444.753 35.664C444.225 35.664 443.801 35.504 443.481 35.184C443.161 34.864 443.001 34.448 443.001 33.936C443.001 33.408 443.161 32.984 443.481 32.664C443.801 32.344 444.225 32.184 444.753 32.184C445.265 32.184 445.681 32.344 446.001 32.664C446.321 32.984 446.481 33.408 446.481 33.936C446.481 34.448 446.321 34.864 446.001 35.184C445.681 35.504 445.265 35.664 444.753 35.664ZM455.186 33.864C455.186 32.936 455.354 32.136 455.69 31.464C456.042 30.776 456.618 30.168 457.418 29.64L463.37 25.776C463.69 25.568 463.938 25.304 464.114 24.984C464.306 24.664 464.402 24.336 464.402 24V23.232C464.402 22.72 464.21 22.304 463.826 21.984C463.458 21.648 462.978 21.48 462.386 21.48H460.178C459.474 21.48 458.922 21.736 458.522 22.248C458.122 22.744 457.922 23.432 457.922 24.312H455.114C455.114 22.664 455.562 21.368 456.458 20.424C457.354 19.48 458.578 19.008 460.13 19.008H462.386C463.33 19.008 464.17 19.184 464.906 19.536C465.642 19.888 466.21 20.384 466.61 21.024C467.01 21.664 467.21 22.4 467.21 23.232V24C467.21 24.8 467.034 25.504 466.682 26.112C466.346 26.72 465.81 27.248 465.074 27.696L459.29 31.368C458.842 31.656 458.514 31.968 458.306 32.304C458.114 32.624 458.018 33.04 458.018 33.552H467.354V36H455.186V33.864ZM474.775 36.192C473.703 36.192 472.751 35.96 471.919 35.496C471.103 35.016 470.463 34.344 469.999 33.48C469.551 32.6 469.327 31.592 469.327 30.456V24.744C469.327 23.608 469.551 22.608 469.999 21.744C470.463 20.864 471.103 20.192 471.919 19.728C472.751 19.248 473.703 19.008 474.775 19.008H477.319C478.375 19.008 479.311 19.248 480.127 19.728C480.943 20.192 481.575 20.864 482.023 21.744C482.471 22.608 482.695 23.608 482.695 24.744V30.456C482.695 31.592 482.471 32.6 482.023 33.48C481.575 34.344 480.943 35.016 480.127 35.496C479.327 35.96 478.391 36.192 477.319 36.192H474.775ZM477.271 33.72C478.055 33.72 478.679 33.424 479.143 32.832C479.623 32.24 479.863 31.464 479.863 30.504V24.696C479.863 23.736 479.623 22.96 479.143 22.368C478.679 21.776 478.055 21.48 477.271 21.48H474.823C474.023 21.48 473.375 21.776 472.879 22.368C472.383 22.96 472.135 23.736 472.135 24.696V30.504C472.135 31.464 472.383 32.24 472.879 32.832C473.375 33.424 474.023 33.72 474.823 33.72H477.271ZM499.496 18.672H502.352L493.016 36.6H490.16L499.496 18.672ZM488.816 29.76C487.696 29.76 486.784 29.408 486.08 28.704C485.392 28 485.048 27.08 485.048 25.944V22.824C485.048 21.688 485.392 20.768 486.08 20.064C486.784 19.36 487.696 19.008 488.816 19.008H490.16C491.296 19.008 492.208 19.36 492.896 20.064C493.6 20.768 493.952 21.688 493.952 22.824V25.944C493.952 27.08 493.6 28 492.896 28.704C492.208 29.408 491.296 29.76 490.16 29.76H488.816ZM490.112 27.552C490.512 27.552 490.832 27.4 491.072 27.096C491.312 26.776 491.432 26.352 491.432 25.824V22.944C491.432 22.416 491.312 22 491.072 21.696C490.832 21.376 490.512 21.216 490.112 21.216H488.864C488.464 21.216 488.144 21.376 487.904 21.696C487.664 22.016 487.544 22.432 487.544 22.944V25.824C487.544 26.336 487.664 26.752 487.904 27.072C488.144 27.392 488.464 27.552 488.864 27.552H490.112ZM502.304 36.192C501.184 36.192 500.272 35.84 499.568 35.136C498.88 34.432 498.536 33.512 498.536 32.376V29.256C498.536 28.12 498.88 27.2 499.568 26.496C500.272 25.792 501.184 25.44 502.304 25.44H503.648C504.784 25.44 505.696 25.792 506.384 26.496C507.088 27.2 507.44 28.12 507.44 29.256V32.376C507.44 33.512 507.088 34.432 506.384 35.136C505.696 35.84 504.784 36.192 503.648 36.192H502.304ZM503.6 33.984C504 33.984 504.32 33.832 504.56 33.528C504.8 33.208 504.92 32.784 504.92 32.256V29.376C504.92 28.848 504.8 28.432 504.56 28.128C504.32 27.808 504 27.648 503.6 27.648H502.352C501.952 27.648 501.632 27.808 501.392 28.128C501.152 28.448 501.032 28.864 501.032 29.376V32.256C501.032 32.768 501.152 33.184 501.392 33.504C501.632 33.824 501.952 33.984 502.352 33.984H503.6Z" fill="white"/>
<defs>
<filter id="filter0_d_740_11508" x="253.105" y="66.4255" width="269.769" height="275.679" filterUnits="userSpaceOnUse" color-interpolation-filters="sRGB">
<feFlood flood-opacity="0" result="BackgroundImageFix"/>
<feColorMatrix in="SourceAlpha" type="matrix" values="0 0 0 0 0 0 0 0 0 0 0 0 0 0 0 0 0 0 127 0" result="hardAlpha"/>
<feOffset dy="36"/>
<feGaussianBlur stdDeviation="24"/>
<feComposite in2="hardAlpha" operator="out"/>
<feColorMatrix type="matrix" values="0 0 0 0 0.8375 0 0 0 0 0.413404 0 0 0 0 0.335 0 0 0 0.54 0"/>
<feBlend mode="normal" in2="BackgroundImageFix" result="effect1_dropShadow_740_11508"/>
<feBlend mode="normal" in="SourceGraphic" in2="effect1_dropShadow_740_11508" result="shape"/>
</filter>
<filter id="filter1_d_740_11508" x="59.1046" y="90.9999" width="456" height="456" filterUnits="userSpaceOnUse" color-interpolation-filters="sRGB">
<feFlood flood-opacity="0" result="BackgroundImageFix"/>
<feColorMatrix in="SourceAlpha" type="matrix" values="0 0 0 0 0 0 0 0 0 0 0 0 0 0 0 0 0 0 127 0" result="hardAlpha"/>
<feOffset dy="36"/>
<feGaussianBlur stdDeviation="24"/>
<feComposite in2="hardAlpha" operator="out"/>
<feColorMatrix type="matrix" values="0 0 0 0 0.470588 0 0 0 0 0.411765 0 0 0 0 0.917647 0 0 0 0.4 0"/>
<feBlend mode="normal" in2="BackgroundImageFix" result="effect1_dropShadow_740_11508"/>
<feBlend mode="normal" in="SourceGraphic" in2="effect1_dropShadow_740_11508" result="shape"/>
</filter>
<radialGradient id="paint0_radial_740_11508" cx="0" cy="0" r="1" gradientUnits="userSpaceOnUse" gradientTransform="translate(277.548 142.648) rotate(26.376) scale(261.09)">
<stop stop-color="#F38168"/>
<stop offset="1" stop-color="#E26453"/>
</radialGradient>
<radialGradient id="paint1_radial_740_11508" cx="0" cy="0" r="1" gradientUnits="userSpaceOnUse" gradientTransform="translate(417.603 394.243) rotate(-145.775) scale(414.468)">
<stop stop-color="#7869EA"/>
<stop offset="1" stop-color="#6253D7"/>
</radialGradient>
</defs>
</svg>
