<svg width="139" height="139" viewBox="0 0 139 139" fill="none" xmlns="http://www.w3.org/2000/svg">
<circle cx="69.5" cy="69.5" r="69.5" fill="black"/>
<path d="M97.5643 54.0674C93.3714 47.864 92.5728 47.0375 92.9396 47.5158C53.3928 56.5562 50.2633 87.8519 51.4798 96.3119C51.9673 99.6922 52.8356 102.608 53.9175 105.12C54.2518 105.896 54.6094 106.634 54.9808 107.33C51.5123 100.491 52.1159 93.0524 55.9466 88.1862C58.454 85.0056 62.3404 82.93 67.3737 82.8464C80.6767 83.06 85.9886 97.2313 78.9123 108.877C74.4872 116.162 67.4248 119.273 67.4248 119.273C74.1065 119.612 80.0359 118.14 81.285 117.704C87.2795 115.614 93.5525 112.141 97.5643 107.707C111.866 91.9101 108.077 69.6178 97.5643 54.0674Z" fill="url(#paint0_linear_740_11492)"/>
<path d="M92.532 112.052C102.181 104.845 102.956 79.1588 80.2134 74.3809C60.3866 70.2112 50.6497 88.1435 52.7206 100.917C53.2638 104.265 54.6382 106.624 54.3968 106.062C51.6108 99.5846 52.3584 92.7497 55.9523 88.1853C58.4597 85.0047 62.3461 82.9291 67.3794 82.8456C80.6824 83.0591 85.9943 97.2304 78.9179 108.876C74.4929 116.161 67.4305 119.272 67.4305 119.272C76.4013 119.727 84.7452 117.484 92.5367 112.052H92.532Z" fill="url(#paint1_linear_740_11492)"/>
<path d="M51.485 96.307C50.2638 87.8469 53.398 56.5512 92.9448 47.5108C92.578 47.0325 87.0292 39.6544 83.909 35.7772C76.5308 26.6021 70.2856 19.6511 70.2856 19.6511C70.2856 19.6511 53.802 37.7181 42.751 54.0671C32.2386 69.6221 28.4497 91.9098 42.751 107.706C47.9004 113.394 57.7627 118.78 67.4253 119.273C67.4253 119.273 54.0852 114.346 51.4803 96.307H51.485Z" fill="url(#paint2_linear_740_11492)"/>
<defs>
<linearGradient id="paint0_linear_740_11492" x1="60.2417" y1="60.7862" x2="96.7703" y2="105.051" gradientUnits="userSpaceOnUse">
<stop stop-color="#137493"/>
<stop offset="0.97" stop-color="#83DF78"/>
</linearGradient>
<linearGradient id="paint1_linear_740_11492" x1="59.7087" y1="76.3589" x2="90.9858" y2="114.907" gradientUnits="userSpaceOnUse">
<stop stop-color="#10708A"/>
<stop offset="0.97" stop-color="#6ED066"/>
</linearGradient>
<linearGradient id="paint2_linear_740_11492" x1="64.5047" y1="17.8727" x2="61.6259" y2="119.073" gradientUnits="userSpaceOnUse">
<stop stop-color="#138A94"/>
<stop offset="0.97" stop-color="#90E674"/>
</linearGradient>
</defs>
</svg>
