<svg width="1600" height="800" viewBox="0 0 1600 800" fill="none" xmlns="http://www.w3.org/2000/svg">
<mask id="mask0_740_11453" style="mask-type:alpha" maskUnits="userSpaceOnUse" x="0" y="0" width="1600" height="800">
<rect width="1600" height="800" fill="url(#paint0_linear_740_11453)"/>
</mask>
<g mask="url(#mask0_740_11453)">
<g opacity="0.2" filter="url(#filter0_d_740_11453)">
<path d="M742.978 99.6021C679.798 6.12592 667.763 -6.32827 673.291 0.878349C77.3803 137.104 30.2224 608.683 48.5538 736.163C55.9003 787.1 68.9842 831.039 85.2865 868.891C90.3242 880.576 95.7116 891.701 101.309 902.196C49.0435 799.134 58.1393 687.046 115.862 613.721C153.644 565.793 212.207 534.518 288.051 533.259C488.507 536.477 568.55 750.017 461.92 925.495C395.241 1035.27 288.821 1082.15 288.821 1082.15C389.504 1087.26 478.852 1065.08 497.673 1058.5C588.001 1027.02 682.526 974.682 742.978 907.863C958.477 669.835 901.384 333.922 742.978 99.6021Z" fill="url(#paint1_linear_740_11453)"/>
<path d="M667.149 973.337C812.541 864.748 824.225 477.689 481.526 405.693C182.766 342.863 36.045 613.076 67.2504 805.556C75.4365 856.002 96.1468 891.545 92.5085 883.079C50.5282 785.475 61.7929 682.483 115.948 613.706C153.73 565.778 212.292 534.503 288.137 533.243C488.593 536.462 568.635 750.002 462.005 925.479C395.326 1035.26 288.906 1082.14 288.906 1082.14C424.083 1088.99 549.814 1055.2 667.219 973.337H667.149Z" fill="url(#paint2_linear_740_11453)"/>
<path d="M48.6305 736.088C30.2291 608.608 77.4569 137.029 673.367 0.802979C667.84 -6.40363 584.229 -117.581 537.211 -176.004C426.033 -314.259 331.928 -419 331.928 -419C331.928 -419 83.5441 -146.758 -82.9778 99.5966C-241.383 333.987 -298.477 669.829 -82.9778 907.857C-5.3842 993.567 143.226 1074.73 288.828 1082.15C288.828 1082.15 87.8121 1007.91 48.5605 736.088H48.6305Z" fill="url(#paint3_linear_740_11453)"/>
</g>
<g opacity="0.2" filter="url(#filter1_d_740_11453)">
<path d="M1211.57 702.472C1270.97 790.348 1282.28 802.056 1277.08 795.281C1837.29 667.217 1881.62 223.895 1864.39 104.053C1857.48 56.1694 1845.18 14.8628 1829.86 -20.7214C1825.12 -31.7058 1820.06 -42.164 1814.79 -52.0302C1863.93 44.8561 1855.38 150.227 1801.11 219.159C1765.59 264.215 1710.54 293.616 1639.24 294.8C1450.8 291.775 1375.55 91.0299 1475.79 -73.9333C1538.47 -177.134 1638.52 -221.203 1638.52 -221.203C1543.87 -226.005 1459.87 -205.154 1442.18 -198.971C1357.26 -169.372 1268.4 -120.173 1211.57 -57.358C1008.99 166.408 1062.66 482.193 1211.57 702.472Z" fill="url(#paint4_linear_740_11453)"/>
<path d="M1282.86 -118.909C1146.18 -16.8264 1135.19 347.04 1457.36 414.722C1738.22 473.788 1876.15 219.766 1846.81 38.8191C1839.12 -8.60452 1819.65 -42.0182 1823.07 -34.0594C1862.53 57.6964 1851.94 154.517 1801.03 219.174C1765.51 264.229 1710.46 293.631 1639.16 294.815C1450.71 291.789 1375.47 91.0442 1475.71 -73.9189C1538.39 -177.12 1638.44 -221.189 1638.44 -221.189C1511.36 -227.635 1393.16 -195.865 1282.79 -118.909L1282.86 -118.909Z" fill="url(#paint5_linear_740_11453)"/>
<path d="M1864.31 104.124C1881.61 223.966 1837.22 667.288 1277.01 795.352C1282.21 802.126 1360.81 906.643 1405.01 961.565C1509.53 1091.54 1597.99 1190 1597.99 1190C1597.99 1190 1831.49 934.071 1988.04 702.478C2136.95 482.132 2190.62 166.413 1988.04 -57.3527C1915.09 -137.927 1775.39 -214.225 1638.51 -221.198C1638.51 -221.198 1827.48 -151.411 1864.38 104.124L1864.31 104.124Z" fill="url(#paint6_linear_740_11453)"/>
</g>
</g>
<defs>
<filter id="filter0_d_740_11453" x="-288" y="-451" width="1236" height="1630" filterUnits="userSpaceOnUse" color-interpolation-filters="sRGB">
<feFlood flood-opacity="0" result="BackgroundImageFix"/>
<feColorMatrix in="SourceAlpha" type="matrix" values="0 0 0 0 0 0 0 0 0 0 0 0 0 0 0 0 0 0 127 0" result="hardAlpha"/>
<feOffset dy="32"/>
<feGaussianBlur stdDeviation="32"/>
<feComposite in2="hardAlpha" operator="out"/>
<feColorMatrix type="matrix" values="0 0 0 0 0 0 0 0 0 0 0 0 0 0 0 0 0 0 0.6 0"/>
<feBlend mode="normal" in2="BackgroundImageFix" result="effect1_dropShadow_740_11453"/>
<feBlend mode="normal" in="SourceGraphic" in2="effect1_dropShadow_740_11453" result="shape"/>
</filter>
<filter id="filter1_d_740_11453" x="1015" y="-254" width="1169.61" height="1540" filterUnits="userSpaceOnUse" color-interpolation-filters="sRGB">
<feFlood flood-opacity="0" result="BackgroundImageFix"/>
<feColorMatrix in="SourceAlpha" type="matrix" values="0 0 0 0 0 0 0 0 0 0 0 0 0 0 0 0 0 0 127 0" result="hardAlpha"/>
<feOffset dy="32"/>
<feGaussianBlur stdDeviation="32"/>
<feComposite in2="hardAlpha" operator="out"/>
<feColorMatrix type="matrix" values="0 0 0 0 0 0 0 0 0 0 0 0 0 0 0 0 0 0 0.6 0"/>
<feBlend mode="normal" in2="BackgroundImageFix" result="effect1_dropShadow_740_11453"/>
<feBlend mode="normal" in="SourceGraphic" in2="effect1_dropShadow_740_11453" result="shape"/>
</filter>
<linearGradient id="paint0_linear_740_11453" x1="747" y1="-217" x2="1652.24" y2="836.605" gradientUnits="userSpaceOnUse">
<stop stop-color="#138A94"/>
<stop offset="1" stop-color="#4CBA99"/>
</linearGradient>
<linearGradient id="paint1_linear_740_11453" x1="180.582" y1="200.845" x2="731.014" y2="867.842" gradientUnits="userSpaceOnUse">
<stop stop-color="#137493"/>
<stop offset="0.97" stop-color="#83DF78"/>
</linearGradient>
<linearGradient id="paint2_linear_740_11453" x1="172.551" y1="435.499" x2="643.85" y2="1016.37" gradientUnits="userSpaceOnUse">
<stop stop-color="#10708A"/>
<stop offset="0.97" stop-color="#6ED066"/>
</linearGradient>
<linearGradient id="paint3_linear_740_11453" x1="244.818" y1="-445.797" x2="201.439" y2="1079.14" gradientUnits="userSpaceOnUse">
<stop stop-color="#138A94"/>
<stop offset="0.97" stop-color="#90E674"/>
</linearGradient>
<linearGradient id="paint4_linear_740_11453" x1="1740.27" y1="607.296" x2="1222.82" y2="-19.7347" gradientUnits="userSpaceOnUse">
<stop stop-color="#137493"/>
<stop offset="0.97" stop-color="#83DF78"/>
</linearGradient>
<linearGradient id="paint5_linear_740_11453" x1="1747.82" y1="386.702" x2="1304.76" y2="-159.36" gradientUnits="userSpaceOnUse">
<stop stop-color="#10708A"/>
<stop offset="0.97" stop-color="#6ED066"/>
</linearGradient>
<linearGradient id="paint6_linear_740_11453" x1="1679.88" y1="1215.19" x2="1720.66" y2="-218.369" gradientUnits="userSpaceOnUse">
<stop stop-color="#138A94"/>
<stop offset="0.97" stop-color="#90E674"/>
</linearGradient>
</defs>
</svg>
